<svg width="693" height="125" viewBox="0 0 693 125" fill="none" xmlns="http://www.w3.org/2000/svg">
<path d="M86.2753 103.984L86.8756 103.789L86.7341 103.354L86.2765 103.353L86.2753 103.984ZM46.3603 103.907L46.3615 103.275L45.9039 103.275L45.7607 103.709L46.3603 103.907ZM40.4055 121.992L40.4043 122.623L40.8619 122.624L41.0051 122.19L40.4055 121.992ZM0.997951 121.916L0.405572 121.698L0.0936792 122.545L0.996723 122.547L0.997951 121.916ZM45.0358 2.25591L45.037 1.62469L44.5958 1.62384L44.4434 2.0379L45.0358 2.25591ZM88.3334 2.34011L88.9269 2.12515L88.7764 1.70975L88.3346 1.70889L88.3334 2.34011ZM131.736 122.17L131.735 122.801L132.637 122.803L132.33 121.955L131.736 122.17ZM92.1596 122.093L91.5593 122.288L91.7008 122.723L92.1584 122.724L92.1596 122.093ZM77.1971 75.7217L77.1959 76.3529L78.0646 76.3546L77.7978 75.5278L77.1971 75.7217ZM66.4375 42.3818L67.0382 42.1879L66.4415 40.3388L65.8375 42.1856L66.4375 42.3818ZM55.5483 75.6796L54.9484 75.4834L54.6783 76.3091L55.5471 76.3108L55.5483 75.6796ZM86.2765 103.353L46.3615 103.275L46.3591 104.538L86.274 104.616L86.2765 103.353ZM45.7607 103.709L39.806 121.795L41.0051 122.19L46.9599 104.104L45.7607 103.709ZM40.4067 121.361L0.999178 121.284L0.996723 122.547L40.4043 122.623L40.4067 121.361ZM1.59033 122.134L45.6282 2.47392L44.4434 2.0379L0.405572 121.698L1.59033 122.134ZM45.0346 2.88714L88.3321 2.97133L88.3346 1.70889L45.037 1.62469L45.0346 2.88714ZM87.7399 2.55507L131.143 122.385L132.33 121.955L88.9269 2.12515L87.7399 2.55507ZM131.738 121.539L92.1609 121.462L92.1584 122.724L131.735 122.801L131.738 121.539ZM92.76 121.898L86.8756 103.789L85.6749 104.179L91.5593 122.288L92.76 121.898ZM77.7978 75.5278L67.0382 42.1879L65.8368 42.5756L76.5964 75.9155L77.7978 75.5278ZM65.8375 42.1856L54.9484 75.4834L56.1483 75.8757L67.0375 42.578L65.8375 42.1856ZM55.5471 76.3108L77.1959 76.3529L77.1983 75.0904L55.5495 75.0483L55.5471 76.3108ZM220.554 60.9477L220.397 60.3364L220.409 61.562L220.554 60.9477ZM237.278 71.4664L236.771 71.8424L236.776 71.8485L236.78 71.8544L237.278 71.4664ZM232.798 113.91L233.197 114.399L233.198 114.398L232.798 113.91ZM140.267 122.186L139.636 122.185L139.634 122.816L140.266 122.818L140.267 122.186ZM140.5 2.44155L140.501 1.81034L139.87 1.80911L139.869 2.44033L140.5 2.44155ZM235.118 51.5046L234.618 51.1194L234.617 51.1211L235.118 51.5046ZM177.956 49.1948L177.325 49.1935L177.324 49.8248L177.955 49.826L177.956 49.1948ZM199.947 47.208L199.554 46.7143L199.545 46.7209L199.537 46.7279L199.947 47.208ZM199.972 34.5231L199.541 34.9848L199.558 35.0007L199.576 35.0152L199.972 34.5231ZM177.989 32.2817L177.99 31.6504L177.359 31.6492L177.358 32.2804L177.989 32.2817ZM202.4 90.3413L202.789 90.8384L202.794 90.835L202.4 90.3413ZM177.905 75.241L177.907 74.6097L177.275 74.6085L177.274 75.2397L177.905 75.241ZM177.873 92.1541L177.241 92.1529L177.24 92.7841L177.871 92.7853L177.873 92.1541ZM220.409 61.562C227.496 63.2375 232.935 66.6696 236.771 71.8424L237.785 71.0904C233.749 65.649 228.039 62.0686 220.7 60.3334L220.409 61.562ZM236.78 71.8544C240.739 76.9326 242.713 82.8303 242.7 89.574L243.963 89.5765C243.976 82.5642 241.916 76.3893 237.776 71.0783L236.78 71.8544ZM242.7 89.574C242.68 99.9049 239.23 107.824 232.398 113.422L233.198 114.398C240.37 108.522 243.942 100.218 243.963 89.5765L242.7 89.574ZM232.399 113.421C225.665 118.919 215.902 121.702 203.016 121.677L203.013 122.94C216.061 122.965 226.154 120.149 233.197 114.399L232.399 113.421ZM203.016 121.677L140.268 121.555L140.266 122.818L203.013 122.94L203.016 121.677ZM140.898 122.188L141.131 2.44278L139.869 2.44033L139.636 122.185L140.898 122.188ZM140.499 3.07278L201.555 3.19151L201.557 1.92907L140.501 1.81034L140.499 3.07278ZM201.555 3.19151C213.647 3.21503 223.075 5.86496 229.911 11.0676L230.675 10.0631C223.55 4.6397 213.82 1.95292 201.557 1.92907L201.555 3.19151ZM229.911 11.0676C236.708 16.2412 240.122 23.77 240.103 33.7555L241.365 33.7579C241.385 23.4477 237.839 15.5156 230.675 10.0631L229.911 11.0676ZM240.103 33.7555C240.089 40.6282 238.252 46.4038 234.618 51.1194L235.618 51.8899C239.445 46.9232 241.351 40.8668 241.365 33.7579L240.103 33.7555ZM234.617 51.1211C231.09 55.7308 226.36 58.8028 220.397 60.3364L220.712 61.559C226.932 59.9592 231.911 56.7358 235.62 51.8882L234.617 51.1211ZM177.955 49.826L192.5 49.8543L192.503 48.5918L177.957 48.5636L177.955 49.826ZM192.5 49.8543C195.945 49.861 198.608 49.181 200.357 47.688L199.537 46.7279C198.124 47.9349 195.823 48.5983 192.503 48.5918L192.5 49.8543ZM200.34 47.7016C202.227 46.1982 203.122 43.9044 203.127 40.9563L201.865 40.9538C201.86 43.6434 201.055 45.5182 199.554 46.7143L200.34 47.7016ZM203.127 40.9563C203.133 37.9052 202.254 35.5463 200.367 34.031L199.576 35.0152C201.067 36.2126 201.87 38.1417 201.865 40.9538L203.127 40.9563ZM200.402 34.0614C198.659 32.4363 195.99 31.6854 192.535 31.6787L192.533 32.9412C195.844 32.9476 198.133 33.6722 199.541 34.9848L200.402 34.0614ZM192.535 31.6787L177.99 31.6504L177.988 32.9129L192.533 32.9412L192.535 31.6787ZM177.358 32.2804L177.325 49.1935L178.587 49.196L178.62 32.2829L177.358 32.2804ZM194.954 92.8185C198.389 92.8252 201.043 92.2049 202.789 90.8384L202.011 89.8442C200.595 90.9522 198.285 91.5626 194.956 91.5561L194.954 92.8185ZM202.794 90.835C204.686 89.327 205.575 86.9716 205.581 83.9205L204.318 83.9181C204.313 86.7302 203.502 88.6562 202.007 89.8477L202.794 90.835ZM205.581 83.9205C205.587 80.9221 204.72 78.5639 202.881 76.9684C201.06 75.3882 198.392 74.6496 194.989 74.643L194.986 75.9054C198.236 75.9117 200.554 76.6205 202.054 77.9219C203.536 79.2081 204.324 81.166 204.318 83.9181L205.581 83.9205ZM194.989 74.643L177.907 74.6097L177.904 75.8722L194.986 75.9054L194.989 74.643ZM177.274 75.2397L177.241 92.1529L178.504 92.1553L178.537 75.2422L177.274 75.2397ZM177.871 92.7853L194.954 92.8185L194.956 91.5561L177.874 91.5229L177.871 92.7853ZM283.127 115.699L282.815 116.248L282.818 116.249L283.127 115.699ZM260.845 93.6685L260.3 93.9883L260.845 93.6685ZM283.335 8.63893L283.64 9.19163L283.643 9.19039L283.335 8.63893ZM345.407 8.75964L345.094 9.30832L345.099 9.31114L345.407 8.75964ZM367.52 30.6206L366.973 30.9356L366.976 30.9405L367.52 30.6206ZM367.397 93.8757L366.854 93.5537L366.851 93.5586L367.397 93.8757ZM345.029 115.819L344.722 115.268L344.719 115.269L345.029 115.819ZM331.565 81.6285L332.044 82.0403L332.048 82.0347L331.565 81.6285ZM331.641 42.7284L331.156 43.1326L331.161 43.1382L331.641 42.7284ZM296.969 42.6609L297.447 43.0727L297.452 43.0671L296.969 42.6609ZM296.893 81.5611L296.408 81.9654L296.413 81.971L296.893 81.5611ZM314.233 123.077C303.061 123.056 292.8 120.412 283.436 115.149L282.818 116.249C292.377 121.622 302.852 124.318 314.231 124.34L314.233 123.077ZM283.439 115.15C274.188 109.888 266.84 102.624 261.389 93.3486L260.3 93.9883C265.863 103.452 273.37 110.875 282.815 116.248L283.439 115.15ZM261.389 93.3486C255.944 84.0843 253.227 73.6489 253.25 62.0261L251.987 62.0236C251.964 73.8537 254.732 84.514 260.3 93.9883L261.389 93.3486ZM253.25 62.0261C253.273 50.4033 256.03 39.9785 261.511 30.7354L260.425 30.0915C254.819 39.5441 252.01 50.1935 251.987 62.0236L253.25 62.0261ZM261.511 30.7354C266.997 21.4827 274.372 14.3049 283.64 9.19163L283.03 8.08624C273.562 13.3099 266.024 20.6485 260.425 30.0915L261.511 30.7354ZM283.643 9.19039C293.026 3.96396 303.298 1.35977 314.47 1.3815L314.472 0.119058C303.093 0.09693 292.608 2.75185 283.028 8.08747L283.643 9.19039ZM314.47 1.3815C325.642 1.40322 335.846 4.04721 345.094 9.3083L345.719 8.21096C336.271 2.83678 325.851 0.141186 314.472 0.119058L314.47 1.3815ZM345.099 9.31114C354.347 14.4598 361.636 21.6645 366.973 30.9356L368.067 30.3057C362.617 20.8385 355.163 13.4693 345.714 8.20813L345.099 9.31114ZM366.976 30.9405C372.421 40.2048 375.138 50.6403 375.115 62.2631L376.377 62.2655C376.4 50.4354 373.633 39.7751 368.064 30.3008L366.976 30.9405ZM375.115 62.2631C375.092 73.8858 372.335 84.3106 366.854 93.5537L367.94 94.1977C373.545 84.7451 376.354 74.0956 376.377 62.2655L375.115 62.2631ZM366.851 93.5586C361.478 102.808 354.105 110.042 344.722 115.268L345.336 116.371C354.917 111.035 362.455 103.639 367.943 94.1928L366.851 93.5586ZM344.719 115.269C335.449 120.495 325.291 123.099 314.233 123.077L314.231 124.34C325.498 124.362 335.872 121.706 345.339 116.369L344.719 115.269ZM314.299 89.3297C321.886 89.3445 327.832 86.9349 332.044 82.0403L331.087 81.2168C327.162 85.7777 321.598 88.0815 314.301 88.0673L314.299 89.3297ZM332.048 82.0347C336.237 77.0517 338.307 70.4151 338.323 62.1915L337.06 62.1891C337.045 70.2021 335.031 76.5243 331.082 81.2224L332.048 82.0347ZM338.323 62.1915C338.339 53.8586 336.296 47.209 332.121 42.3185L331.161 43.1382C335.085 47.7348 337.076 54.0599 337.06 62.1891L338.323 62.1915ZM332.126 42.3241C327.935 37.2983 321.997 34.8057 314.405 34.7909L314.402 36.0534C321.694 36.0676 327.248 38.4457 331.156 43.1326L332.126 42.3241ZM314.405 34.7909C306.704 34.776 300.698 37.2431 296.486 42.2548L297.452 43.0671C301.377 38.3977 306.994 36.039 314.402 36.0534L314.405 34.7909ZM296.49 42.2492C292.296 47.1234 290.227 53.7651 290.211 62.098L291.474 62.1004C291.489 53.9712 293.505 47.654 297.447 43.0727L296.49 42.2492ZM290.211 62.098C290.195 70.3215 292.24 76.9662 296.408 81.9654L297.378 81.1568C293.447 76.4434 291.458 70.1135 291.474 62.1004L290.211 62.098ZM296.413 81.971C300.608 86.8841 306.603 89.3148 314.299 89.3297L314.301 88.0673C306.888 88.0529 301.278 85.7252 297.373 81.1512L296.413 81.971ZM426.108 2.99696L426.739 2.99819L426.741 2.36697L426.109 2.36574L426.108 2.99696ZM429.503 83.6794L428.991 84.0487L428.998 84.0587L429.006 84.0684L429.503 83.6794ZM453.35 83.7258L453.838 84.1275L453.844 84.119L453.35 83.7258ZM457.397 3.05781L457.399 2.42659L456.767 2.42536L456.766 3.05658L457.397 3.05781ZM494.775 3.13049L495.407 3.13172L495.408 2.5005L494.777 2.49928L494.775 3.13049ZM487.484 99.8597L488.026 100.182L488.028 100.179L487.484 99.8597ZM467.998 117.919L468.277 118.486L467.998 117.919ZM413.369 117.813L413.076 118.372L413.079 118.373L413.369 117.813ZM395.138 99.6801L394.584 99.983L395.138 99.6801ZM388.73 2.92427L388.731 2.29306L388.1 2.29183L388.099 2.92305L388.73 2.92427ZM425.477 2.99573L425.346 70.4791L426.608 70.4815L426.739 2.99819L425.477 2.99573ZM425.346 70.4791C425.335 76.089 426.528 80.633 428.991 84.0487L430.015 83.3102C427.755 80.1769 426.598 75.9215 426.608 70.4815L425.346 70.4791ZM429.006 84.0684C431.638 87.432 435.798 89.0586 441.332 89.0694L441.334 87.8069C436.043 87.7966 432.317 86.2508 430 83.2904L429.006 84.0684ZM441.332 89.0694C446.867 89.0801 451.081 87.4692 453.837 84.1274L452.863 83.3242C450.42 86.2865 446.623 87.8172 441.334 87.8069L441.332 89.0694ZM453.844 84.119C456.558 80.7113 457.886 76.1635 457.897 70.5424L456.635 70.5399C456.624 75.9687 455.343 80.2107 452.857 83.3326L453.844 84.119ZM457.897 70.5424L458.029 3.05903L456.766 3.05658L456.635 70.5399L457.897 70.5424ZM457.396 3.68903L494.774 3.76172L494.777 2.49928L457.399 2.42659L457.396 3.68903ZM494.144 3.12926L494.013 70.6126L495.275 70.6151L495.407 3.13172L494.144 3.12926ZM494.013 70.6126C493.991 81.9126 491.623 91.5465 486.939 99.5406L488.028 100.179C492.847 91.9548 495.253 82.0914 495.275 70.6151L494.013 70.6126ZM486.941 99.5373C482.252 107.43 475.848 113.364 467.72 117.352L468.277 118.486C476.627 114.388 483.213 108.282 488.026 100.182L486.941 99.5373ZM467.72 117.352C459.577 121.348 450.481 123.342 440.419 123.323L440.417 124.585C450.651 124.605 459.942 122.576 468.277 118.486L467.72 117.352ZM440.419 123.323C430.358 123.303 421.442 121.274 413.659 117.252L413.079 118.373C421.065 122.5 430.183 124.565 440.417 124.585L440.419 123.323ZM413.662 117.254C406.005 113.24 400.017 107.287 395.692 99.3773L394.584 99.983C399.023 108.102 405.189 114.237 413.076 118.372L413.662 117.254ZM395.692 99.3773C391.373 91.4776 389.208 81.8305 389.23 70.4088L387.968 70.4064C387.945 81.9865 390.14 91.8545 394.584 99.983L395.692 99.3773ZM389.23 70.4088L389.361 2.9255L388.099 2.92305L387.968 70.4064L389.23 70.4088ZM388.729 3.5555L426.107 3.62818L426.109 2.36574L388.731 2.29306L388.729 3.5555ZM605.007 3.34485L605.638 3.34608L605.639 2.71486L605.008 2.71364L605.007 3.34485ZM604.949 33.1119L604.947 33.7432L605.579 33.7444L605.58 33.1132L604.949 33.1119ZM573.152 33.0501L573.153 32.4189L572.522 32.4177L572.521 33.0489L573.152 33.0501ZM572.977 123.028L572.976 123.659L573.607 123.66L573.608 123.029L572.977 123.028ZM535.43 122.955L534.799 122.954L534.798 123.585L535.429 123.586L535.43 122.955ZM535.605 32.9771L536.236 32.9783L536.237 32.3471L535.606 32.3459L535.605 32.9771ZM504.147 32.9159L503.515 32.9147L503.514 33.5459L504.145 33.5471L504.147 32.9159ZM504.204 3.14883L504.206 2.51761L503.574 2.51638L503.573 3.1476L504.204 3.14883ZM604.375 3.34362L604.318 33.1107L605.58 33.1132L605.638 3.34608L604.375 3.34362ZM604.95 32.4807L573.153 32.4189L573.151 33.6813L604.947 33.7432L604.95 32.4807ZM572.521 33.0489L572.346 123.027L573.608 123.029L573.783 33.0513L572.521 33.0489ZM572.978 122.397L535.431 122.324L535.429 123.586L572.976 123.659L572.978 122.397ZM536.061 122.956L536.236 32.9783L534.974 32.9759L534.799 122.954L536.061 122.956ZM535.606 32.3459L504.148 32.2847L504.145 33.5471L535.604 33.6083L535.606 32.3459ZM504.778 32.9171L504.836 3.15006L503.573 3.1476L503.515 32.9147L504.778 32.9171ZM504.203 3.78005L605.005 3.97608L605.008 2.71364L504.206 2.51761L504.203 3.78005ZM680.631 3.49191L681.262 3.49314L681.263 2.86192L680.632 2.8607L680.631 3.49191ZM684.026 84.1744L683.514 84.5436L683.521 84.5536L683.528 84.5634L684.026 84.1744ZM707.873 84.2208L708.36 84.6224L708.367 84.614L707.873 84.2208ZM711.92 3.55276L711.921 2.92154L711.29 2.92032L711.289 3.55153L711.92 3.55276ZM749.298 3.62545L749.929 3.62667L749.93 2.99546L749.299 2.99423L749.298 3.62545ZM742.006 100.355L742.549 100.677L742.551 100.674L742.006 100.355ZM722.521 118.414L722.799 118.981L722.521 118.414ZM667.892 118.308L667.599 118.867L667.602 118.868L667.892 118.308ZM649.661 100.175L649.107 100.478L649.661 100.175ZM643.253 3.41923L643.254 2.78801L642.623 2.78678L642.621 3.418L643.253 3.41923ZM680 3.49069L679.868 70.974L681.131 70.9765L681.262 3.49314L680 3.49069ZM679.868 70.974C679.857 76.5839 681.05 81.128 683.514 84.5436L684.538 83.8052C682.278 80.6719 681.12 76.4165 681.131 70.9765L679.868 70.974ZM683.528 84.5634C686.161 87.9269 690.321 89.5535 695.854 89.5643L695.857 88.3019C690.566 88.2916 686.839 86.7457 684.523 83.7854L683.528 84.5634ZM695.854 89.5643C701.39 89.5751 705.604 87.9642 708.36 84.6224L707.386 83.8192C704.943 86.7815 701.146 88.3121 695.857 88.3019L695.854 89.5643ZM708.367 84.614C711.08 81.2063 712.409 76.6585 712.42 71.0373L711.158 71.0349C711.147 76.4636 709.865 80.7056 707.379 83.8276L708.367 84.614ZM712.42 71.0373L712.551 3.55399L711.289 3.55153L711.158 71.0349L712.42 71.0373ZM711.919 4.18398L749.297 4.25667L749.299 2.99423L711.921 2.92154L711.919 4.18398ZM748.667 3.62422L748.536 71.1076L749.798 71.11L749.929 3.62667L748.667 3.62422ZM748.536 71.1076C748.514 82.4076 746.146 92.0414 741.462 100.036L742.551 100.674C747.37 92.4497 749.776 82.5863 749.798 71.11L748.536 71.1076ZM741.464 100.032C736.774 107.925 730.37 113.859 722.243 117.847L722.799 118.981C731.15 114.883 737.736 108.777 742.549 100.677L741.464 100.032ZM722.243 117.847C714.1 121.843 705.003 123.837 694.942 123.818L694.94 125.08C705.174 125.1 714.464 123.071 722.799 118.981L722.243 117.847ZM694.942 123.818C684.88 123.798 675.965 121.769 668.182 117.747L667.602 118.868C675.588 122.995 684.706 125.06 694.94 125.08L694.942 123.818ZM668.185 117.749C660.528 113.735 654.539 107.782 650.215 99.8723L649.107 100.478C653.546 108.597 659.712 114.732 667.599 118.867L668.185 117.749ZM650.215 99.8723C645.895 91.9725 643.731 82.3255 643.753 70.9038L642.49 70.9013C642.468 82.4815 644.662 92.3495 649.107 100.478L650.215 99.8723ZM643.753 70.9038L643.884 3.42045L642.621 3.418L642.49 70.9013L643.753 70.9038ZM643.251 4.05045L680.629 4.12314L680.632 2.8607L643.254 2.78801L643.251 4.05045ZM776.608 114.629L776.235 115.138L776.242 115.143L776.608 114.629ZM761.613 85.0018L761.614 84.3706L760.944 84.3693L760.983 85.0389L761.613 85.0018ZM801.528 85.0794L802.157 85.0291L802.111 84.4493L801.529 84.4482L801.528 85.0794ZM815.718 94.071L816.067 94.597L816.076 94.5907L815.718 94.071ZM813.372 82.7346L813.049 83.277L813.057 83.2815L813.064 83.2858L813.372 82.7346ZM799.177 76.6182L798.966 77.2131L798.967 77.2135L799.177 76.6182ZM780.08 68.6319L779.787 69.1908L779.792 69.1934L780.08 68.6319ZM767.248 57.2751L767.76 56.9049L767.248 57.2751ZM762.043 38.1531L762.674 38.1635L762.674 38.1543L762.043 38.1531ZM768.001 18.3763L767.493 18.0016L767.491 18.0034L768.001 18.3763ZM784.431 5.89247L784.196 5.30659L784.192 5.30794L784.431 5.89247ZM842.769 11.9255L842.377 12.4202L842.38 12.4227L842.769 11.9255ZM856.413 40.5353L856.412 41.1666L857.067 41.1678L857.044 40.5134L856.413 40.5353ZM815.991 40.4567L815.36 40.4765L815.379 41.0868L815.99 41.088L815.991 40.4567ZM803.829 32.653L804.274 33.1002L804.286 33.0885L804.297 33.0762L803.829 32.653ZM806.682 43.8213L806.35 44.3582L806.362 44.3656L806.375 44.3725L806.682 43.8213ZM821.046 50.1071L820.821 50.6969L820.825 50.698L821.046 50.1071ZM839.635 58.2616L839.336 58.8176L839.341 58.8204L839.635 58.2616ZM852.468 69.1109L851.97 69.4983L852.468 69.1109ZM852.395 106.32L852.93 106.656L852.932 106.652L852.395 106.32ZM836.64 119.82L836.37 119.249L836.64 119.82ZM812.108 124.046C797.886 124.018 786.19 120.693 776.975 114.115L776.242 115.143C785.718 121.907 797.687 125.28 812.105 125.308L812.108 124.046ZM776.982 114.12C767.922 107.464 762.998 97.7736 762.243 84.9647L760.983 85.0389C761.756 98.1665 766.829 108.228 776.235 115.138L776.982 114.12ZM761.612 85.633L801.527 85.7106L801.529 84.4482L761.614 84.3706L761.612 85.633ZM800.899 85.1298C801.18 88.6404 802.101 91.3752 803.746 93.2399C805.408 95.1253 807.737 96.0397 810.64 96.0454L810.642 94.783C808.021 94.7779 806.068 93.9645 804.693 92.4049C803.299 90.8247 802.427 88.3975 802.157 85.0291L800.899 85.1298ZM810.64 96.0454C812.763 96.0495 814.585 95.5806 816.067 94.5969L815.369 93.5451C814.141 94.3602 812.578 94.7867 810.642 94.783L810.64 96.0454ZM816.076 94.5907C817.74 93.4435 818.552 91.7134 818.557 89.51L817.294 89.5075C817.29 91.3632 816.631 92.6746 815.359 93.5513L816.076 94.5907ZM818.557 89.51C818.563 86.4046 816.865 83.9614 813.68 82.1834L813.064 83.2858C815.961 84.9023 817.299 86.9751 817.294 89.5075L818.557 89.51ZM813.695 82.1922C810.599 80.3495 805.82 78.2943 799.387 76.023L798.967 77.2135C805.379 79.4774 810.063 81.4997 813.049 83.277L813.695 82.1922ZM799.388 76.0234C791.742 73.3082 785.405 70.6567 780.369 68.0704L779.792 69.1934C784.894 71.8136 791.287 74.4863 798.966 77.2131L799.388 76.0234ZM780.374 68.0731C775.512 65.5195 771.307 61.8019 767.76 56.9049L766.737 57.6454C770.387 62.6847 774.737 66.5383 779.787 69.1908L780.374 68.0731ZM767.76 56.9049C764.261 52.0739 762.547 45.8438 762.674 38.1635L761.411 38.1427C761.282 46.0221 763.039 52.54 766.737 57.6454L767.76 56.9049ZM762.674 38.1543C762.689 30.4856 764.644 24.0291 768.51 18.7492L767.491 18.0034C763.443 23.5325 761.427 30.2605 761.411 38.1519L762.674 38.1543ZM768.509 18.751C772.504 13.3352 777.884 9.24251 784.669 6.47701L784.192 5.30794C777.211 8.15341 771.637 12.3833 767.493 18.0016L768.509 18.751ZM784.666 6.47836C791.576 3.70742 799.334 2.32438 807.947 2.34113L807.949 1.07869C799.199 1.06168 791.278 2.46702 784.196 5.30659L784.666 6.47836ZM807.947 2.34113C822.512 2.36946 833.965 5.75248 842.377 12.4202L843.162 11.4309C834.461 4.53478 822.701 1.10738 807.949 1.07869L807.947 2.34113ZM842.38 12.4227C850.884 19.0756 855.361 28.4279 855.783 40.5573L857.044 40.5134C856.612 28.0606 851.993 18.3398 843.158 11.4284L842.38 12.4227ZM856.415 39.9041L815.992 39.8255L815.99 41.088L856.412 41.1666L856.415 39.9041ZM816.622 40.4369C816.514 36.9792 815.652 34.3519 813.899 32.7174L813.038 33.6409C814.436 34.9441 815.256 37.1686 815.36 40.4765L816.622 40.4369ZM813.899 32.7174C812.201 31.1344 810.13 30.3427 807.723 30.3381L807.721 31.6005C809.825 31.6046 811.585 32.2861 813.038 33.6409L813.899 32.7174ZM807.723 30.3381C805.974 30.3346 804.503 30.9655 803.36 32.2299L804.297 33.0762C805.189 32.0894 806.313 31.5978 807.721 31.6005L807.723 30.3381ZM803.383 32.2058C802.212 33.3722 801.671 35.02 801.667 37.0462L802.929 37.0487C802.933 35.2413 803.412 33.9594 804.274 33.1002L803.383 32.2058ZM801.667 37.0462C801.661 40.0321 803.294 42.4691 806.35 44.3582L807.014 43.2843C804.215 41.554 802.925 39.4751 802.929 37.0487L801.667 37.0462ZM806.375 44.3725C809.457 46.0928 814.28 48.2012 820.821 50.6968L821.271 49.5173C814.743 47.0263 809.99 44.9442 806.99 43.2701L806.375 44.3725ZM820.825 50.698C828.358 53.5258 834.526 56.2328 839.336 58.8176L839.934 57.7055C835.057 55.0848 828.833 52.3555 821.268 49.5161L820.825 50.698ZM839.341 58.8204C844.214 61.3795 848.423 64.9361 851.97 69.4983L852.966 68.7236C849.315 64.026 844.968 60.3496 839.928 57.7027L839.341 58.8204ZM851.97 69.4983C855.467 73.9969 857.228 79.6627 857.215 86.5408L858.477 86.5432C858.491 79.4397 856.667 73.4848 852.966 68.7236L851.97 69.4983ZM857.215 86.5408C857.201 93.7608 855.413 100.238 851.859 105.988L852.932 106.652C856.617 100.69 858.463 93.9812 858.477 86.5432L857.215 86.5408ZM851.861 105.983C848.314 111.613 843.16 116.038 836.37 119.249L836.91 120.39C843.889 117.089 849.239 112.513 852.93 106.656L851.861 105.983ZM836.37 119.249C829.589 122.457 821.508 124.064 812.108 124.046L812.105 125.308C821.648 125.327 829.923 123.695 836.91 120.39L836.37 119.249Z" fill="#A1A1A1"/>
</svg>
