<svg width="60" height="60" viewBox="0 0 60 60" fill="none" xmlns="http://www.w3.org/2000/svg">
<path d="M29.8827 5.34193C16.4163 5.31574 5.43914 16.2502 5.41296 29.7167L5.39328 39.8348C5.38842 42.3356 7.57514 44.3743 10.2689 44.3795L12.7111 44.3843C13.3589 44.3855 13.9805 44.1294 14.4394 43.6723C14.8983 43.2152 15.1568 42.5945 15.1581 41.9468L15.1825 29.3864C15.1838 28.7387 14.9277 28.117 14.4706 27.6581C14.0135 27.1992 13.3928 26.9407 12.7451 26.9395L10.5275 26.9351C11.9038 17.4864 20.0506 10.2073 29.8732 10.2264C39.6958 10.2455 47.8142 17.5562 49.1537 27.0103L46.9362 27.0059C46.2885 27.0047 45.6668 27.2608 45.2079 27.7179C44.749 28.175 44.4905 28.7957 44.4892 29.4434L44.46 44.446C44.4548 47.1398 42.2599 49.3262 39.5661 49.321L34.6817 49.3115L34.6864 46.8692L24.9175 46.8502L24.9033 54.1769L39.5566 54.2054C44.9441 54.2159 49.334 49.8431 49.3445 44.4555C52.0383 44.4607 54.2329 42.4306 54.2378 39.9298L54.2574 29.8117C54.2836 16.3452 43.3491 5.36811 29.8827 5.34193Z" fill="#0085FF"/>
</svg>
