<svg width="73" height="73" viewBox="0 0 73 73" fill="none" xmlns="http://www.w3.org/2000/svg">
<path d="M9.54149 36.5601L36.5938 36.6127L36.585 41.1214L9.53272 41.0688L9.54149 36.5601ZM5.05469 25.2795L27.5983 25.3234L27.5895 29.8321L5.04592 29.7883L5.05469 25.2795Z" fill="#0085FF"/>
<path d="M67.9698 38.0398L61.2374 22.2461C61.0647 21.8402 60.7765 21.4939 60.4086 21.2503C60.0408 21.0068 59.6095 20.8766 59.1683 20.876L52.4053 20.8628L52.414 16.3541C52.4152 15.7562 52.1788 15.1823 51.7568 14.7587C51.3349 14.3351 50.762 14.0965 50.1641 14.0953L14.0943 14.0252L14.0855 18.5339L47.9009 18.5997L47.8459 46.9054C46.8175 47.4999 45.9169 48.2921 45.1962 49.2364C44.4755 50.1806 43.9488 51.2582 43.6466 52.4069L29.4802 52.3794C28.9356 50.2532 27.6343 48.3987 25.8202 47.1633C24.0061 45.928 21.8037 45.3967 19.6258 45.669C17.448 45.9413 15.4443 46.9986 13.9902 48.6426C12.5361 50.2866 11.7315 52.4045 11.7272 54.5992C11.723 56.794 12.5193 58.915 13.967 60.5647C15.4147 62.2143 17.4143 63.2794 19.5911 63.5601C21.7678 63.8409 23.9722 63.3182 25.7912 62.0899C27.6101 60.8616 28.9186 59.0121 29.4714 56.8881L43.6378 56.9157C44.1244 58.8514 45.2426 60.5696 46.8155 61.7984C48.3883 63.0273 50.326 63.6966 52.322 63.7005C54.3179 63.7043 56.2582 63.0426 57.8358 61.8199C59.4134 60.5972 60.5383 58.8833 61.0324 56.9495L65.8613 56.9589C66.4592 56.96 67.0331 56.7237 67.4566 56.3017C67.8802 55.8797 68.1189 55.3068 68.12 54.7089L68.1507 38.9284C68.1514 38.623 68.0899 38.3206 67.9698 38.0398ZM20.7697 59.1256C19.878 59.1238 19.0068 58.8577 18.2663 58.3608C17.5258 57.864 16.9492 57.1587 16.6096 56.3342C16.2699 55.5096 16.1824 54.6029 16.3581 53.7286C16.5338 52.8544 16.9647 52.0518 17.5965 51.4225C18.2283 50.7932 19.0325 50.3653 19.9075 50.193C20.7824 50.0208 21.6888 50.1118 22.512 50.4547C23.3352 50.7975 24.0382 51.3768 24.5322 52.1192C25.0262 52.8616 25.2889 53.7339 25.2872 54.6256C25.2837 55.821 24.806 56.9662 23.9591 57.8099C23.1122 58.6535 21.9651 59.1267 20.7697 59.1256ZM52.3965 25.3715L57.6717 25.3818L62.4831 36.663L52.3746 36.6433L52.3965 25.3715ZM52.3307 59.1869C51.439 59.1852 50.5678 58.9191 49.8273 58.4222C49.0868 57.9253 48.5103 57.2201 48.1706 56.3955C47.831 55.571 47.7435 54.6643 47.9191 53.79C48.0948 52.9157 48.5258 52.1132 49.1576 51.4839C49.7893 50.8545 50.5936 50.4267 51.4685 50.2544C52.3434 50.0822 53.2498 50.1732 54.073 50.5161C54.8962 50.8589 55.5993 51.4382 56.0932 52.1806C56.5872 52.923 56.85 53.7952 56.8482 54.687C56.8447 55.8824 56.3671 57.0276 55.5201 57.8712C54.6732 58.7149 53.5262 59.1881 52.3307 59.1869ZM63.6157 52.4458L61.0412 52.4408C60.5484 50.5088 59.4284 48.795 57.8568 47.568C56.2852 46.341 54.3509 45.6702 52.357 45.6608L52.3658 41.1521L63.6376 41.174L63.6157 52.4458Z" fill="#0085FF"/>
</svg>
