<svg width="666" height="126" viewBox="0 0 666 126" fill="none" xmlns="http://www.w3.org/2000/svg">
<path d="M7.99819 30.7429L7.43971 30.4486L7.43694 30.454L7.99819 30.7429ZM28.674 9.30335L28.9853 9.85247L28.9905 9.84946L28.674 9.30335ZM87.8735 7.55803L87.5964 8.12527L87.6059 8.12971L87.8735 7.55803ZM107.799 24.0026L107.285 24.3685L107.289 24.3738L107.799 24.0026ZM118.068 48.8849L118.067 49.5161L118.82 49.5176L118.689 48.7752L118.068 48.8849ZM78.491 48.8079L77.9164 49.0693L78.0843 49.4384L78.4898 49.4392L78.491 48.8079ZM70.7288 39.6597L70.3694 40.1787L70.3795 40.1857L70.39 40.1923L70.7288 39.6597ZM44.3371 43.3293L43.8414 42.9383L43.8357 42.9458L44.3371 43.3293ZM44.2627 81.553L43.7598 81.9346L43.7656 81.942L44.2627 81.553ZM70.6396 85.4943L70.9845 86.023L70.9887 86.0202L70.6396 85.4943ZM78.4377 76.2072L78.439 75.576L78.0335 75.5752L77.8642 75.9436L78.4377 76.2072ZM118.014 76.2842L118.636 76.3963L118.77 75.6544L118.016 75.6529L118.014 76.2842ZM107.649 101.126L107.14 100.753L107.136 100.758L107.649 101.126ZM87.6594 117.662L87.9278 118.234L87.9312 118.232L87.6594 117.662ZM28.4671 115.687L28.1484 116.232L28.1536 116.235L28.4671 115.687ZM7.87518 93.998L7.31278 94.2846L7.31559 94.29L7.87518 93.998ZM1.4644 62.3578C1.48725 50.6046 3.85762 40.1677 8.55945 31.0317L7.43694 30.454C2.63146 39.7914 0.225146 50.4302 0.201956 62.3554L1.4644 62.3578ZM8.55664 31.0371C13.3679 21.9055 20.175 14.8483 28.9853 9.85244L28.3626 8.75427C19.3381 13.8716 12.3613 21.1075 7.43974 30.4487L8.55664 31.0371ZM28.9905 9.84946C37.7963 4.74496 48.174 2.19243 60.1463 2.21571L60.1487 0.953274C47.9916 0.929632 37.387 3.52301 28.3574 8.75725L28.9905 9.84946ZM60.1463 2.21571C70.4383 2.23573 79.5837 4.21082 87.5964 8.12519L88.1506 6.99086C79.9421 2.98087 70.6034 0.973604 60.1487 0.953274L60.1463 2.21571ZM87.6059 8.12971C95.735 11.9351 102.29 17.3474 107.285 24.3685L108.313 23.6367C103.188 16.4309 96.4592 10.8802 88.1411 6.98634L87.6059 8.12971ZM107.289 24.3738C112.4 31.4027 115.788 39.6055 117.446 48.9947L118.689 48.7752C117.001 39.215 113.544 30.8296 108.31 23.6313L107.289 24.3738ZM118.069 48.2537L78.4923 48.1767L78.4898 49.4392L118.067 49.5161L118.069 48.2537ZM79.0656 48.5466C77.223 44.4951 74.5579 41.3472 71.0675 39.1271L70.39 40.1923C73.6565 42.2701 76.1663 45.221 77.9164 49.0693L79.0656 48.5466ZM71.0881 39.1408C67.709 36.8007 63.8069 35.6324 59.4048 35.6238L59.4023 36.8863C63.5696 36.8944 67.2175 37.9959 70.3694 40.1787L71.0881 39.1408ZM59.4048 35.6238C52.9077 35.6112 47.6981 38.0495 43.8415 42.9384L44.8326 43.7203C48.4362 39.1522 53.2709 36.8744 59.4023 36.8863L59.4048 35.6238ZM43.8357 42.9458C40.1096 47.8166 38.2722 54.3329 38.2565 62.4294L39.5189 62.4318C39.5343 54.5173 41.3298 48.2993 44.8384 43.7128L43.8357 42.9458ZM38.2565 62.4294C38.2407 70.5259 40.0528 77.0492 43.7599 81.9345L44.7656 81.1714C41.2748 76.5713 39.5035 70.3464 39.5189 62.4318L38.2565 62.4294ZM43.7656 81.942C47.6032 86.8458 52.8033 89.3043 59.3004 89.317L59.3028 88.0545C53.1714 88.0426 48.3456 85.7459 44.7598 81.1639L43.7656 81.942ZM59.3004 89.317C63.6956 89.3255 67.5977 88.2325 70.9845 86.0229L70.2947 84.9656C67.1335 87.028 63.4769 88.0626 59.3028 88.0545L59.3004 89.317ZM70.9887 86.0202C74.4801 83.7024 77.154 80.5128 79.0113 76.4707L77.8642 75.9436C76.098 79.7874 73.5731 82.7892 70.2905 84.9684L70.9887 86.0202ZM78.4365 76.8384L118.013 76.9154L118.016 75.6529L78.439 75.576L78.4365 76.8384ZM117.393 76.172C115.699 85.5546 112.279 93.7442 107.14 100.753L108.158 101.5C113.421 94.3218 116.91 85.9498 118.636 76.3963L117.393 76.172ZM107.136 100.758C102.113 107.762 95.5348 113.206 87.3876 117.093L87.9312 118.232C96.2615 114.258 103.009 108.678 108.162 101.494L107.136 100.758ZM87.391 117.091C79.3617 120.864 70.2065 122.748 59.9119 122.728L59.9095 123.99C70.3616 124.01 79.7055 122.097 87.9278 118.234L87.391 117.091ZM59.9119 122.728C47.9373 122.704 37.5676 120.167 28.7806 115.139L28.1536 116.235C37.162 121.389 47.7547 123.967 59.9095 123.99L59.9119 122.728ZM28.7858 115.142C19.9921 109.999 13.211 102.857 8.43478 93.7059L7.31559 94.29C12.2002 103.649 19.147 110.967 28.1484 116.232L28.7858 115.142ZM8.43756 93.7113C3.7713 84.5571 1.44154 74.111 1.4644 62.3578L0.201956 62.3554C0.178766 74.2806 2.54368 84.9287 7.31281 94.2846L8.43756 93.7113ZM158.686 115.94L158.374 116.489L158.377 116.49L158.686 115.94ZM136.404 93.9096L135.859 94.2295L136.404 93.9096ZM158.894 8.88005L159.199 9.43276L159.202 9.43151L158.894 8.88005ZM220.966 9.00076L220.653 9.54945L220.658 9.55226L220.966 9.00076ZM243.079 30.8618L242.532 31.1767L242.535 31.1816L243.079 30.8618ZM242.956 94.1168L242.413 93.7949L242.41 93.7998L242.956 94.1168ZM220.588 116.06L220.281 115.509L220.278 115.511L220.588 116.06ZM207.124 81.8697L207.603 82.2814L207.607 82.2758L207.124 81.8697ZM207.2 42.9695L206.715 43.3738L206.72 43.3793L207.2 42.9695ZM172.528 42.9021L173.006 43.3138L173.011 43.3082L172.528 42.9021ZM172.452 81.8022L171.967 82.2065L171.972 82.2121L172.452 81.8022ZM189.792 123.319C178.62 123.297 168.359 120.653 158.995 115.39L158.377 116.49C167.936 121.863 178.411 124.559 189.79 124.581L189.792 123.319ZM158.998 115.391C149.747 110.129 142.399 102.865 136.948 93.5898L135.859 94.2295C141.422 103.693 148.929 111.116 158.374 116.489L158.998 115.391ZM136.948 93.5898C131.503 84.3254 128.786 73.89 128.809 62.2672L127.546 62.2648C127.523 74.0948 130.291 84.7552 135.859 94.2295L136.948 93.5898ZM128.809 62.2672C128.832 50.6444 131.589 40.2196 137.07 30.9765L135.984 30.3326C130.378 39.7852 127.57 50.4347 127.546 62.2648L128.809 62.2672ZM137.07 30.9765C142.556 21.7238 149.931 14.546 159.199 9.43275L158.589 8.32736C149.121 13.5511 141.583 20.8896 135.984 30.3326L137.07 30.9765ZM159.202 9.43151C168.585 4.20509 178.857 1.60091 190.029 1.62263L190.031 0.360189C178.652 0.338061 168.167 2.99298 158.587 8.3286L159.202 9.43151ZM190.029 1.62263C201.201 1.64436 211.405 4.28833 220.653 9.54942L221.278 8.4521C211.83 3.07791 201.41 0.382317 190.031 0.360189L190.029 1.62263ZM220.658 9.55226C229.906 14.7009 237.195 21.9057 242.532 31.1767L243.626 30.5468C238.176 21.0797 230.722 13.7104 221.273 8.44925L220.658 9.55226ZM242.535 31.1816C247.98 40.446 250.697 50.8814 250.674 62.5042L251.936 62.5067C251.959 50.6766 249.192 40.0162 243.623 30.5419L242.535 31.1816ZM250.674 62.5042C250.651 74.127 247.894 84.5518 242.413 93.7949L243.499 94.4388C249.104 84.9862 251.913 74.3367 251.936 62.5067L250.674 62.5042ZM242.41 93.7998C237.037 103.049 229.664 110.283 220.281 115.509L220.895 116.612C230.476 111.276 238.014 103.881 243.502 94.4339L242.41 93.7998ZM220.278 115.511C211.008 120.736 200.85 123.34 189.792 123.319L189.79 124.581C201.057 124.603 211.431 121.947 220.898 116.61L220.278 115.511ZM189.858 89.5708C197.445 89.5856 203.391 87.176 207.603 82.2814L206.646 81.4579C202.721 86.0189 197.157 88.3226 189.86 88.3084L189.858 89.5708ZM207.607 82.2758C211.796 77.2928 213.866 70.6562 213.882 62.4326L212.619 62.4302C212.604 70.4432 210.59 76.7654 206.641 81.4635L207.607 82.2758ZM213.882 62.4326C213.898 54.0997 211.855 47.4501 207.68 42.5596L206.72 43.3793C210.644 47.976 212.635 54.301 212.619 62.4302L213.882 62.4326ZM207.685 42.5652C203.494 37.5395 197.556 35.0468 189.964 35.0321L189.961 36.2945C197.253 36.3087 202.807 38.6869 206.715 43.3738L207.685 42.5652ZM189.964 35.0321C182.263 35.0171 176.257 37.4842 172.045 42.4959L173.011 43.3082C176.936 38.6388 182.553 36.2801 189.961 36.2945L189.964 35.0321ZM172.049 42.4903C167.855 47.3646 165.786 54.0062 165.77 62.3391L167.033 62.3415C167.048 54.2123 169.064 47.8951 173.006 43.3138L172.049 42.4903ZM165.77 62.3391C165.754 70.5626 167.799 77.2073 171.967 82.2065L172.937 81.398C169.006 76.6845 167.017 70.3546 167.033 62.3415L165.77 62.3391ZM171.972 82.2121C176.167 87.1253 182.162 89.5559 189.858 89.5708L189.86 88.3084C182.447 88.294 176.837 85.9664 172.932 81.3924L171.972 82.2121ZM379.573 123.135L379.572 123.766L380.203 123.767L380.204 123.136L379.573 123.135ZM342.026 123.062L341.498 123.409L341.685 123.692L342.025 123.693L342.026 123.062ZM302.397 62.7739L302.925 62.4272L301.77 60.6707L301.766 62.7727L302.397 62.7739ZM302.28 122.985L302.279 123.616L302.91 123.617L302.911 122.986L302.28 122.985ZM264.733 122.912L264.102 122.91L264.1 123.542L264.732 123.543L264.733 122.912ZM264.966 3.16672L264.967 2.53549L264.336 2.53427L264.334 3.16549L264.966 3.16672ZM302.513 3.23973L303.043 2.89706L302.857 2.60918L302.514 2.60851L302.513 3.23973ZM342.14 64.5425L341.609 64.8852L342.767 66.6754L342.771 64.5437L342.14 64.5425ZM342.259 3.31703L342.26 2.6858L341.629 2.68457L341.627 3.3158L342.259 3.31703ZM379.806 3.39004L380.437 3.39127L380.438 2.76004L379.807 2.75882L379.806 3.39004ZM379.574 122.504L342.027 122.431L342.025 123.693L379.572 123.766L379.574 122.504ZM342.553 122.715L302.925 62.4272L301.87 63.1206L341.498 123.409L342.553 122.715ZM301.766 62.7727L301.649 122.983L302.911 122.986L303.028 62.7751L301.766 62.7727ZM302.281 122.353L264.734 122.28L264.732 123.543L302.279 123.616L302.281 122.353ZM265.364 122.913L265.597 3.16795L264.334 3.16549L264.102 122.91L265.364 122.913ZM264.964 3.79794L302.512 3.87095L302.514 2.60851L264.967 2.53549L264.964 3.79794ZM301.983 3.5824L341.609 64.8852L342.67 64.1998L303.043 2.89706L301.983 3.5824ZM342.771 64.5437L342.89 3.31825L341.627 3.3158L341.508 64.5413L342.771 64.5437ZM342.257 3.94824L379.805 4.02126L379.807 2.75882L342.26 2.6858L342.257 3.94824ZM379.175 3.38881L378.942 123.134L380.204 123.136L380.437 3.39127L379.175 3.38881ZM490.806 3.6059L491.437 3.60712L491.438 2.9759L490.807 2.97467L490.806 3.6059ZM490.748 33.373L490.747 34.0042L491.378 34.0054L491.379 33.3742L490.748 33.373ZM458.951 33.3112L458.953 32.6799L458.321 32.6787L458.32 33.3099L458.951 33.3112ZM458.776 123.289L458.775 123.92L459.406 123.921L459.408 123.29L458.776 123.289ZM421.229 123.216L420.598 123.215L420.597 123.846L421.228 123.847L421.229 123.216ZM421.404 33.2381L422.036 33.2394L422.037 32.6081L421.406 32.6069L421.404 33.2381ZM389.946 33.177L389.315 33.1757L389.313 33.807L389.945 33.8082L389.946 33.177ZM390.004 3.40987L390.005 2.77865L389.374 2.77742L389.373 3.40865L390.004 3.40987ZM490.175 3.60467L490.117 33.3718L491.379 33.3742L491.437 3.60712L490.175 3.60467ZM490.749 32.7418L458.953 32.6799L458.95 33.9424L490.747 34.0042L490.749 32.7418ZM458.32 33.3099L458.145 123.288L459.408 123.29L459.583 33.3124L458.32 33.3099ZM458.778 122.658L421.231 122.585L421.228 123.847L458.775 123.92L458.778 122.658ZM421.861 123.217L422.036 33.2394L420.773 33.2369L420.598 123.215L421.861 123.217ZM421.406 32.6069L389.947 32.5457L389.945 33.8082L421.403 33.8694L421.406 32.6069ZM390.577 33.1782L390.635 3.4111L389.373 3.40865L389.315 33.1757L390.577 33.1782ZM390.003 4.04109L490.805 4.23711L490.807 2.97467L390.005 2.77865L390.003 4.04109ZM577.577 105.423L578.178 105.228L578.036 104.793L577.579 104.792L577.577 105.423ZM537.663 105.345L537.664 104.714L537.206 104.713L537.063 105.148L537.663 105.345ZM531.708 123.431L531.707 124.062L532.164 124.063L532.307 123.628L531.708 123.431ZM492.3 123.354L491.708 123.136L491.396 123.984L492.299 123.985L492.3 123.354ZM536.338 3.69444L536.339 3.06322L535.898 3.06236L535.746 3.47643L536.338 3.69444ZM579.636 3.77864L580.229 3.56367L580.079 3.14827L579.637 3.14741L579.636 3.77864ZM623.039 123.608L623.037 124.24L623.939 124.241L623.632 123.393L623.039 123.608ZM583.462 123.531L582.862 123.726L583.003 124.162L583.461 124.163L583.462 123.531ZM568.499 77.1602L568.498 77.7914L569.367 77.7931L569.1 76.9663L568.499 77.1602ZM557.74 43.8203L558.34 43.6264L557.744 41.7774L557.14 43.6241L557.74 43.8203ZM546.851 77.1181L546.251 76.9219L545.981 77.7476L546.849 77.7493L546.851 77.1181ZM577.579 104.792L537.664 104.714L537.661 105.976L577.576 106.054L577.579 104.792ZM537.063 105.148L531.108 123.233L532.307 123.628L538.262 105.543L537.063 105.148ZM531.709 122.8L492.301 122.723L492.299 123.985L531.707 124.062L531.709 122.8ZM492.893 123.572L536.93 3.91245L535.746 3.47643L491.708 123.136L492.893 123.572ZM536.337 4.32566L579.634 4.40986L579.637 3.14741L536.339 3.06322L536.337 4.32566ZM579.042 3.9936L622.445 123.823L623.632 123.393L580.229 3.56367L579.042 3.9936ZM623.04 122.977L583.463 122.9L583.461 124.163L623.037 124.24L623.04 122.977ZM584.062 123.336L578.178 105.228L576.977 105.618L582.862 123.726L584.062 123.336ZM569.1 76.9663L558.34 43.6264L557.139 44.0142L567.899 77.3541L569.1 76.9663ZM557.14 43.6241L546.251 76.9219L547.45 77.3143L558.34 44.0165L557.14 43.6241ZM546.849 77.7493L568.498 77.7914L568.501 76.529L546.852 76.4869L546.849 77.7493ZM635.468 31.9631L634.91 31.6688L634.907 31.6742L635.468 31.9631ZM656.144 10.5236L656.455 11.0727L656.461 11.0697L656.144 10.5236ZM715.344 8.77823L715.066 9.34547L715.076 9.34991L715.344 8.77823ZM735.269 25.2228L734.755 25.5887L734.759 25.594L735.269 25.2228ZM745.538 50.1051L745.537 50.7363L746.29 50.7378L746.159 49.9954L745.538 50.1051ZM705.961 50.0281L705.386 50.2895L705.554 50.6586L705.96 50.6594L705.961 50.0281ZM698.199 40.8799L697.839 41.3989L697.85 41.4059L697.86 41.4125L698.199 40.8799ZM671.807 44.5495L671.312 44.1585L671.306 44.166L671.807 44.5495ZM671.733 82.7732L671.23 83.1548L671.236 83.1622L671.733 82.7732ZM698.11 86.7145L698.455 87.2432L698.459 87.2404L698.11 86.7145ZM705.908 77.4274L705.909 76.7962L705.504 76.7954L705.334 77.1638L705.908 77.4274ZM745.485 77.5044L746.106 77.6165L746.24 76.8746L745.486 76.8731L745.485 77.5044ZM735.119 102.347L734.61 101.973L734.606 101.979L735.119 102.347ZM715.129 118.883L715.398 119.454L715.401 119.452L715.129 118.883ZM655.937 116.907L655.618 117.452L655.624 117.455L655.937 116.907ZM635.345 95.2182L634.783 95.5048L634.786 95.5102L635.345 95.2182ZM628.934 63.578C628.957 51.8248 631.328 41.3879 636.029 32.2519L634.907 31.6742C630.102 41.0116 627.695 51.6504 627.672 63.5756L628.934 63.578ZM636.027 32.2573C640.838 23.1257 647.645 16.0685 656.455 11.0726L655.833 9.97447C646.808 15.0918 639.831 22.3277 634.91 31.6689L636.027 32.2573ZM656.461 11.0697C665.266 5.96516 675.644 3.41264 687.616 3.43592L687.619 2.17348C675.462 2.14983 664.857 4.74322 655.827 9.97745L656.461 11.0697ZM687.616 3.43592C697.908 3.45593 707.054 5.43103 715.066 9.3454L715.621 8.21106C707.412 4.20107 698.074 2.19381 687.619 2.17348L687.616 3.43592ZM715.076 9.34991C723.205 13.1553 729.76 18.5676 734.755 25.5887L735.783 24.8569C730.658 17.6511 723.929 12.1004 715.611 8.20654L715.076 9.34991ZM734.759 25.594C739.87 32.6229 743.258 40.8257 744.916 50.2149L746.159 49.9954C744.471 40.4353 741.014 32.0498 735.78 24.8515L734.759 25.594ZM745.539 49.4739L705.962 49.3969L705.96 50.6594L745.537 50.7363L745.539 49.4739ZM706.536 49.7668C704.693 45.7153 702.028 42.5674 698.538 40.3473L697.86 41.4125C701.127 43.4903 703.636 46.4412 705.386 50.2895L706.536 49.7668ZM698.558 40.361C695.179 38.0209 691.277 36.8526 686.875 36.844L686.872 38.1065C691.04 38.1146 694.688 39.2161 697.839 41.3989L698.558 40.361ZM686.875 36.844C680.378 36.8314 675.168 39.2697 671.312 44.1586L672.303 44.9405C675.906 40.3724 680.741 38.0946 686.872 38.1065L686.875 36.844ZM671.306 44.166C667.58 49.0368 665.742 55.5531 665.727 63.6496L666.989 63.652C667.004 55.7375 668.8 49.5195 672.308 44.933L671.306 44.166ZM665.727 63.6496C665.711 71.7461 667.523 78.2694 671.23 83.1547L672.236 82.3916C668.745 77.7915 666.974 71.5666 666.989 63.652L665.727 63.6496ZM671.236 83.1622C675.073 88.066 680.273 90.5245 686.77 90.5372L686.773 89.2747C680.641 89.2628 675.816 86.9661 672.23 82.3841L671.236 83.1622ZM686.77 90.5372C691.166 90.5457 695.068 89.4527 698.455 87.2431L697.765 86.1858C694.603 88.2482 690.947 89.2828 686.773 89.2747L686.77 90.5372ZM698.459 87.2404C701.95 84.9226 704.624 81.733 706.481 77.6909L705.334 77.1638C703.568 81.0076 701.043 84.0094 697.761 86.1886L698.459 87.2404ZM705.907 78.0586L745.483 78.1356L745.486 76.8731L705.909 76.7962L705.907 78.0586ZM744.863 77.3922C743.169 86.7748 739.749 94.9644 734.61 101.973L735.628 102.72C740.891 95.542 744.381 87.17 746.106 77.6165L744.863 77.3922ZM734.606 101.979C729.583 108.982 723.005 114.426 714.858 118.313L715.401 119.452C723.732 115.478 730.479 109.899 735.632 102.714L734.606 101.979ZM714.861 118.311C706.832 122.084 697.677 123.968 687.382 123.948L687.38 125.21C697.832 125.231 707.176 123.317 715.398 119.454L714.861 118.311ZM687.382 123.948C675.407 123.925 665.038 121.387 656.251 116.359L655.624 117.455C664.632 122.61 675.225 125.187 687.38 125.21L687.382 123.948ZM656.256 116.362C647.462 111.219 640.681 104.078 635.905 94.9261L634.786 95.5102C639.67 104.869 646.617 112.187 655.618 117.452L656.256 116.362ZM635.908 94.9315C631.241 85.7773 628.912 75.3312 628.934 63.578L627.672 63.5756C627.649 75.5008 630.014 86.1489 634.783 95.5048L635.908 94.9315ZM853.183 4.31059L853.814 4.31182L853.815 3.68059L853.184 3.67936L853.183 4.31059ZM853.125 34.0777L853.124 34.7089L853.755 34.7101L853.756 34.0789L853.125 34.0777ZM821.328 34.0158L821.329 33.3846L820.698 33.3834L820.697 34.0146L821.328 34.0158ZM821.153 123.994L821.152 124.625L821.783 124.626L821.784 123.995L821.153 123.994ZM783.606 123.921L782.975 123.919L782.974 124.551L783.605 124.552L783.606 123.921ZM783.781 33.9428L784.412 33.9441L784.414 33.3128L783.782 33.3116L783.781 33.9428ZM752.323 33.8817L751.692 33.8804L751.69 34.5116L752.322 34.5129L752.323 33.8817ZM752.381 4.11456L752.382 3.48334L751.751 3.48211L751.749 4.11334L752.381 4.11456ZM852.552 4.30936L852.494 34.0764L853.756 34.0789L853.814 4.31182L852.552 4.30936ZM853.126 33.4465L821.329 33.3846L821.327 34.6471L853.124 34.7089L853.126 33.4465ZM820.697 34.0146L820.522 123.992L821.784 123.995L821.959 34.0171L820.697 34.0146ZM821.154 123.362L783.607 123.289L783.605 124.552L821.152 124.625L821.154 123.362ZM784.237 123.922L784.412 33.9441L783.15 33.9416L782.975 123.919L784.237 123.922ZM783.782 33.3116L752.324 33.2504L752.322 34.5129L783.78 34.5741L783.782 33.3116ZM752.954 33.8829L753.012 4.11579L751.749 4.11334L751.692 33.8804L752.954 33.8829ZM752.379 4.74578L853.182 4.94181L853.184 3.67936L752.382 3.48334L752.379 4.74578ZM928.807 4.45765L929.438 4.45888L929.439 3.82765L928.808 3.82643L928.807 4.45765ZM932.202 85.1401L931.69 85.5094L931.697 85.5194L931.705 85.5291L932.202 85.1401ZM956.049 85.1865L956.536 85.5882L956.543 85.5797L956.049 85.1865ZM960.096 4.5185L960.097 3.88727L959.466 3.88604L959.465 4.51727L960.096 4.5185ZM997.474 4.59118L998.105 4.59241L998.107 3.96119L997.475 3.95996L997.474 4.59118ZM990.183 101.32L990.725 101.643L990.727 101.64L990.183 101.32ZM970.697 119.38L970.975 119.946L970.697 119.38ZM916.068 119.273L915.775 119.832L915.778 119.834L916.068 119.273ZM897.837 101.141L897.283 101.444L897.837 101.141ZM891.429 4.38496L891.43 3.75374L890.799 3.75251L890.798 4.38374L891.429 4.38496ZM928.176 4.45642L928.044 71.9398L929.307 71.9422L929.438 4.45888L928.176 4.45642ZM928.044 71.9398C928.034 77.5497 929.226 82.0937 931.69 85.5094L932.714 84.7709C930.454 81.6376 929.296 77.3822 929.307 71.9422L928.044 71.9398ZM931.705 85.5291C934.337 88.8926 938.497 90.5193 944.03 90.53L944.033 89.2676C938.742 89.2573 935.016 87.7115 932.699 84.7511L931.705 85.5291ZM944.03 90.53C949.566 90.5408 953.78 88.9299 956.536 85.5881L955.562 84.7849C953.119 87.7472 949.322 89.2779 944.033 89.2676L944.03 90.53ZM956.543 85.5797C959.256 82.172 960.585 77.6242 960.596 72.0031L959.334 72.0006C959.323 77.4294 958.041 81.6714 955.555 84.7933L956.543 85.5797ZM960.596 72.0031L960.727 4.51972L959.465 4.51727L959.334 72.0006L960.596 72.0031ZM960.095 5.14971L997.473 5.2224L997.475 3.95996L960.097 3.88727L960.095 5.14971ZM996.843 4.58996L996.712 72.0733L997.974 72.0757L998.105 4.59241L996.843 4.58996ZM996.712 72.0733C996.69 83.3733 994.322 93.0072 989.638 101.001L990.727 101.64C995.546 93.4155 997.952 83.552 997.974 72.0757L996.712 72.0733ZM989.64 100.998C984.95 108.89 978.546 114.825 970.419 118.813L970.975 119.946C979.326 115.848 985.912 109.743 990.725 101.643L989.64 100.998ZM970.419 118.813C962.276 122.809 953.18 124.803 943.118 124.784L943.116 126.046C953.35 126.066 962.641 124.036 970.975 119.946L970.419 118.813ZM943.118 124.784C933.056 124.764 924.141 122.735 916.358 118.713L915.778 119.834C923.764 123.961 932.882 126.026 943.116 126.046L943.118 124.784ZM916.361 118.714C908.704 114.7 902.715 108.748 898.391 100.838L897.283 101.444C901.722 109.562 907.888 115.698 915.775 119.832L916.361 118.714ZM898.391 100.838C894.071 92.9383 891.907 83.2912 891.929 71.8695L890.666 71.8671C890.644 83.4472 892.839 93.3152 897.283 101.444L898.391 100.838ZM891.929 71.8695L892.06 4.38619L890.798 4.38374L890.666 71.8671L891.929 71.8695ZM891.428 5.01618L928.806 5.08887L928.808 3.82643L891.43 3.75374L891.428 5.01618ZM1024.78 115.595L1024.41 116.104L1024.42 116.109L1024.78 115.595ZM1009.79 85.9675L1009.79 85.3363L1009.12 85.335L1009.16 86.0047L1009.79 85.9675ZM1049.7 86.0452L1050.33 85.9948L1050.29 85.4151L1049.71 85.4139L1049.7 86.0452ZM1063.89 95.0367L1064.24 95.5627L1064.25 95.5564L1063.89 95.0367ZM1061.55 83.7003L1061.23 84.2428L1061.23 84.2472L1061.24 84.2515L1061.55 83.7003ZM1047.35 77.584L1047.14 78.1788L1047.14 78.1792L1047.35 77.584ZM1028.26 69.5977L1027.96 70.1565L1027.97 70.1592L1028.26 69.5977ZM1015.42 58.2409L1015.94 57.8706L1015.42 58.2409ZM1010.22 39.1189L1010.85 39.1292L1010.85 39.1201L1010.22 39.1189ZM1016.18 19.342L1015.67 18.9673L1015.67 18.9691L1016.18 19.342ZM1032.61 6.85821L1032.37 6.27232L1032.37 6.27367L1032.61 6.85821ZM1090.95 12.8913L1090.55 13.386L1090.56 13.3884L1090.95 12.8913ZM1104.59 41.5011L1104.59 42.1323L1105.24 42.1336L1105.22 41.4792L1104.59 41.5011ZM1064.17 41.4225L1063.54 41.4423L1063.56 42.0525L1064.17 42.0537L1064.17 41.4225ZM1052 33.6188L1052.45 34.066L1052.46 34.0543L1052.47 34.0419L1052 33.6188ZM1054.86 44.787L1054.53 45.324L1054.54 45.3313L1054.55 45.3382L1054.86 44.787ZM1069.22 51.0728L1069 51.6626L1069 51.6638L1069.22 51.0728ZM1087.81 59.2273L1087.51 59.7833L1087.52 59.7861L1087.81 59.2273ZM1100.64 70.0767L1100.15 70.4641L1100.64 70.0767ZM1100.57 107.286L1101.11 107.622L1101.11 107.617L1100.57 107.286ZM1084.82 120.785L1084.55 120.215L1084.82 120.785ZM1060.28 125.011C1046.06 124.984 1034.37 121.659 1025.15 115.081L1024.42 116.109C1033.89 122.872 1045.86 126.246 1060.28 126.274L1060.28 125.011ZM1025.16 115.086C1016.1 108.43 1011.17 98.7394 1010.42 85.9304L1009.16 86.0047C1009.93 99.1322 1015.01 109.193 1024.41 116.103L1025.16 115.086ZM1009.79 86.5988L1049.7 86.6764L1049.71 85.4139L1009.79 85.3363L1009.79 86.5988ZM1049.08 86.0955C1049.36 89.6061 1050.28 92.3409 1051.92 94.2056C1053.58 96.091 1055.91 97.0055 1058.82 97.0111L1058.82 95.7487C1056.2 95.7436 1054.24 94.9302 1052.87 93.3707C1051.48 91.7905 1050.6 89.3633 1050.33 85.9948L1049.08 86.0955ZM1058.82 97.0111C1060.94 97.0153 1062.76 96.5463 1064.24 95.5626L1063.54 94.5109C1062.32 95.326 1060.75 95.7525 1058.82 95.7487L1058.82 97.0111ZM1064.25 95.5564C1065.92 94.4092 1066.73 92.6791 1066.73 90.4757L1065.47 90.4732C1065.47 92.3289 1064.81 93.6404 1063.54 94.517L1064.25 95.5564ZM1066.73 90.4757C1066.74 87.3704 1065.04 84.9271 1061.86 83.1491L1061.24 84.2515C1064.14 85.868 1065.48 87.9409 1065.47 90.4732L1066.73 90.4757ZM1061.87 83.1579C1058.78 81.3153 1054 79.26 1047.56 76.9888L1047.14 78.1792C1053.56 80.4431 1058.24 82.4654 1061.23 84.2428L1061.87 83.1579ZM1047.56 76.9892C1039.92 74.2739 1033.58 71.6224 1028.54 69.0362L1027.97 70.1592C1033.07 72.7793 1039.46 75.452 1047.14 78.1788L1047.56 76.9892ZM1028.55 69.0388C1023.69 66.4853 1019.48 62.7677 1015.94 57.8706L1014.91 58.6111C1018.56 63.6505 1022.91 67.5041 1027.96 70.1565L1028.55 69.0388ZM1015.94 57.8706C1012.44 53.0396 1010.72 46.8095 1010.85 39.1292L1009.59 39.1085C1009.46 46.9878 1011.22 53.5057 1014.91 58.6111L1015.94 57.8706ZM1010.85 39.1201C1010.86 31.4514 1012.82 24.9948 1016.69 19.7149L1015.67 18.9691C1011.62 24.4982 1009.6 31.2263 1009.59 39.1176L1010.85 39.1201ZM1016.68 19.7167C1020.68 14.3009 1026.06 10.2082 1032.85 7.44275L1032.37 6.27367C1025.39 9.11914 1019.81 13.349 1015.67 18.9673L1016.68 19.7167ZM1032.84 7.44408C1039.75 4.67315 1047.51 3.29012 1056.12 3.30687L1056.13 2.04443C1047.37 2.02741 1039.45 3.43276 1032.37 6.27233L1032.84 7.44408ZM1056.12 3.30687C1070.69 3.33519 1082.14 6.71821 1090.55 13.3859L1091.34 12.3966C1082.64 5.50052 1070.88 2.07312 1056.13 2.04443L1056.12 3.30687ZM1090.56 13.3884C1099.06 20.0413 1103.54 29.3937 1103.96 41.523L1105.22 41.4792C1104.79 29.0263 1100.17 19.3055 1091.33 12.3941L1090.56 13.3884ZM1104.59 40.8699L1064.17 40.7913L1064.17 42.0537L1104.59 42.1323L1104.59 40.8699ZM1064.8 41.4027C1064.69 37.9449 1063.83 35.3177 1062.07 33.6832L1061.21 34.6066C1062.61 35.9099 1063.43 38.1343 1063.54 41.4423L1064.8 41.4027ZM1062.07 33.6832C1060.38 32.1002 1058.31 31.3085 1055.9 31.3038L1055.9 32.5662C1058 32.5703 1059.76 33.2519 1061.21 34.6066L1062.07 33.6832ZM1055.9 31.3038C1054.15 31.3004 1052.68 31.9312 1051.54 33.1956L1052.47 34.0419C1053.36 33.0551 1054.49 32.5635 1055.9 32.5662L1055.9 31.3038ZM1051.56 33.1716C1050.39 34.338 1049.85 35.9858 1049.84 38.012L1051.11 38.0144C1051.11 36.207 1051.59 34.9252 1052.45 34.066L1051.56 33.1716ZM1049.84 38.012C1049.84 40.9978 1051.47 43.4348 1054.53 45.324L1055.19 44.2501C1052.39 42.5197 1051.1 40.4408 1051.11 38.0144L1049.84 38.012ZM1054.55 45.3382C1057.63 47.0586 1062.46 49.1669 1069 51.6626L1069.45 50.4831C1062.92 47.9921 1058.17 45.9099 1055.17 44.2358L1054.55 45.3382ZM1069 51.6638C1076.53 54.4915 1082.7 57.1985 1087.51 59.7833L1088.11 58.6713C1083.23 56.0506 1077.01 53.3212 1069.44 50.4819L1069 51.6638ZM1087.52 59.7861C1092.39 62.3453 1096.6 65.9018 1100.15 70.4641L1101.14 69.6893C1097.49 64.9917 1093.14 61.3153 1088.1 58.6685L1087.52 59.7861ZM1100.15 70.4641C1103.64 74.9627 1105.4 80.6285 1105.39 87.5065L1106.65 87.509C1106.67 80.4055 1104.84 74.4506 1101.14 69.6893L1100.15 70.4641ZM1105.39 87.5065C1105.38 94.7266 1103.59 101.203 1100.03 106.954L1101.11 107.617C1104.79 101.655 1106.64 94.9469 1106.65 87.509L1105.39 87.5065ZM1100.04 106.949C1096.49 112.579 1091.34 117.003 1084.55 120.215L1085.09 121.356C1092.07 118.055 1097.41 113.479 1101.11 107.622L1100.04 106.949ZM1084.55 120.215C1077.76 123.423 1069.68 125.03 1060.28 125.011L1060.28 126.274C1069.82 126.292 1078.1 124.661 1085.09 121.356L1084.55 120.215Z" fill="#A1A1A1"/>
</svg>
