<svg width="30" height="22" viewBox="0 0 30 22" fill="none" xmlns="http://www.w3.org/2000/svg">
<path fill-rule="evenodd" clip-rule="evenodd" d="M21.2916 16.9318C23.1514 16.9354 24.1931 15.727 24.195 14.7631C24.1969 13.7991 23.1599 12.5867 21.3 12.583C19.4402 12.5794 18.3985 13.7878 18.3966 14.7518C18.3948 15.7158 19.4318 16.9282 21.2916 16.9318ZM21.2888 18.3814C23.6907 18.3861 25.6407 16.767 25.6446 14.7659C25.6485 12.7647 23.7048 11.1381 21.3029 11.1335C18.9009 11.1288 16.9509 12.7478 16.9471 14.749C16.9432 16.7501 18.8868 18.3767 21.2888 18.3814Z" fill="white"/>
<path d="M8.79833 3.22818C9.28418 3.10591 9.7738 2.90972 10.1258 2.65092C11.0476 1.97576 11.5845 0.61491 10.4064 0.761927C10.0635 0.804748 9.81629 0.812965 9.61406 0.81982C9.12262 0.835534 8.90372 0.843082 8.25047 1.32235C8.0011 1.5038 7.76987 1.70894 7.56 1.93491C6.54748 1.17915 5.19929 0.839502 2.83987 0.950881C2.74375 0.950694 2.6515 0.988695 2.58341 1.05653C2.51531 1.12436 2.47695 1.21646 2.47677 1.31257C2.47658 1.40869 2.51458 1.50094 2.58241 1.56903C2.65024 1.63713 2.74234 1.67549 2.83846 1.67567L4.09742 1.67812C4.30445 1.81189 4.48106 1.9369 4.63811 2.05607L2.03414 5.29809L1.88048 5.29779C1.65446 5.2973 1.43145 5.34967 1.22927 5.45072C1.02709 5.55177 0.851342 5.6987 0.716062 5.87977C0.580782 6.06085 0.489719 6.27105 0.450147 6.49358C0.410574 6.71612 0.423588 6.94482 0.48815 7.16143L0.704178 7.88665C0.793229 8.18542 0.976231 8.44752 1.22603 8.63406C1.47583 8.8206 1.77911 8.92164 2.09087 8.92218L4.52763 8.92692C4.83394 8.92766 5.13214 9.02542 5.37944 9.20617L6.96449 10.3631C7.01226 10.398 7.06149 10.43 7.11144 10.4576C8.2415 13.388 9.43515 15.6705 10.7738 16.8205L11.018 19.8216C10.8388 19.8516 10.6774 19.9477 10.5657 20.091C10.4541 20.2344 10.4003 20.4144 10.4151 20.5955C10.4299 20.7765 10.5121 20.9455 10.6455 21.0688C10.779 21.1921 10.9538 21.2608 11.1355 21.2613L13.3099 21.2655L13.3226 14.7424L20.4328 14.7562C21.5035 15.8027 22.705 16.6241 24.5526 16.9386L24.7891 19.8484C24.6099 19.8783 24.4484 19.9745 24.3368 20.1178C24.2251 20.2611 24.1714 20.4412 24.1861 20.6222C24.2009 20.8033 24.2832 20.9723 24.4166 21.0956C24.55 21.2189 24.7249 21.2876 24.9066 21.2881L27.081 21.2923L27.1063 8.24603C27.1117 7.26209 26.7897 6.30429 26.1911 5.52336C26.6439 5.64601 26.9603 5.8242 27.1831 6.0399C27.5861 6.42845 27.8334 7.08197 27.8311 8.24744L28.104 12.1764C27.9331 12.4406 27.8222 12.8549 27.8213 13.321C27.8197 14.1219 28.1431 14.7712 28.5432 14.772C28.9433 14.7728 29.2693 14.1247 29.2708 13.3238C29.2717 12.8578 29.1624 12.443 28.9926 12.1781L29.2807 8.25026C29.2833 6.92099 29.0079 5.78542 28.1897 4.99598C27.3816 4.2167 26.1942 3.92157 24.7324 3.89409C24.6773 3.89253 23.169 3.8896 23.1284 3.88952L23.1284 3.89459C23.0613 3.89113 22.9941 3.8893 22.9269 3.88913L12.2565 3.86838C10.8548 3.86565 9.79627 3.65485 8.90893 3.3777L8.79833 3.22818V3.22818Z" fill="white"/>
<path d="M17.7245 15.3081L16.4565 15.8239L17.0033 17.1666L18.2705 16.6515L17.7245 15.3081V15.3081ZM18.3 18.2737L19.0703 16.8473L20.3461 17.5369L19.5757 18.9632L18.3 18.2737ZM21.2976 17.5982L21.6018 19.1904L23.0258 18.9178L22.7209 17.3255L21.2969 17.5982L21.2976 17.5982Z" fill="white"/>
</svg>
