<svg width="26" height="25" viewBox="0 0 26 25" fill="none" xmlns="http://www.w3.org/2000/svg">
<g clip-path="url(#clip0_318_323)">
<path d="M15.8511 15.5915C15.8559 13.1389 14.0569 11.551 11.2676 11.5456C8.47798 11.5401 6.67246 13.1211 6.66769 15.5737C6.66261 18.1819 8.78195 18.186 10.0484 18.1884L12.4606 18.1931C13.7267 18.1956 15.846 18.1997 15.8511 15.5915ZM7.20599 15.5747C7.21052 13.2446 9.02741 12.0791 11.2666 12.0835C13.505 12.0878 15.3173 13.2604 15.3128 15.5905C15.3091 17.4835 14.1112 17.6584 12.4617 17.6552L10.0494 17.6505C8.39915 17.6473 7.20231 17.4673 7.20599 15.5747Z" fill="#808080"/>
<path d="M9.4478 16.8875C9.99617 16.8886 10.4423 16.0816 10.4442 15.0851C10.4462 14.0886 10.0032 13.2799 9.45482 13.2788C8.90645 13.2777 8.46034 14.0847 8.45841 15.0812C8.45647 16.0777 8.89944 16.8864 9.4478 16.8875Z" fill="#808080"/>
<path d="M13.066 16.8941C13.6138 16.8951 14.0594 16.0882 14.0613 15.0917C14.0633 14.0951 13.6208 13.2864 13.0731 13.2854C12.5253 13.2843 12.0797 14.0913 12.0778 15.0878C12.0759 16.0843 12.5183 16.893 13.066 16.8941Z" fill="#808080"/>
<path d="M18.1945 9.08918C18.2162 9.08352 18.2413 9.08357 18.2599 9.07409C19.0627 8.65186 18.8285 5.8336 18.8285 5.8336C18.8285 5.8336 16.745 5.59216 15.8445 6.02105C16.7825 6.84345 17.6186 7.88249 18.1945 9.08918ZM6.80996 5.91941C5.94804 5.46464 3.86831 5.63407 3.86831 5.63407C3.86831 5.63407 3.5291 8.50486 4.3488 8.95079C4.36363 8.95881 4.38417 8.95809 4.4009 8.96307C4.99898 7.76018 5.85504 6.72823 6.80996 5.91941Z" fill="#808080"/>
<path d="M6.53911 12.8045C7.03138 12.8055 7.43184 12.0834 7.43358 11.1917C7.43531 10.3 7.03765 9.57642 6.54539 9.57546C6.05312 9.57451 5.65265 10.2966 5.65091 11.1882C5.64918 12.0799 6.04684 12.8035 6.53911 12.8045Z" fill="#808080"/>
<path d="M15.9902 12.7786C16.4827 12.7796 16.8833 12.0577 16.885 11.1662C16.8868 10.2747 16.4889 9.55128 15.9964 9.55032C15.504 9.54936 15.1033 10.2713 15.1016 11.1627C15.0999 12.0542 15.4977 12.7776 15.9902 12.7786Z" fill="#808080"/>
<path d="M23.6052 10.1366C23.5004 10.0195 23.3736 9.92418 23.2322 9.85584C23.1041 9.79541 22.9686 9.75217 22.8292 9.72723C23.1753 9.37449 23.5571 9.05187 23.9488 8.7403C23.515 8.99891 23.0956 9.28455 22.7061 9.61439C22.6741 9.64209 22.6436 9.67247 22.6116 9.70056C21.9204 9.69921 21.18 9.92222 20.6238 10.9152C20.0181 10.5922 19.4545 10.4724 19.4545 10.4724C20.8815 9.47236 20.6954 5.7834 20.6003 4.64498L20.5516 4.06018L19.9689 3.99209C19.2666 3.91677 18.561 3.87793 17.8547 3.87575C16.4669 3.87305 15.4478 4.02933 14.7643 4.3525C14.4361 4.15808 14.0961 3.98436 13.7462 3.83238C13.3445 1.84122 11.194 1.23292 11.194 1.23292C11.4156 1.73323 11.3281 2.72901 11.3281 2.72901C10.7125 1.76952 9.46645 2.0566 9.46645 2.0566C10.0378 2.46781 9.99637 3.03951 9.99637 3.03951C9.36043 2.77464 8.49201 3.31696 8.49201 3.31696C8.744 3.39629 8.98173 3.51528 9.19625 3.66946C8.69193 3.85929 8.20585 4.09442 7.74395 4.37195C6.99295 4.00109 5.82578 3.8185 4.20213 3.81534C3.3477 3.81368 2.69821 3.86644 2.6712 3.86829L2.08601 3.91623L2.01678 4.4989C1.87754 5.67414 1.55127 9.52189 3.06724 10.5071C2.8992 11.182 2.81342 11.8748 2.81177 12.5704C2.80691 15.0728 3.61604 16.6509 4.84746 17.6412L4.84745 17.645C4.97737 18.5233 5.20162 19.2112 5.47692 19.6698L5.47321 21.578C5.47319 21.5871 5.47508 21.5955 5.47544 21.6042L5.47069 24.0473C7.15368 24.0506 7.5512 22.6925 7.54856 24.0513C8.70277 24.0536 9.63566 23.2238 9.63884 21.5861L9.64005 20.9652L12.4149 20.9706L12.4137 21.5915C12.4105 23.2296 13.3397 24.0626 14.494 24.0648C14.4966 22.706 14.8888 24.0656 16.5722 24.0689L16.5769 21.63C16.5773 21.6197 16.5797 21.6098 16.5797 21.5996L16.5797 21.5646C16.9249 21.6813 17.4158 21.7952 17.8484 21.796L17.8503 20.8005L17.8496 20.8005C18.4428 20.7259 18.9779 20.6311 19.4449 20.5103L19.4445 20.7039C19.442 21.9924 20.1738 22.6478 21.0815 22.6495C21.0836 21.5805 21.3919 22.6501 22.7158 22.6527L22.7195 20.7213C22.7195 20.7171 22.7218 20.7141 22.7218 20.7103L22.7273 17.8761C22.9592 17.18 23.0289 16.3816 23.0306 15.4933C23.0352 13.1157 22.1796 11.8031 20.9693 11.0966C21.2126 10.5941 21.7348 10.2364 22.0966 10.2333C21.9536 10.4107 21.8212 10.6018 21.7352 10.8302C21.6814 10.968 21.6581 11.1158 21.6667 11.2634C21.6774 11.4186 21.7486 11.5873 21.8743 11.7005C21.9981 11.8149 22.1543 11.8738 22.3042 11.8969C22.4551 11.9193 22.6054 11.9089 22.7474 11.875C23.031 11.8063 23.2884 11.6565 23.4882 11.4438C23.585 11.3409 23.678 11.222 23.7437 11.0788C23.8155 10.9265 23.8419 10.7569 23.8196 10.5901C23.7944 10.4211 23.7198 10.2633 23.6052 10.1366ZM3.52963 12.5718C3.53143 11.6447 3.69634 10.767 3.98096 9.95155C3.79173 10.0337 3.57007 9.96901 3.50509 9.93312C2.18147 9.21269 2.72954 4.58284 2.72954 4.58284C2.72954 4.58284 3.36647 4.53044 4.20074 4.53206C5.42037 4.53443 7.0613 4.65213 7.74763 5.21612C8.43023 4.76512 9.13314 4.43095 9.80576 4.2215C10.8143 5.35295 11.2767 7.04065 11.2767 7.04065C11.5222 5.42166 12.3697 4.66207 13.0133 4.30991C13.6265 4.53465 14.2112 4.83047 14.7555 5.19132C15.3697 4.70595 16.701 4.58985 17.8541 4.59209C18.9508 4.59422 19.8861 4.70332 19.8861 4.70332C19.8861 4.70332 20.2645 9.24899 18.9686 9.92972C18.902 9.96459 18.6178 9.97316 18.5539 9.96049C18.8509 10.809 19.0021 11.7017 19.0011 12.6007C18.9913 17.6159 15.5261 18.5431 11.2544 18.5348C6.98182 18.5272 3.51988 17.5865 3.52963 12.5718ZM22.3128 15.4923C22.3109 16.4377 22.2286 17.1025 22.0464 17.6492L22.0128 17.7591L22.007 20.7001C21.9654 20.7754 21.6406 20.957 21.0825 20.9559C20.524 20.9548 20.2006 20.7719 20.162 20.7049L20.1642 19.5823C20.1642 19.5823 18.0393 20.2504 15.8644 20.2461L15.8618 21.5985C15.8614 21.8352 15.2643 22.1087 14.4955 22.1072C13.7263 22.1057 13.1307 21.8299 13.1311 21.5932L13.1337 20.2553L8.92435 20.2471L8.92175 21.585C8.92129 21.8217 8.32425 22.0952 7.55503 22.0937C6.78581 22.0922 6.19023 21.8164 6.19069 21.5797L6.19478 19.4722C6.19478 19.4722 5.70843 18.7789 5.67343 18.1899C7.27637 19.0634 9.33258 19.2497 11.2526 19.2534C15.1881 19.261 19.7067 18.5124 19.7182 12.604C19.719 12.1669 19.6214 11.3055 19.6214 11.3055C21.4788 11.8188 22.3173 13.1466 22.3128 15.4923ZM23.187 11.1716C23.0463 11.3327 22.8604 11.4601 22.6556 11.5176C22.455 11.5765 22.2127 11.5776 22.0954 11.4514C21.8836 11.2231 22.0028 10.5397 22.4285 10.1826C23.5113 10.0941 23.4482 10.8731 23.187 11.1716Z" fill="#808080"/>
</g>
<defs>
<clipPath id="clip0_318_323">
<rect width="24.3472" height="24.3472" fill="white" transform="translate(0.758545 0.452148) rotate(0.111419)"/>
</clipPath>
</defs>
</svg>
