<svg xmlns="http://www.w3.org/2000/svg" xmlns:xlink="http://www.w3.org/1999/xlink" width="218" height="218" viewBox="0 0 218 218"><defs><clipPath id="a"><rect width="217.578" height="217.578" transform="translate(0.575 0.716) rotate(0.111)" fill="#f9f9f9"/></clipPath></defs><g transform="translate(-0.153 -0.716)" clip-path="url(#a)" style="isolation:isolate"><path d="M199.891,91.152c-.234-.521-.5-.994-.742-1.487,15.7-14.938-5.43-40.252-5.43-40.252s-5.873,16.691-7.18,28.38c-.228-.059-.456-.144-.686-.189-10.967-2.037-23.595-3-39.74-3.032-7.439-.014-14.578.162-21.483.329-5.963.145-11.6.283-16.655.274C89.8,75.14,86.993,72.813,86.565,72.1A58.386,58.386,0,0,0,81.521,47.59c5.812-8.28,5.9-19.9,4.022-24.854-1.566-4.134-4.536-4.588-5.743-4.591a5.39,5.39,0,0,0-2.418.57c-1.133.555-2.957,1.463-5.077,2.621,8.243-6.613,19.239-7.146,19.239-7.146C72.5,7.1,61.791,15.187,56.4,24.08,61.026,8.322,78.969,1.533,78.969,1.533c-24.683-.9-33.482,13.459-35.906,25.72a34.663,34.663,0,0,0-12.25,7.721c-8.12,7.725-9.675,13.638-11.322,19.89-1.726,6.558-3.874,14.72-15.519,29.72-3.885,5.01-3.2,9.407-2.446,11.584,1.812,5.236,7.448,8.973,16.28,10.805.146.031.319.055.476.083-.525,13.257,16.852,19.322,16.852,19.322s-5.7-10.108-1.51-23.977l.048-.028a20.133,20.133,0,0,1,6.568-1.643,27.97,27.97,0,0,0,9.075-2.441c1.618,14.187,6.417,35.624,20.38,52.969.636,3.262,2.485,17.356-4.852,47.746l-1.556,6.446,20.758.04,1.2-3.4,10.166-28.8.4-1.113-.113-1.184a55.109,55.109,0,0,1,.109-11.953,59.8,59.8,0,0,0,15.815,1.788c18.178.036,40.37-4.739,48.958-6.765,4.417,6.587,11.752,12.3,16.088,15.339-1.424,5.386-3.465,15.88-3.215,31.169l.085,5.1,20.755.04.618-4.462c1.13-8.2,6.868-37.234,6.927-37.526l.291-1.472-.507-1.4c-3.5-9.723-3.48-14.894-3.365-16.413C207.679,126.2,205.756,104.13,199.891,91.152Zm-2.93,71.519s-3.78,19.086-5.853,30.918l-12.623-.024c.537-17.381,4.09-26.387,4.09-26.387s-15.117-9.355-19.6-19.032c0,0-29.127,7.534-51.35,7.491-6.425-.013-12.268-.66-16.667-2.3a2.544,2.544,0,0,0-.907-.181c-5.035-.01-3.31,18.341-3.31,18.341l-7.729,21.879-11.773-.023c6.975-32.518,2.986-44.543,2.986-44.543-22.3-26.819-20.7-65.593-20.7-65.593C50.733,98.777,39.358,93.407,31.363,97.77c-6.2,3.388-8.368,4.387-10.452,4.382a10.441,10.441,0,0,1-2.131-.273C8.585,99.765,2.608,94.583,7.837,87.855,30.791,58.279,18.963,53.268,34.164,38.815a31.125,31.125,0,0,1,8.174-5.692c-.3,5.775.708,10.2,1.672,10.811,4.176,2.629,13.5.781,12.12-5.3a30.886,30.886,0,0,1-.795-7.5,23.3,23.3,0,0,1,7.8,2.714c5.31-4.963,13.068-8.81,16.369-10.436a.587.587,0,0,1,.282-.071c2.413.008,3.8,15.605-4.258,23.524A51.742,51.742,0,0,1,81.6,72.03c-.013,6.877,10.645,8.305,26.366,8.337,10.906.021,24.237-.63,38.142-.6,12.973.025,26.451.646,38.879,2.954,12.748,2.364,21.3,36.3,8.491,60.007C193.47,142.723,191.875,148.591,196.96,162.672Z" transform="translate(6.239 6.168)" fill="#f9f9f9"/><path d="M9.592,17.7A5.077,5.077,0,1,0,4.556,12.61,5.062,5.062,0,0,0,9.592,17.7Z" transform="translate(34.941 54.182)" fill="#f9f9f9"/><path d="M2.627,63.987c-.494.717-.858,2.449-.182,2.958s2.159-.381,2.65-1.09a1.629,1.629,0,0,0-.339-2.221,1.483,1.483,0,0,0-2.129.353Zm18.1-.542a25.411,25.411,0,0,1-2.418,5.485,25.887,25.887,0,0,1-8.427,8.384,15.842,15.842,0,0,0,5.581-2.688,16.989,16.989,0,0,0,4.269-4.778,18.058,18.058,0,0,0,2.254-12.473A32.994,32.994,0,0,1,20.731,63.445ZM69.094,4.626c-1.752.765-13.744,6.837-15.54,12.5-1.218,3.826-.667,3.711.624,2.361,1.308-1.367,4.808-2.289,3.368-1.363s-2.231,2.046-.625,1.5c1.589-.517,4.227-.668,2.009.218s-5.1,3.029-4.444,4.071c.668,1.018,1.98.806,3.181.268C70.991,18.31,71.138,3.736,69.094,4.626Z" transform="translate(15.25 30.724)" fill="#f9f9f9"/></g></svg>