<svg width="25" height="26" viewBox="0 0 25 26" fill="none" xmlns="http://www.w3.org/2000/svg">
<g clip-path="url(#clip0_318_316)">
<path d="M23.202 11.5258C23.1758 11.4675 23.1466 11.4146 23.119 11.3594C24.8756 9.68779 22.5114 6.85511 22.5114 6.85511C22.5114 6.85511 21.8542 8.72286 21.7079 10.0309C21.6824 10.0243 21.6569 10.0148 21.6311 10.0098C20.4039 9.78181 18.9908 9.67406 17.1842 9.67055C16.3518 9.66893 15.5529 9.68868 14.7802 9.70734C14.1129 9.72354 13.4825 9.73906 12.9165 9.73796C10.8827 9.734 10.5686 9.47356 10.5208 9.39434C10.5239 8.4022 10.3294 7.46407 9.95629 6.65114C10.6067 5.72455 10.6169 4.42465 10.4064 3.86997C10.2312 3.40741 9.89879 3.35655 9.76374 3.35628C9.66977 3.3561 9.57919 3.37761 9.49313 3.42005C9.36633 3.48219 9.16222 3.58375 8.92497 3.71339C9.84742 2.97336 11.0778 2.91374 11.0778 2.91374C8.94671 2.1206 7.74851 3.0252 7.1455 4.02036C7.66289 2.25695 9.67073 1.49735 9.67073 1.49735C6.90866 1.39611 5.92404 3.00339 5.65279 4.37544C5.1716 4.54569 4.70844 4.83429 4.28196 5.23938C3.37334 6.10384 3.19934 6.76544 3.015 7.46506C2.82184 8.19891 2.58154 9.11222 1.27836 10.7908C0.843586 11.3514 0.919855 11.8435 1.0046 12.0871C1.20736 12.673 1.83806 13.0912 2.82638 13.2962C2.84273 13.2997 2.86213 13.3024 2.87962 13.3055C2.82082 14.789 4.76537 15.4677 4.76537 15.4677C4.76537 15.4677 4.12808 14.3366 4.59635 12.7846L4.60169 12.7815C4.79781 12.6746 5.05924 12.6371 5.33664 12.5977C5.63878 12.5545 6.0079 12.5016 6.35215 12.3246C6.53319 13.9121 7.07025 16.311 8.63268 18.2519C8.70387 18.6169 8.9108 20.1941 8.0897 23.5947L7.91558 24.316L10.2384 24.3205L10.3731 23.9396L11.5107 20.7169L11.5551 20.5923L11.5424 20.4598C11.4974 19.9721 11.5053 19.4262 11.5546 19.1223C12.0294 19.2552 12.6121 19.321 13.3243 19.3224C15.3584 19.3264 17.8417 18.7921 18.8027 18.5654C19.297 19.3025 20.1178 19.9413 20.603 20.2819C20.4436 20.8846 20.2153 22.0589 20.2432 23.7697L20.2527 24.34L22.5752 24.3445L22.6443 23.8452C22.7708 22.9274 23.4128 19.6787 23.4194 19.646L23.452 19.4813L23.3953 19.3241C23.0033 18.2361 23.0059 17.6575 23.0188 17.4875C24.0735 15.4478 23.8584 12.978 23.202 11.5258ZM22.8741 19.5289C22.8741 19.5289 22.4511 21.6646 22.2191 22.9887L20.8066 22.986C20.8667 21.041 21.2643 20.0333 21.2643 20.0333C21.2643 20.0333 19.5727 18.9865 19.0715 17.9036C19.0715 17.9036 15.8122 18.7467 13.3254 18.7419C12.6064 18.7405 11.9526 18.6681 11.4603 18.4841C11.428 18.4712 11.3936 18.4643 11.3588 18.4638C10.7954 18.4627 10.9884 20.5162 10.9884 20.5162L10.1235 22.9645L8.80613 22.9619C9.58661 19.3231 9.14032 17.9775 9.14032 17.9775C6.64524 14.9764 6.82373 10.6376 6.82373 10.6376C6.51106 12.379 5.23819 11.7781 4.34362 12.2663C3.64937 12.6454 3.4072 12.7572 3.174 12.7567C3.09367 12.7548 3.01376 12.7445 2.93553 12.7262C1.79472 12.4896 1.12592 11.9097 1.71095 11.1568C4.27955 7.84719 2.956 7.28653 4.65698 5.66923C4.95502 5.38601 5.26243 5.17775 5.57162 5.03227C5.53841 5.67855 5.65081 6.17408 5.75872 6.24201C6.22607 6.53622 7.2696 6.3294 7.11495 5.6489C7.05113 5.37379 7.02127 5.09189 7.02604 4.80951C7.33276 4.85797 7.62836 4.96084 7.8989 5.11326C8.49307 4.55786 9.36127 4.12738 9.73064 3.9455C9.74034 3.94025 9.7512 3.93752 9.76223 3.93757C10.0323 3.93848 10.1876 5.68379 9.28576 6.56994C9.70883 7.33352 9.96679 8.29802 9.96467 9.38603C9.96317 10.1556 11.1559 10.3154 12.915 10.3189C14.1354 10.3212 15.6271 10.2484 17.1831 10.2515C18.6348 10.2543 20.143 10.3238 21.5337 10.5821C22.9602 10.8466 23.9172 14.6444 22.4839 17.297C22.4835 17.2966 22.305 17.9532 22.8741 19.5289Z" fill="#808080"/>
<path d="M5.11913 8.67884C5.431 8.67945 5.68432 8.42558 5.68493 8.11182C5.68554 7.79806 5.43321 7.54321 5.12134 7.5426C4.80946 7.542 4.55615 7.79586 4.55554 8.10962C4.55493 8.42339 4.80725 8.67823 5.11913 8.67884Z" fill="white" fill-opacity="0.5"/>
<path d="M2.13635 11.2338C2.08104 11.314 2.04033 11.5079 2.11593 11.5648C2.19228 11.6227 2.35758 11.5222 2.41252 11.4428C2.43931 11.4045 2.45032 11.3573 2.44325 11.311C2.43619 11.2647 2.4116 11.223 2.37458 11.1943C2.35659 11.1806 2.33598 11.1708 2.31403 11.1653C2.29209 11.1599 2.26925 11.1589 2.24694 11.1626C2.22463 11.1663 2.20331 11.1746 2.18429 11.1868C2.16527 11.199 2.14896 11.215 2.13635 11.2338ZM4.16224 11.1731C4.09658 11.3877 4.00577 11.5937 3.8917 11.7869C3.66688 12.1726 3.33381 12.471 2.9487 12.7251C3.17462 12.6669 3.38683 12.5647 3.57319 12.4243C3.7649 12.278 3.92702 12.0965 4.0509 11.8896C4.29671 11.4708 4.39699 10.9605 4.30317 10.4939C4.27762 10.7242 4.23043 10.9516 4.16224 11.1731ZM9.57402 4.59123C9.37794 4.67682 8.036 5.35632 7.83505 5.98971C7.69878 6.41781 7.76044 6.40499 7.90491 6.25386C8.05129 6.10084 8.44295 5.99774 8.28183 6.10129C8.12109 6.20521 8.0322 6.3302 8.21188 6.26968C8.38965 6.21182 8.6849 6.19489 8.43667 6.29408C8.1892 6.39213 7.86575 6.63307 7.93933 6.74962C8.01405 6.86352 8.16094 6.83984 8.29534 6.77961C9.78637 6.12247 9.80285 4.49162 9.57402 4.59123Z" fill="white" fill-opacity="0.5"/>
</g>
<defs>
<clipPath id="clip0_318_316">
<rect width="24.3472" height="24.3472" fill="white" transform="translate(0.200195 0.715576) rotate(0.111419)"/>
</clipPath>
</defs>
</svg>
