<svg width="570" height="155" viewBox="0 0 570 155" fill="none" xmlns="http://www.w3.org/2000/svg">
<path d="M98.8356 7.83533L99.4669 7.83656L99.4681 7.20533L98.8369 7.2041L98.8356 7.83533ZM98.7734 39.8303L98.7722 40.4616L99.4034 40.4628L99.4046 39.8316L98.7734 39.8303ZM40.9363 39.7179L40.9375 39.0866L40.3063 39.0854L40.3051 39.7166L40.9363 39.7179ZM40.8868 65.1498L40.2556 65.1486L40.2544 65.7798L40.8856 65.781L40.8868 65.1498ZM83.5468 65.2327L84.1781 65.234L84.1793 64.6028L83.5481 64.6015L83.5468 65.2327ZM83.4874 95.7921L83.4862 96.4233L84.1174 96.4245L84.1186 95.7933L83.4874 95.7921ZM40.8274 95.7091L40.8286 95.0779L40.1974 95.0767L40.1962 95.7079L40.8274 95.7091ZM40.7173 152.316L40.7161 152.947L41.3473 152.948L41.3486 152.317L40.7173 152.316ZM0.518487 152.237L-0.112735 152.236L-0.113962 152.867L0.517259 152.869L0.518487 152.237ZM0.799668 7.64468L0.800895 7.01346L0.169674 7.01223L0.168446 7.64346L0.799668 7.64468ZM98.2044 7.8341L98.1422 39.8291L99.4046 39.8316L99.4669 7.83656L98.2044 7.8341ZM98.7746 39.1991L40.9375 39.0866L40.9351 40.3491L98.7722 40.4616L98.7746 39.1991ZM40.3051 39.7166L40.2556 65.1486L41.5181 65.151L41.5675 39.7191L40.3051 39.7166ZM40.8856 65.781L83.5456 65.864L83.5481 64.6015L40.8881 64.5186L40.8856 65.781ZM82.9156 65.2315L82.8562 95.7908L84.1186 95.7933L84.1781 65.234L82.9156 65.2315ZM83.4886 95.1609L40.8286 95.0779L40.8262 96.3403L83.4862 96.4233L83.4886 95.1609ZM40.1962 95.7079L40.0861 152.314L41.3486 152.317L41.4586 95.7103L40.1962 95.7079ZM40.7186 151.684L0.519714 151.606L0.517259 152.869L40.7161 152.947L40.7186 151.684ZM1.14971 152.239L1.43089 7.64591L0.168446 7.64346L-0.112735 152.236L1.14971 152.239ZM0.79844 8.2759L98.8344 8.46655L98.8369 7.2041L0.800895 7.01346L0.79844 8.2759ZM155.868 57.7848L155.236 57.7836L155.232 59.8159L156.387 58.1434L155.868 57.7848ZM193.031 36.527L193.663 36.5282L193.664 35.897L193.033 35.8958L193.031 36.527ZM192.948 79.3921L192.947 80.0233L193.578 80.0245L193.579 79.3933L192.948 79.3921ZM162.174 84.4597L162.569 84.9518L162.174 84.4597ZM155.683 152.539L155.682 153.17L156.313 153.172L156.315 152.54L155.683 152.539ZM115.484 152.461L114.853 152.46L114.852 153.091L115.483 153.092L115.484 152.461ZM115.708 37.4021L115.709 36.7709L115.078 36.7696L115.077 37.4009L115.708 37.4021ZM155.907 37.4803L156.538 37.4815L156.54 36.8503L155.908 36.849L155.907 37.4803ZM156.387 58.1434C160.864 51.6591 166.277 46.5388 172.628 42.7723L171.984 41.6865C165.466 45.5519 159.921 50.8019 155.348 57.4262L156.387 58.1434ZM172.628 42.7723C178.965 39.0135 185.762 37.1441 193.03 37.1582L193.033 35.8958C185.534 35.8812 178.514 37.8133 171.984 41.6865L172.628 42.7723ZM192.4 36.5257L192.317 79.3908L193.579 79.3933L193.663 36.5282L192.4 36.5257ZM192.949 78.7609L181.669 78.7389L181.667 80.0014L192.947 80.0233L192.949 78.7609ZM181.669 78.7389C172.856 78.7218 166.187 80.4268 161.778 83.9675L162.569 84.9518C166.652 81.6725 172.978 79.9845 181.667 80.0014L181.669 78.7389ZM161.778 83.9675C157.317 87.5511 155.166 93.7284 155.15 102.289L156.412 102.292C156.429 93.8983 158.54 88.1883 162.569 84.9518L161.778 83.9675ZM155.15 102.289L155.052 152.538L156.315 152.54L156.412 102.292L155.15 102.289ZM155.685 151.908L115.486 151.83L115.483 153.092L155.682 153.17L155.685 151.908ZM116.116 152.462L116.339 37.4033L115.077 37.4009L114.853 152.46L116.116 152.462ZM115.707 38.0333L155.906 38.1115L155.908 36.849L115.709 36.7709L115.707 38.0333ZM155.276 37.479L155.236 57.7836L156.499 57.786L156.538 37.4815L155.276 37.479ZM316.629 103.424L316.628 104.055L317.182 104.056L317.255 103.507L316.629 103.424ZM240.539 103.276L240.54 102.645L239.866 102.643L239.909 103.316L240.539 103.276ZM245.639 117.437L245.182 117.873L245.191 117.883L245.201 117.893L245.639 117.437ZM271.9 112.976L271.901 112.345L271.503 112.344L271.33 112.703L271.9 112.976ZM314.765 113.06L315.38 113.199L315.554 112.43L314.766 112.429L314.765 113.06ZM304.263 134.369L303.777 133.966L303.777 133.968L304.263 134.369ZM284.956 148.894L285.217 149.469L284.956 148.894ZM228.763 146.939L228.459 147.492L228.463 147.494L228.763 146.939ZM208.088 126.389L207.536 126.693L207.539 126.7L208.088 126.389ZM208.21 63.8344L208.76 64.1449L208.762 64.1413L208.21 63.8344ZM228.76 43.3647L228.461 42.8083L228.458 42.8102L228.76 43.3647ZM289.468 43.2776L289.766 42.7208L289.468 43.2776ZM309.939 63.4169L309.388 63.7253L309.39 63.729L309.939 63.4169ZM276.263 83.8611L276.262 84.4924L276.893 84.4936L276.895 83.8624L276.263 83.8611ZM271.363 72.3662L270.947 72.8404L270.952 72.8454L270.958 72.8503L271.363 72.3662ZM246.957 72.1136L247.358 72.601L247.365 72.596L247.371 72.5908L246.957 72.1136ZM240.782 83.7921L240.161 83.6766L240.022 84.4219L240.78 84.4234L240.782 83.7921ZM316.632 93.9894C316.626 97.1067 316.416 100.224 316.004 103.341L317.255 103.507C317.675 100.336 317.888 97.1642 317.894 93.9918L316.632 93.9894ZM316.631 102.793L240.54 102.645L240.537 103.907L316.628 104.055L316.631 102.793ZM239.909 103.316C240.312 109.689 242.04 114.576 245.182 117.873L246.096 117.002C243.233 113.998 241.561 109.443 241.169 103.236L239.909 103.316ZM245.201 117.893C248.47 121.031 252.594 122.594 257.524 122.604L257.527 121.342C252.886 121.332 249.085 119.872 246.076 116.982L245.201 117.893ZM257.524 122.604C260.971 122.611 263.965 121.842 266.479 120.268C268.993 118.695 270.985 116.343 272.469 113.249L271.33 112.703C269.931 115.621 268.086 117.773 265.809 119.198C263.531 120.624 260.78 121.348 257.527 121.342L257.524 122.604ZM271.898 113.608L314.764 113.691L314.766 112.429L271.901 112.345L271.898 113.608ZM314.149 112.921C312.378 120.75 308.922 127.763 303.777 133.966L304.749 134.772C310.02 128.417 313.566 121.223 315.38 113.199L314.149 112.921ZM303.777 133.968C298.771 140.031 292.415 144.816 284.695 148.319L285.217 149.469C293.098 145.892 299.613 140.994 304.75 134.771L303.777 133.968ZM284.695 148.319C276.985 151.818 268.458 153.563 259.105 153.545L259.102 154.807C268.618 154.826 277.326 153.049 285.217 149.469L284.695 148.319ZM259.105 153.545C247.847 153.523 237.839 151.131 229.064 146.383L228.463 147.494C237.444 152.352 247.662 154.785 259.102 154.807L259.105 153.545ZM229.067 146.385C220.431 141.641 213.623 134.876 208.638 126.078L207.539 126.7C212.637 135.696 219.613 142.631 228.459 147.492L229.067 146.385ZM208.641 126.084C203.797 117.296 201.374 106.941 201.397 94.9959L200.135 94.9934C200.111 107.113 202.57 117.687 207.536 126.693L208.641 126.084ZM201.397 94.9959C201.42 83.0505 203.883 72.7747 208.76 64.1449L207.66 63.5239C202.658 72.3765 200.158 82.8742 200.135 94.9934L201.397 94.9959ZM208.762 64.1413C213.644 55.3658 220.408 48.6293 229.061 43.9191L228.458 42.8102C219.591 47.6371 212.655 54.5471 207.658 63.5275L208.762 64.1413ZM229.058 43.921C237.85 39.2085 247.936 36.8548 259.332 36.8769L259.334 35.6145C247.759 35.592 237.462 37.9842 228.461 42.8083L229.058 43.921ZM259.332 36.8769C270.592 36.8988 280.533 39.2239 289.171 43.8345L289.766 42.7208C280.92 37.9996 270.771 35.6367 259.334 35.6145L259.332 36.8769ZM289.171 43.8345C297.805 48.4427 304.541 55.0689 309.388 63.7253L310.49 63.1085C305.526 54.2443 298.615 47.4443 289.766 42.7208L289.171 43.8345ZM309.39 63.729C314.232 72.2409 316.654 82.32 316.632 93.9894L317.894 93.9918C317.917 82.1436 315.457 71.8402 310.488 63.1048L309.39 63.729ZM276.895 83.8624C276.904 78.7846 275.211 74.7623 271.768 71.8821L270.958 72.8503C274.068 75.452 275.641 79.0931 275.632 83.8599L276.895 83.8624ZM271.78 71.8919C268.374 68.9002 264.121 67.4138 259.067 67.404L259.065 68.6665C263.855 68.6758 267.801 70.0767 270.947 72.8404L271.78 71.8919ZM259.067 67.404C254.022 67.3942 249.829 68.7908 246.544 71.6365L247.371 72.5908C250.385 69.9794 254.266 68.6571 259.065 68.6665L259.067 67.404ZM246.556 71.6262C243.261 74.3372 241.147 78.3806 240.161 83.6766L241.402 83.9077C242.35 78.8159 244.353 75.0736 247.358 72.601L246.556 71.6262ZM240.78 84.4234L276.262 84.4924L276.265 83.2299L240.783 83.1609L240.78 84.4234ZM354.732 149.235L354.476 149.812L354.488 149.817L354.732 149.235ZM335.48 134.84L334.976 135.22L334.981 135.226L334.986 135.232L335.48 134.84ZM327.727 114.11L327.728 113.479L327.05 113.478L327.097 114.154L327.727 114.11ZM366.695 114.186L367.32 114.095L367.241 113.556L366.697 113.555L366.695 114.186ZM371.806 122.81L372.174 122.297L371.806 122.81ZM388.439 112.178L388.692 111.599L388.439 112.178ZM372.861 107.635L373.002 107.02L372.994 107.018L372.986 107.016L372.861 107.635ZM352.362 102.058L352.139 102.648L352.362 102.058ZM338.025 91.98L337.544 92.3888L337.551 92.3967L338.025 91.98ZM337.687 54.6517L338.21 55.0059L338.214 54.9999L337.687 54.6517ZM353.916 41.352L353.657 40.7764L353.652 40.7783L353.916 41.352ZM415.433 47.6245L415.021 48.103L415.433 47.6245ZM430.348 76.7773L430.347 77.4085L431.054 77.4099L430.975 76.7072L430.348 76.7773ZM394.046 76.7067L393.425 76.8204L393.52 77.3369L394.045 77.3379L394.046 76.7067ZM389.14 68.2882L388.735 68.7723L388.75 68.7844L388.765 68.7956L389.14 68.2882ZM371.504 67.0233L371.146 66.5036L371.136 66.5104L371.127 66.5176L371.504 67.0233ZM373.738 78.5131L373.465 79.082L373.475 79.0869L373.485 79.0915L373.738 78.5131ZM388.907 82.8496L388.772 83.4664L388.774 83.4667L388.907 82.8496ZM409.61 88.8377L409.374 89.4233L409.379 89.4253L409.61 88.8377ZM424.151 99.531L423.665 99.9342L423.671 99.9415L423.678 99.9486L424.151 99.531ZM424.488 137.269L423.982 136.892L423.976 136.9L424.488 137.269ZM407.85 149.953L408.095 150.535L408.1 150.533L407.85 149.953ZM382.616 153.785C372.294 153.765 363.084 152.049 354.975 148.652L354.488 149.817C362.774 153.288 372.152 155.027 382.613 155.047L382.616 153.785ZM354.987 148.657C347.007 145.122 340.677 140.383 335.975 134.448L334.986 135.232C339.832 141.349 346.336 146.206 354.476 149.812L354.987 148.657ZM335.985 134.461C331.421 128.396 328.88 121.602 328.357 114.067L327.097 114.154C327.638 121.934 330.266 128.961 334.976 135.22L335.985 134.461ZM327.726 114.742L366.694 114.817L366.697 113.555L327.728 113.479L327.726 114.742ZM366.071 114.278C366.634 118.129 368.423 121.161 371.438 123.323L372.174 122.297C369.454 120.347 367.836 117.629 367.32 114.095L366.071 114.278ZM371.438 123.323C374.432 125.471 378.121 126.53 382.464 126.539L382.466 125.276C378.332 125.268 374.914 124.263 372.174 122.297L371.438 123.323ZM382.464 126.539C385.826 126.545 388.57 125.851 390.629 124.386L389.897 123.357C388.122 124.62 385.667 125.282 382.466 125.276L382.464 126.539ZM390.629 124.386C392.697 122.915 393.771 120.955 393.776 118.546L392.513 118.543C392.509 120.51 391.662 122.101 389.897 123.357L390.629 124.386ZM393.776 118.546C393.779 116.987 393.352 115.604 392.48 114.424C391.613 113.251 390.335 112.317 388.692 111.599L388.187 112.756C389.686 113.411 390.763 114.225 391.465 115.175C392.161 116.117 392.516 117.231 392.513 118.543L393.776 118.546ZM388.692 111.599C385.492 110.2 380.25 108.676 373.002 107.02L372.72 108.25C379.959 109.904 385.103 111.408 388.187 112.756L388.692 111.599ZM372.986 107.016C364.806 105.364 358.008 103.513 352.585 101.467L352.139 102.648C357.647 104.726 364.515 106.593 372.736 108.254L372.986 107.016ZM352.585 101.467C347.222 99.4442 342.528 96.1474 338.499 91.5633L337.551 92.3967C341.708 97.1263 346.571 100.548 352.139 102.648L352.585 101.467ZM338.506 91.5713C334.673 87.0597 332.73 80.9266 332.745 73.1008L331.483 73.0984C331.467 81.1333 333.465 87.5872 337.544 92.3887L338.506 91.5713ZM332.745 73.1008C332.758 66.3853 334.581 60.3599 338.21 55.0059L337.165 54.2976C333.389 59.8677 331.496 66.1408 331.483 73.0984L332.745 73.1008ZM338.214 54.9999C341.841 49.5147 347.152 45.1525 354.179 41.9256L353.652 40.7783C346.447 44.0869 340.939 48.5911 337.161 54.3035L338.214 54.9999ZM354.175 41.9275C361.327 38.7055 369.92 37.092 379.971 37.1115L379.974 35.8491C369.79 35.8293 361.011 37.4635 353.657 40.7765L354.175 41.9275ZM379.971 37.1115C394.911 37.1406 406.568 40.8292 415.021 48.103L415.844 47.1461C407.098 39.6194 395.115 35.8785 379.974 35.8491L379.971 37.1115ZM415.021 48.103C423.491 55.3917 428.393 64.9592 429.721 76.8473L430.975 76.7072C429.615 64.5255 424.574 54.6577 415.844 47.1461L415.021 48.103ZM430.349 76.1461L394.047 76.0755L394.045 77.3379L430.347 77.4085L430.349 76.1461ZM394.667 76.593C393.967 72.7698 392.259 69.8108 389.516 67.7807L388.765 68.7956C391.209 70.6041 392.773 73.2574 393.425 76.8204L394.667 76.593ZM389.545 67.804C386.943 65.6267 383.436 64.5694 379.098 64.561L379.095 65.8234C383.234 65.8315 386.423 66.8382 388.735 68.7723L389.545 67.804ZM379.098 64.561C375.75 64.5545 373.073 65.1748 371.146 66.5036L371.863 67.543C373.495 66.4175 375.88 65.8172 379.095 65.8234L379.098 64.561ZM371.127 66.5176C369.312 67.8728 368.407 69.7737 368.402 72.1447L369.664 72.1471C369.668 70.1427 370.41 68.6286 371.882 67.529L371.127 66.5176ZM368.402 72.1447C368.396 75.1933 370.176 77.5012 373.465 79.082L374.011 77.9442C371.016 76.5046 369.66 74.5677 369.664 72.1471L368.402 72.1447ZM373.485 79.0915C376.688 80.4913 381.795 81.9473 388.772 83.4664L389.041 82.2328C382.078 80.7167 377.073 79.2817 373.991 77.9347L373.485 79.0915ZM388.774 83.4667C397.09 85.2559 403.954 87.2428 409.374 89.4233L409.845 88.2521C404.336 86.0359 397.398 84.0307 389.04 82.2325L388.774 83.4667ZM409.379 89.4253C414.875 91.5824 419.636 95.0804 423.665 99.9342L424.637 99.1278C420.481 94.121 415.548 90.4902 409.84 88.2501L409.379 89.4253ZM423.678 99.9486C427.777 104.595 429.855 110.997 429.839 119.231L431.102 119.234C431.118 110.787 428.984 104.054 424.624 99.1134L423.678 99.9486ZM429.839 119.231C429.827 125.797 427.876 131.677 423.982 136.892L424.994 137.647C429.051 132.213 431.089 126.068 431.102 119.234L429.839 119.231ZM423.976 136.9C420.216 142.116 414.77 146.279 407.6 149.374L408.1 150.533C415.437 147.366 421.082 143.073 425 137.639L423.976 136.9ZM407.605 149.371C400.585 152.326 392.26 153.804 382.616 153.785L382.613 155.047C392.385 155.066 400.884 153.569 408.095 150.535L407.605 149.371ZM557.223 50.5665L556.744 50.9776L556.751 50.9854L557.223 50.5665ZM568.713 153.342L568.712 153.974L569.343 153.975L569.345 153.344L568.713 153.342ZM528.515 153.264L527.883 153.263L527.882 153.894L528.513 153.895L528.515 153.264ZM523.537 76.1381L523.065 76.5577L523.073 76.5661L523.537 76.1381ZM495.644 76.0839L496.106 76.5137L496.114 76.5052L495.644 76.0839ZM490.367 153.19L490.365 153.821L490.997 153.823L490.998 153.191L490.367 153.19ZM450.168 153.112L449.537 153.111L449.535 153.742L450.167 153.743L450.168 153.112ZM450.463 1.34073L450.464 0.709504L449.833 0.708277L449.832 1.3395L450.463 1.34073ZM490.662 1.4189L491.293 1.42013L491.294 0.788904L490.663 0.787676L490.662 1.4189ZM490.558 54.5388L489.927 54.5376L489.923 56.578L491.079 54.8963L490.558 54.5388ZM504.94 42.0558L505.231 42.6158L505.236 42.6134L504.94 42.0558ZM526.073 37.8058C539.04 37.8311 549.239 42.2322 556.744 50.9776L557.702 50.1554C549.927 41.0961 539.361 36.5692 526.075 36.5434L526.073 37.8058ZM556.751 50.9854C564.398 59.6057 568.242 71.344 568.213 86.2747L569.475 86.2772C569.504 71.1272 565.601 59.0592 557.695 50.1476L556.751 50.9854ZM568.213 86.2747L568.082 153.341L569.345 153.344L569.475 86.2772L568.213 86.2747ZM568.715 152.711L528.516 152.633L528.513 153.895L568.712 153.974L568.715 152.711ZM529.146 153.265L529.266 91.5315L528.003 91.5291L527.883 153.263L529.146 153.265ZM529.266 91.5315C529.279 84.8593 527.55 79.5575 524.001 75.7102L523.073 76.5661C526.347 80.1155 528.016 85.0752 528.003 91.5291L529.266 91.5315ZM524.009 75.7186C520.463 71.7323 515.707 69.749 509.808 69.7375L509.806 70.9999C515.392 71.0108 519.789 72.8737 523.065 76.5576L524.009 75.7186ZM509.808 69.7375C503.646 69.7255 498.741 71.6835 495.174 75.6626L496.114 76.5052C499.399 72.8407 503.935 70.9885 509.806 70.9999L509.808 69.7375ZM495.182 75.6541C491.618 79.4876 489.868 84.7826 489.855 91.4549L491.118 91.4573C491.13 85.0035 492.819 80.0503 496.106 76.5136L495.182 75.6541ZM489.855 91.4549L489.735 153.189L490.998 153.191L491.118 91.4573L489.855 91.4549ZM490.368 152.559L450.169 152.481L450.167 153.743L490.365 153.821L490.368 152.559ZM450.799 153.113L451.094 1.34196L449.832 1.3395L449.537 153.111L450.799 153.113ZM450.462 1.97195L490.661 2.05012L490.663 0.787676L450.464 0.709504L450.462 1.97195ZM490.031 1.41767L489.927 54.5376L491.19 54.54L491.293 1.42013L490.031 1.41767ZM491.079 54.8963C494.581 49.7992 499.293 45.705 505.231 42.6158L504.648 41.4959C498.542 44.6729 493.666 48.9007 490.038 54.1813L491.079 54.8963ZM505.236 42.6134C511.291 39.3987 518.232 37.7906 526.073 37.8058L526.075 36.5434C518.056 36.5278 510.906 38.1738 504.644 41.4983L505.236 42.6134Z" fill="#A1A1A1"/>
</svg>
