<svg width="64" height="64" viewBox="0 0 64 64" fill="none" xmlns="http://www.w3.org/2000/svg">
<path d="M23.1707 49.0623C23.1707 49.0623 25.8294 38.2038 31.9966 31.6558" stroke="#0085FF" stroke-width="4.9596" stroke-linecap="round" stroke-linejoin="round"/>
<path d="M44.2932 17.8596L45.3673 29.158C46.0652 36.486 40.5076 43.0004 33.1122 43.6888C25.8575 44.3658 19.2942 39.0998 18.6107 31.9083C18.2818 28.4558 19.3504 25.0152 21.5815 22.3435C23.8126 19.6717 27.0234 17.9875 30.5076 17.6614L42.6634 16.5235C42.8592 16.505 43.0567 16.5251 43.2447 16.5825C43.4326 16.6398 43.6073 16.7334 43.7587 16.8578C43.9101 16.9822 44.0353 17.1349 44.127 17.3073C44.2187 17.4797 44.2752 17.6684 44.2931 17.8625L44.2932 17.8596Z" stroke="#0085FF" stroke-width="4.9596" stroke-linecap="round" stroke-linejoin="round"/>
<path d="M31.9403 60.6951C48.1264 60.7265 61.2723 47.7511 61.3035 31.7127C61.3347 15.6742 48.2393 2.64779 32.0533 2.61632C15.8672 2.58484 2.7213 15.5603 2.69011 31.5987C2.65892 47.6372 15.7542 60.6636 31.9403 60.6951Z" stroke="#0085FF" stroke-width="4.9596" stroke-linecap="round" stroke-linejoin="round"/>
</svg>
