<svg width="44" height="45" viewBox="0 0 44 45" fill="none" xmlns="http://www.w3.org/2000/svg">
<path fill-rule="evenodd" clip-rule="evenodd" d="M32.2916 28.9318C34.1514 28.9354 35.1931 27.727 35.195 26.7631C35.1969 25.7991 34.1599 24.5867 32.3 24.583C30.4402 24.5794 29.3985 25.7878 29.3966 26.7518C29.3948 27.7158 30.4318 28.9282 32.2916 28.9318ZM32.2888 30.3814C34.6907 30.3861 36.6407 28.767 36.6446 26.7659C36.6485 24.7647 34.7048 23.1381 32.3029 23.1335C29.9009 23.1288 27.9509 24.7478 27.9471 26.749C27.9432 28.7501 29.8868 30.3767 32.2888 30.3814Z" fill="white"/>
<path d="M19.7983 15.2282C20.2842 15.1059 20.7738 14.9097 21.1258 14.6509C22.0476 13.9758 22.5845 12.6149 21.4064 12.7619C21.0635 12.8047 20.8163 12.813 20.6141 12.8198C20.1226 12.8355 19.9037 12.8431 19.2505 13.3224C19.0011 13.5038 18.7699 13.7089 18.56 13.9349C17.5475 13.1792 16.1993 12.8395 13.8399 12.9509C13.7438 12.9507 13.6515 12.9887 13.5834 13.0565C13.5153 13.1244 13.477 13.2165 13.4768 13.3126C13.4766 13.4087 13.5146 13.5009 13.5824 13.569C13.6502 13.6371 13.7423 13.6755 13.8385 13.6757L15.0974 13.6781C15.3045 13.8119 15.4811 13.9369 15.6381 14.0561L13.0341 17.2981L12.8805 17.2978C12.6545 17.2973 12.4314 17.3497 12.2293 17.4507C12.0271 17.5518 11.8513 17.6987 11.7161 17.8798C11.5808 18.0608 11.4897 18.271 11.4501 18.4936C11.4106 18.7161 11.4236 18.9448 11.4881 19.1614L11.7042 19.8866C11.7932 20.1854 11.9762 20.4475 12.226 20.6341C12.4758 20.8206 12.7791 20.9216 13.0909 20.9222L15.5276 20.9269C15.8339 20.9277 16.1321 21.0254 16.3794 21.2062L17.9645 22.3631C18.0123 22.398 18.0615 22.43 18.1114 22.4576C19.2415 25.388 20.4351 27.6705 21.7738 28.8205L22.018 31.8216C21.8388 31.8516 21.6774 31.9477 21.5657 32.091C21.4541 32.2344 21.4003 32.4144 21.4151 32.5955C21.4299 32.7765 21.5121 32.9455 21.6455 33.0688C21.779 33.1921 21.9538 33.2608 22.1355 33.2613L24.3099 33.2655L24.3226 26.7424L31.4328 26.7562C32.5035 27.8027 33.705 28.6241 35.5526 28.9386L35.7891 31.8484C35.6099 31.8783 35.4484 31.9745 35.3368 32.1178C35.2251 32.2611 35.1714 32.4412 35.1861 32.6222C35.2009 32.8033 35.2832 32.9723 35.4166 33.0956C35.55 33.2189 35.7249 33.2876 35.9066 33.2881L38.081 33.2923L38.1063 20.246C38.1117 19.2621 37.7897 18.3043 37.1911 17.5234C37.6439 17.646 37.9603 17.8242 38.1831 18.0399C38.5861 18.4284 38.8334 19.082 38.8311 20.2474L39.104 24.1764C38.9331 24.4406 38.8222 24.8549 38.8213 25.321C38.8197 26.1219 39.1431 26.7712 39.5432 26.772C39.9433 26.7728 40.2693 26.1247 40.2708 25.3238C40.2717 24.8578 40.1624 24.443 39.9926 24.1781L40.2807 20.2503C40.2833 18.921 40.0079 17.7854 39.1897 16.996C38.3816 16.2167 37.1942 15.9216 35.7324 15.8941C35.6773 15.8925 34.169 15.8896 34.1284 15.8895L34.1284 15.8946C34.0613 15.8911 33.9941 15.8893 33.9269 15.8891L23.2565 15.8684C21.8548 15.8656 20.7963 15.6548 19.9089 15.3777L19.7983 15.2282Z" fill="white"/>
<path d="M28.7245 27.3081L27.4565 27.8239L28.0033 29.1666L29.2705 28.6515L28.7245 27.3081ZM29.3 30.2737L30.0703 28.8473L31.3461 29.5369L30.5757 30.9632L29.3 30.2737ZM32.2976 29.5982L32.6018 31.1904L34.0258 30.9178L33.7209 29.3255L32.2969 29.5982L32.2976 29.5982Z" fill="white"/>
</svg>
