<svg width="24" height="24" viewBox="0 0 24 24" fill="none" xmlns="http://www.w3.org/2000/svg">
<g id="mdi:meat-outline">
<path id="Vector" d="M15.71 4C16.54 4 17.33 4.22 18 4.66C19.14 5.4 19.84 6.53 20 7.84C20.0572 8.47455 19.9749 9.11392 19.759 9.71334C19.5431 10.3127 19.1987 10.8577 18.75 11.31C18.05 12 17.16 12.44 16.18 12.54C14.27 12.74 12.59 13.5 11.34 14.77C11.1889 14.9175 10.9861 15 10.775 15C10.5639 15 10.3611 14.9175 10.21 14.77L9.22 13.78C9.15002 13.7107 9.09453 13.6281 9.05676 13.5371C9.019 13.4461 8.9997 13.3485 9 13.25C9 13 9.11 12.78 9.32 12.57C10.53 11.35 11.27 9.73 11.45 7.87C11.58 6.54 12.29 5.4 13.45 4.65C14.11 4.22 14.89 4 15.71 4ZM15.71 2C14.54 2 13.37 2.32 12.36 2.97C10.6 4.1 9.63 5.86 9.46 7.68C9.33 9 8.83 10.23 7.91 11.15L7.88 11.18C6.72 12.34 6.72 14.11 7.81 15.19L8.8 16.18C9.35 16.73 10.06 17 10.77 17C11.48 17 12.2 16.73 12.75 16.18C13.72 15.21 15 14.68 16.39 14.53C17.76 14.38 19.1 13.78 20.16 12.73C20.825 12.0659 21.3323 11.2608 21.6442 10.3742C21.9561 9.48759 22.0647 8.54223 21.9619 7.60801C21.8592 6.67379 21.5477 5.77462 21.0506 4.977C20.5535 4.17939 19.8835 3.50373 19.09 3C18.08 2.33 16.9 2 15.71 2ZM6.26 19.86C6.53 20.42 6.44 21.1 5.97 21.56C5.76644 21.7666 5.507 21.9093 5.2235 21.9707C4.94001 22.032 4.64478 22.0092 4.37403 21.9052C4.10329 21.8011 3.8688 21.6203 3.69933 21.3849C3.52986 21.1495 3.43278 20.8698 3.42 20.58C3.13023 20.5672 2.85049 20.4701 2.6151 20.3007C2.3797 20.1312 2.19889 19.8967 2.09484 19.626C1.99079 19.3552 1.96802 19.06 2.02934 18.7765C2.09065 18.493 2.23337 18.2336 2.44 18.03C2.9 17.57 3.59 17.47 4.14 17.74L6.62 15.31C6.76 15.5 6.92 15.72 7.1 15.9L8.09 16.89C8.3 17.09 8.5 17.26 8.76 17.41L6.26 19.86Z" fill="#0085FF"/>
</g>
</svg>
