<svg width="714" height="126" viewBox="0 0 714 126" fill="none" xmlns="http://www.w3.org/2000/svg">
<path d="M93.1856 64.4393L93.7325 64.7546L93.7349 64.7503L93.1856 64.4393ZM77.5972 78.9543L77.3051 78.3948L77.3013 78.3968L77.5972 78.9543ZM38.0099 84.2896L38.0111 83.6584L37.3799 83.6571L37.3786 84.2884L38.0099 84.2896ZM37.9359 122.344L37.9346 122.975L38.5659 122.977L38.5671 122.345L37.9359 122.344ZM0.38862 122.271L-0.242601 122.27L-0.243829 122.901L0.387393 122.902L0.38862 122.271ZM0.621481 2.52595L0.622709 1.89472L-0.00851276 1.8935L-0.00974026 2.52472L0.621481 2.52595ZM86.6878 13.856L86.2506 14.3114L86.2539 14.3145L86.6878 13.856ZM38.1102 32.7044L38.1114 32.0732L37.4802 32.072L37.479 32.7032L38.1102 32.7044ZM38.0674 54.6915L37.4362 54.6903L37.435 55.3215L38.0662 55.3228L38.0674 54.6915ZM97.8376 43.8142C97.8231 51.267 96.087 58.0339 92.6363 64.1283L93.7349 64.7503C97.2991 58.4553 99.0852 51.4729 99.1 43.8166L97.8376 43.8142ZM92.6388 64.1239C89.1978 70.091 84.0954 74.8495 77.3051 78.3948L77.8894 79.5139C84.8691 75.8697 90.159 70.9514 93.7324 64.7546L92.6388 64.1239ZM77.3013 78.3968C70.6416 81.932 62.5148 83.706 52.8947 83.6873L52.8922 84.9497C62.6659 84.9688 71.0083 83.1666 77.8932 79.5119L77.3013 78.3968ZM52.8947 83.6873L38.0111 83.6584L38.0086 84.9208L52.8922 84.9497L52.8947 83.6873ZM37.3786 84.2884L37.3046 122.343L38.5671 122.345L38.6411 84.2908L37.3786 84.2884ZM37.9371 121.713L0.389848 121.64L0.387393 122.902L37.9346 122.975L37.9371 121.713ZM1.01984 122.272L1.2527 2.52717L-0.00974026 2.52472L-0.242601 122.27L1.01984 122.272ZM0.620254 3.15716L53.0511 3.25912L53.0535 1.99668L0.622709 1.89472L0.620254 3.15716ZM53.0511 3.25912C67.6065 3.28743 78.6393 7.00258 86.2506 14.3113L87.125 13.4008C79.2052 5.79567 67.8143 2.02539 53.0535 1.99668L53.0511 3.25912ZM86.2539 14.3145C93.9862 21.6334 97.8617 31.443 97.8376 43.8142L99.1 43.8166C99.1247 31.1562 95.1461 20.993 87.1217 13.3976L86.2539 14.3145ZM48.7215 55.3435C52.6997 55.3512 55.8027 54.421 57.9126 52.4412C60.0296 50.4547 61.0381 47.5144 61.0454 43.7426L59.783 43.7402C59.7761 47.2974 58.8289 49.8501 57.0487 51.5206C55.2615 53.1977 52.5258 54.0884 48.7239 54.081L48.7215 55.3435ZM61.0454 43.7426C61.0527 39.9708 60.0557 37.0267 57.9464 35.0319C55.8442 33.0439 52.745 32.1016 48.7667 32.0939L48.7643 33.3563C52.5661 33.3637 55.2983 34.2651 57.079 35.9492C58.8526 37.6265 59.7899 40.1829 59.783 43.7402L61.0454 43.7426ZM48.7667 32.0939L38.1114 32.0732L38.109 33.3356L48.7643 33.3563L48.7667 32.0939ZM37.479 32.7032L37.4362 54.6903L38.6986 54.6928L38.7414 32.7056L37.479 32.7032ZM38.0662 55.3228L48.7215 55.3435L48.7239 54.081L38.0687 54.0603L38.0662 55.3228ZM170.436 122.602L169.876 122.894L170.053 123.232L170.435 123.233L170.436 122.602ZM148.025 79.5987L148.585 79.307L148.408 78.9682L148.026 78.9675L148.025 79.5987ZM147.856 79.5984L147.857 78.9671L147.226 78.9659L147.225 79.5971L147.856 79.5984ZM147.772 122.558L147.771 123.189L148.402 123.19L148.404 122.559L147.772 122.558ZM110.225 122.485L109.594 122.484L109.593 123.115L110.224 123.116L110.225 122.485ZM110.458 2.73954L110.459 2.10831L109.828 2.10709L109.827 2.73831L110.458 2.73954ZM191.124 8.1395L190.837 8.70172L190.844 8.70538L191.124 8.1395ZM206.487 22.2074L205.937 22.5172L205.941 22.5234L205.945 22.5295L206.487 22.2074ZM204.885 63.4725L204.375 63.1003L204.371 63.1064L204.885 63.4725ZM185.747 76.7968L185.553 76.196L184.816 76.4335L185.198 77.1076L185.747 76.7968ZM211.704 122.682L211.703 123.313L212.788 123.315L212.254 122.371L211.704 122.682ZM147.905 54.5669L147.273 54.5656L147.272 55.1969L147.903 55.1981L147.905 54.5669ZM170.911 52.2437L171.326 52.7196L171.334 52.7125L171.342 52.7051L170.911 52.2437ZM170.772 37.0216L170.324 37.467L170.331 37.4738L170.338 37.4804L170.772 37.0216ZM147.944 34.2711L147.945 33.6398L147.314 33.6386L147.313 34.2698L147.944 34.2711ZM170.996 122.31L148.585 79.307L147.465 79.8904L169.876 122.894L170.996 122.31ZM148.026 78.9675L147.857 78.9671L147.855 80.2296L148.024 80.2299L148.026 78.9675ZM147.225 79.5971L147.141 122.557L148.404 122.559L148.487 79.5996L147.225 79.5971ZM147.774 121.927L110.226 121.854L110.224 123.116L147.771 123.189L147.774 121.927ZM110.856 122.486L111.089 2.74077L109.827 2.73831L109.594 122.484L110.856 122.486ZM110.457 3.37076L166.27 3.47929L166.273 2.21685L110.459 2.10831L110.457 3.37076ZM166.27 3.47929C175.893 3.49801 184.074 5.24822 190.837 8.70167L191.411 7.57733C184.431 4.01326 176.044 2.23585 166.273 2.21685L166.27 3.47929ZM190.844 8.70538C197.615 12.052 202.636 16.6579 205.937 22.5172L207.037 21.8975C203.597 15.7917 198.375 11.0191 191.403 7.57362L190.844 8.70538ZM205.945 22.5295C209.365 28.293 211.075 34.8353 211.06 42.1739L212.323 42.1763C212.338 34.6313 210.577 27.8618 207.03 21.8852L205.945 22.5295ZM211.06 42.1739C211.045 50.0523 208.815 57.0202 204.375 63.1003L205.395 63.8448C209.999 57.5394 212.307 50.309 212.323 42.1763L211.06 42.1739ZM204.371 63.1064C200.052 69.1722 193.794 73.5411 185.553 76.196L185.941 77.3976C194.398 74.6727 200.899 70.1588 205.399 63.8387L204.371 63.1064ZM185.198 77.1076L211.155 122.993L212.254 122.371L186.296 76.486L185.198 77.1076ZM211.705 122.051L170.437 121.971L170.435 123.233L211.703 123.313L211.705 122.051ZM147.903 55.1981L162.787 55.227L162.789 53.9646L147.906 53.9356L147.903 55.1981ZM162.787 55.227C166.473 55.2342 169.357 54.4353 171.326 52.7196L170.496 51.7679C168.851 53.2024 166.319 53.9714 162.789 53.9646L162.787 55.227ZM171.342 52.7051C173.322 50.8558 174.257 48.0663 174.264 44.4702L173.001 44.4677C172.995 47.8623 172.115 50.2561 170.48 51.7824L171.342 52.7051ZM174.264 44.4702C174.27 41.1765 173.27 38.5136 171.205 36.5627L170.338 37.4804C172.1 39.1451 173.007 41.4471 173.001 44.4677L174.264 44.4702ZM171.219 36.5761C169.262 34.6115 166.428 33.6758 162.829 33.6688L162.826 34.9312C166.218 34.9378 168.68 35.8165 170.324 37.467L171.219 36.5761ZM162.829 33.6688L147.945 33.6398L147.943 34.9023L162.826 34.9312L162.829 33.6688ZM147.313 34.2698L147.273 54.5656L148.536 54.5681L148.575 34.2723L147.313 34.2698ZM250.774 115.993L250.461 116.541L250.464 116.543L250.774 115.993ZM228.491 93.9623L227.947 94.2821L228.491 93.9623ZM250.982 8.93243L251.287 9.48513L251.289 9.48389L250.982 8.93243ZM313.053 9.05314L312.741 9.60183L312.746 9.60465L313.053 9.05314ZM335.167 30.9142L334.62 31.2292L334.623 31.2341L335.167 30.9142ZM335.044 94.1695L334.501 93.8475L334.498 93.8524L335.044 94.1695ZM312.676 116.113L312.369 115.562L312.366 115.563L312.676 116.113ZM299.212 81.9223L299.69 82.334L299.695 82.3284L299.212 81.9223ZM299.287 43.022L298.803 43.4263L298.807 43.4318L299.287 43.022ZM264.615 42.9546L265.094 43.3663L265.099 43.3607L264.615 42.9546ZM264.54 81.8548L264.055 82.2591L264.06 82.2647L264.54 81.8548ZM281.88 123.371C270.708 123.35 260.446 120.705 251.083 115.443L250.464 116.543C260.023 121.916 270.498 124.612 281.877 124.634L281.88 123.371ZM251.086 115.444C241.834 110.182 234.487 102.918 229.035 93.6424L227.947 94.2821C233.509 103.746 241.016 111.169 250.461 116.541L251.086 115.444ZM229.035 93.6424C223.59 84.3781 220.874 73.9426 220.896 62.3198L219.634 62.3173C219.611 74.1474 222.378 84.8078 227.947 94.2821L229.035 93.6424ZM220.896 62.3198C220.919 50.6969 223.676 40.2721 229.157 31.029L228.071 30.3851C222.466 39.8377 219.657 50.4872 219.634 62.3173L220.896 62.3198ZM229.157 31.029C234.644 21.7762 242.018 14.5984 251.287 9.48513L250.677 8.37974C241.208 13.6035 233.671 20.942 228.071 30.3851L229.157 31.029ZM251.289 9.48389C260.673 4.25745 270.944 1.65326 282.116 1.67498L282.119 0.41254C270.74 0.390412 260.254 3.04533 250.675 8.38098L251.289 9.48389ZM282.116 1.67498C293.288 1.69671 303.492 4.34069 312.741 9.60181L313.365 8.50448C303.917 3.13027 293.498 0.434668 282.119 0.41254L282.116 1.67498ZM312.746 9.60465C321.994 14.7533 329.282 21.9581 334.62 31.2292L335.714 30.5993C330.263 21.1321 322.81 13.7628 313.36 8.50164L312.746 9.60465ZM334.623 31.2341C340.068 40.4985 342.784 50.9339 342.762 62.5567L344.024 62.5592C344.047 50.7291 341.28 40.0687 335.711 30.5944L334.623 31.2341ZM342.762 62.5567C342.739 74.1796 339.982 84.6044 334.501 93.8475L335.587 94.4914C341.192 85.0388 344.001 74.3893 344.024 62.5592L342.762 62.5567ZM334.498 93.8524C329.125 103.102 321.752 110.336 312.369 115.562L312.983 116.665C322.563 111.329 330.102 103.933 335.59 94.4866L334.498 93.8524ZM312.366 115.563C303.096 120.789 292.938 123.393 281.88 123.371L281.877 124.634C293.145 124.656 303.518 122 312.986 116.663L312.366 115.563ZM281.945 89.6235C289.532 89.6382 295.478 87.2286 299.69 82.334L298.733 81.5105C294.808 86.0715 289.244 88.3752 281.948 88.361L281.945 89.6235ZM299.695 82.3284C303.883 77.3454 305.953 70.7088 305.969 62.4852L304.707 62.4827C304.691 70.4958 302.677 76.818 298.728 81.5161L299.695 82.3284ZM305.969 62.4852C305.986 54.1523 303.943 47.5026 299.767 42.6121L298.807 43.4318C302.732 48.0285 304.723 54.3535 304.707 62.4827L305.969 62.4852ZM299.772 42.6177C295.581 37.5919 289.643 35.0993 282.051 35.0845L282.049 36.347C289.34 36.3612 294.894 38.7393 298.803 43.4262L299.772 42.6177ZM282.051 35.0845C274.35 35.0696 268.345 37.5367 264.132 42.5484L265.099 43.3607C269.023 38.6913 274.641 36.3326 282.049 36.347L282.051 35.0845ZM264.137 42.5428C259.942 47.4171 257.874 54.0587 257.858 62.3916L259.12 62.3941C259.136 54.2649 261.151 47.9476 265.094 43.3663L264.137 42.5428ZM257.858 62.3916C257.842 70.6152 259.886 77.2599 264.055 82.2591L265.024 81.4506C261.094 76.7371 259.104 70.4072 259.12 62.3941L257.858 62.3916ZM264.06 82.2647C268.254 87.1779 274.249 89.6085 281.945 89.6235L281.948 88.361C274.535 88.3466 268.925 86.019 265.02 81.445L264.06 82.2647ZM439.744 10.9908L439.442 11.5452L439.445 11.5467L439.744 10.9908ZM461.521 32.1747L462.072 31.8663L461.521 32.1747ZM461.401 93.7387L461.952 94.0463L461.401 93.7387ZM439.541 115.345L439.846 115.898L439.848 115.897L439.541 115.345ZM356.821 122.964L356.189 122.963L356.188 123.594L356.819 123.596L356.821 122.964ZM357.053 3.21908L357.055 2.58785L356.423 2.58663L356.422 3.21785L357.053 3.21908ZM423.537 82.6714L423.966 83.1341L423.537 82.6714ZM423.614 43.0946L424.045 42.6336L423.614 43.0946ZM394.537 36.1036L394.538 35.4724L393.907 35.4712L393.906 36.1024L394.537 36.1036ZM394.433 89.5493L393.802 89.548L393.8 90.1793L394.432 90.1805L394.433 89.5493ZM406.946 3.94732C419.375 3.97149 430.201 6.51143 439.442 11.5452L440.046 10.4365C430.59 5.28593 419.551 2.70939 406.948 2.68488L406.946 3.94732ZM439.445 11.5467C448.805 16.5844 455.975 23.5618 460.97 32.4831L462.072 31.8663C456.954 22.7273 449.606 15.582 440.043 10.435L439.445 11.5467ZM460.97 32.4831C465.968 41.4086 468.463 51.5654 468.441 62.9703L469.703 62.9727C469.726 51.3757 467.187 41.0013 462.072 31.8663L460.97 32.4831ZM468.441 62.9703C468.419 74.2611 465.885 84.4098 460.85 93.4311L461.952 94.0463C467.101 84.8211 469.681 74.4583 469.703 62.9727L468.441 62.9703ZM460.85 93.4311C455.818 102.448 448.617 109.567 439.234 114.794L439.848 115.897C449.428 110.561 456.801 103.276 461.952 94.0463L460.85 93.4311ZM439.236 114.792C429.976 119.901 419.143 122.454 406.716 122.43L406.713 123.693C419.318 123.717 430.369 121.126 439.846 115.898L439.236 114.792ZM406.716 122.43L356.822 122.333L356.819 123.596L406.713 123.693L406.716 122.43ZM357.452 122.966L357.685 3.22031L356.422 3.21785L356.189 122.963L357.452 122.966ZM357.052 3.85029L406.946 3.94732L406.948 2.68488L357.055 2.58785L357.052 3.85029ZM403.396 90.1979C411.971 90.2146 418.852 87.8812 423.966 83.1341L423.108 82.2088C418.282 86.6883 411.736 88.9517 403.398 88.9355L403.396 90.1979ZM423.966 83.1341C429.097 78.3719 431.632 71.5941 431.649 62.8987L430.386 62.8963C430.37 71.3396 427.917 77.7444 423.108 82.2088L423.966 83.1341ZM431.649 62.8987C431.665 54.2034 429.157 47.4158 424.045 42.6336L423.183 43.5556C427.975 48.0386 430.403 54.4529 430.386 62.8963L431.649 62.8987ZM424.045 42.6336C418.949 37.8667 412.077 35.5065 403.502 35.4899L403.5 36.7523C411.838 36.7685 418.374 39.0574 423.183 43.5556L424.045 42.6336ZM403.502 35.4899L394.538 35.4724L394.536 36.7349L403.5 36.7523L403.502 35.4899ZM393.906 36.1024L393.802 89.548L395.064 89.5505L395.168 36.1049L393.906 36.1024ZM394.432 90.1805L403.396 90.1979L403.398 88.9355L394.434 88.9181L394.432 90.1805ZM519.448 3.53488L520.079 3.5361L520.08 2.90488L519.449 2.90365L519.448 3.53488ZM522.842 84.2176L522.33 84.5868L522.338 84.5969L522.345 84.6066L522.842 84.2176ZM546.69 84.264L547.177 84.6657L547.184 84.6572L546.69 84.264ZM550.737 3.59572L550.738 2.9645L550.107 2.96327L550.106 3.59449L550.737 3.59572ZM588.115 3.66841L588.746 3.66964L588.748 3.03841L588.116 3.03718L588.115 3.66841ZM580.823 100.398L581.366 100.72L581.368 100.717L580.823 100.398ZM561.338 118.457L561.616 119.024L561.338 118.457ZM506.708 118.351L506.415 118.91L506.419 118.912L506.708 118.351ZM488.477 100.218L487.924 100.521L488.477 100.218ZM482.069 3.46219L482.071 2.83096L481.439 2.82974L481.438 3.46096L482.069 3.46219ZM518.816 3.53365L518.685 71.0172L519.948 71.0197L520.079 3.5361L518.816 3.53365ZM518.685 71.0172C518.674 76.6271 519.867 81.1712 522.33 84.5868L523.354 83.8484C521.095 80.7151 519.937 76.4597 519.948 71.0197L518.685 71.0172ZM522.345 84.6066C524.978 87.9701 529.138 89.5968 534.671 89.6075L534.674 88.3451C529.383 88.3348 525.656 86.789 523.34 83.8286L522.345 84.6066ZM534.671 89.6075C540.207 89.6183 544.421 88.0074 547.177 84.6656L546.203 83.8624C543.76 86.8247 539.963 88.3554 534.674 88.3451L534.671 89.6075ZM547.184 84.6572C549.897 81.2495 551.226 76.7017 551.237 71.0805L549.974 71.078C549.964 76.5068 548.682 80.7488 546.196 83.8708L547.184 84.6572ZM551.237 71.0805L551.368 3.59695L550.106 3.59449L549.974 71.078L551.237 71.0805ZM550.736 4.22694L588.114 4.29963L588.116 3.03718L550.738 2.9645L550.736 4.22694ZM587.484 3.66718L587.353 71.1507L588.615 71.1532L588.746 3.66964L587.484 3.66718ZM587.353 71.1507C587.331 82.4508 584.963 92.0847 580.279 100.079L581.368 100.717C586.187 92.493 588.593 82.6295 588.615 71.1532L587.353 71.1507ZM580.281 100.076C575.591 107.968 569.187 113.902 561.06 117.891L561.616 119.024C569.967 114.926 576.553 108.821 581.366 100.72L580.281 100.076ZM561.06 117.891C552.917 121.887 543.82 123.881 533.759 123.861L533.757 125.124C543.991 125.143 553.281 123.114 561.616 119.024L561.06 117.891ZM533.759 123.861C523.697 123.842 514.782 121.812 506.998 117.79L506.419 118.912C514.405 123.039 523.523 125.104 533.757 125.124L533.759 123.861ZM507.002 117.792C499.344 113.778 493.356 107.825 489.031 99.9155L487.924 100.521C492.363 108.64 498.528 114.775 506.415 118.91L507.002 117.792ZM489.031 99.9155C484.712 92.0158 482.547 82.3687 482.569 70.947L481.307 70.9445C481.285 82.5247 483.479 92.3927 487.924 100.521L489.031 99.9155ZM482.569 70.947L482.701 3.46342L481.438 3.46096L481.307 70.9445L482.569 70.947ZM482.068 4.09341L519.446 4.16609L519.449 2.90365L482.071 2.83096L482.068 4.09341ZM607.976 31.783L607.417 31.4888L607.414 31.4941L607.976 31.783ZM628.652 10.3434L628.963 10.8925L628.968 10.8895L628.652 10.3434ZM687.851 8.59806L687.574 9.16531L687.584 9.16975L687.851 8.59806ZM707.777 25.0427L707.263 25.4086L707.266 25.4139L707.777 25.0427ZM718.046 49.9251L718.044 50.5563L718.798 50.5578L718.667 49.8153L718.046 49.9251ZM678.469 49.8481L677.894 50.1094L678.062 50.4786L678.468 50.4793L678.469 49.8481ZM670.706 40.6999L670.347 41.2188L670.357 41.2258L670.368 41.2325L670.706 40.6999ZM644.315 44.3695L643.819 43.9785L643.813 43.9859L644.315 44.3695ZM644.24 82.5932L643.737 82.9749L643.743 82.9822L644.24 82.5932ZM670.617 86.5346L670.962 87.0632L670.966 87.0605L670.617 86.5346ZM678.415 77.2475L678.417 76.6162L678.011 76.6154L677.842 76.9839L678.415 77.2475ZM717.992 77.3244L718.614 77.4366L718.747 76.6947L717.994 76.6932L717.992 77.3244ZM707.627 102.167L707.118 101.793L707.114 101.799L707.627 102.167ZM687.637 118.703L687.906 119.274L687.909 119.273L687.637 118.703ZM628.445 116.727L628.126 117.272L628.131 117.275L628.445 116.727ZM607.853 95.0383L607.29 95.3249L607.293 95.3303L607.853 95.0383ZM601.442 63.398C601.465 51.6448 603.835 41.2078 608.537 32.0718L607.414 31.4941C602.609 40.8315 600.203 51.4704 600.179 63.3956L601.442 63.398ZM608.534 32.0772C613.345 22.9456 620.153 15.8884 628.963 10.8925L628.34 9.7943C619.316 14.9117 612.339 22.1476 607.417 31.4888L608.534 32.0772ZM628.968 10.8895C637.774 5.78498 648.152 3.23245 660.124 3.25573L660.126 1.99329C647.969 1.96965 637.365 4.56304 628.335 9.79729L628.968 10.8895ZM660.124 3.25573C670.416 3.27574 679.561 5.25084 687.574 9.16523L688.128 8.0309C679.92 4.02089 670.581 2.01362 660.126 1.99329L660.124 3.25573ZM687.584 9.16975C695.713 12.9752 702.268 18.3875 707.263 25.4085L708.291 24.6768C703.165 17.471 696.437 11.9203 688.119 8.02638L687.584 9.16975ZM707.266 25.4139C712.378 32.4428 715.766 40.6456 717.424 50.0348L718.667 49.8153C716.979 40.2552 713.522 31.8697 708.287 24.6714L707.266 25.4139ZM718.047 49.2939L678.47 49.2169L678.468 50.4793L718.044 50.5563L718.047 49.2939ZM679.043 49.5868C677.201 45.5352 674.536 42.3874 671.045 40.1673L670.368 41.2325C673.634 43.3102 676.144 46.2612 677.894 50.1094L679.043 49.5868ZM671.066 40.1809C667.687 37.8408 663.785 36.6725 659.382 36.664L659.38 37.9264C663.547 37.9345 667.195 39.036 670.347 41.2188L671.066 40.1809ZM659.382 36.664C652.885 36.6513 647.676 39.0896 643.819 43.9785L644.81 44.7604C648.414 40.1924 653.249 37.9145 659.38 37.9264L659.382 36.664ZM643.813 43.9859C640.087 48.8568 638.25 55.3731 638.234 63.4696L639.497 63.472C639.512 55.5574 641.307 49.3395 644.816 44.753L643.813 43.9859ZM638.234 63.4696C638.218 71.5661 640.03 78.0895 643.738 82.9748L644.743 82.2117C641.252 77.6115 639.481 71.3867 639.497 63.472L638.234 63.4696ZM643.743 82.9822C647.581 87.8861 652.781 90.3446 659.278 90.3573L659.28 89.0948C653.149 89.0829 648.323 86.7862 644.737 82.2042L643.743 82.9822ZM659.278 90.3573C663.673 90.3658 667.575 89.2728 670.962 87.0632L670.272 86.0059C667.111 88.0683 663.455 89.1029 659.28 89.0948L659.278 90.3573ZM670.966 87.0605C674.458 84.7426 677.132 81.553 678.989 77.511L677.842 76.9839C676.076 80.8277 673.551 83.8295 670.268 86.0087L670.966 87.0605ZM678.414 77.8787L717.991 77.9556L717.994 76.6932L678.417 76.6162L678.414 77.8787ZM717.371 77.2122C715.677 86.5949 712.257 94.7845 707.118 101.793L708.136 102.54C713.398 95.3621 716.888 86.9901 718.614 77.4366L717.371 77.2122ZM707.114 101.799C702.091 108.802 695.513 114.246 687.365 118.133L687.909 119.273C696.239 115.298 702.987 109.719 708.14 102.535L707.114 101.799ZM687.369 118.132C679.34 121.904 670.184 123.788 659.89 123.768L659.887 125.031C670.339 125.051 679.683 123.137 687.906 119.274L687.369 118.132ZM659.89 123.768C647.915 123.745 637.545 121.207 628.758 116.179L628.131 117.275C637.14 122.43 647.732 125.007 659.887 125.031L659.89 123.768ZM628.763 116.182C619.97 111.039 613.189 103.898 608.412 94.7462L607.293 95.3303C612.178 104.689 619.125 112.007 628.126 117.272L628.763 116.182ZM608.415 94.7516C603.749 85.5974 601.419 75.1513 601.442 63.398L600.179 63.3956C600.156 75.3208 602.521 85.969 607.29 95.3249L608.415 94.7516ZM825.691 4.13041L826.322 4.13164L826.323 3.50041L825.692 3.49918L825.691 4.13041ZM825.633 33.8976L825.632 34.5288L826.263 34.53L826.264 33.8988L825.633 33.8976ZM793.836 33.8358L793.838 33.2045L793.206 33.2033L793.205 33.8345L793.836 33.8358ZM793.661 123.814L793.66 124.445L794.291 124.446L794.293 123.815L793.661 123.814ZM756.114 123.741L755.483 123.74L755.482 124.371L756.113 124.372L756.114 123.741ZM756.289 33.7627L756.92 33.764L756.922 33.1327L756.29 33.1315L756.289 33.7627ZM724.831 33.7016L724.199 33.7003L724.198 34.3316L724.829 34.3328L724.831 33.7016ZM724.888 3.93438L724.89 3.30316L724.258 3.30193L724.257 3.93316L724.888 3.93438ZM825.06 4.12918L825.002 33.8964L826.264 33.8988L826.322 4.13164L825.06 4.12918ZM825.634 33.2664L793.838 33.2045L793.835 34.467L825.632 34.5288L825.634 33.2664ZM793.205 33.8345L793.03 123.813L794.293 123.815L794.468 33.837L793.205 33.8345ZM793.663 123.183L756.115 123.11L756.113 124.372L793.66 124.445L793.663 123.183ZM756.745 123.742L756.92 33.764L755.658 33.7615L755.483 123.74L756.745 123.742ZM756.29 33.1315L724.832 33.0703L724.829 34.3328L756.288 34.394L756.29 33.1315ZM725.462 33.7028L725.52 3.93561L724.257 3.93316L724.199 33.7003L725.462 33.7028ZM724.887 4.5656L825.69 4.76163L825.692 3.49918L724.89 3.30316L724.887 4.5656ZM846.991 115.123L846.617 115.631L846.624 115.636L846.991 115.123ZM831.995 85.4953L831.997 84.8641L831.326 84.8628L831.365 85.5325L831.995 85.4953ZM871.911 85.573L872.54 85.5226L872.493 84.9429L871.912 84.9417L871.911 85.573ZM886.1 94.5646L886.449 95.0905L886.458 95.0843L886.1 94.5646ZM883.754 83.2281L883.432 83.7705L883.439 83.775L883.447 83.7793L883.754 83.2281ZM869.559 77.1118L869.348 77.7066L869.349 77.707L869.559 77.1118ZM850.463 69.1254L850.169 69.6843L850.174 69.6869L850.463 69.1254ZM837.631 57.7686L838.142 57.3983L837.631 57.7686ZM832.425 38.6465L833.056 38.6569L833.056 38.6477L832.425 38.6465ZM838.383 18.8696L837.875 18.4949L837.874 18.4967L838.383 18.8696ZM854.813 6.38575L854.578 5.79986L854.575 5.80121L854.813 6.38575ZM913.152 12.4188L912.76 12.9135L912.763 12.916L913.152 12.4188ZM926.796 41.0287L926.795 41.66L927.45 41.6612L927.427 41.0068L926.796 41.0287ZM886.374 40.9501L885.743 40.9699L885.762 41.5802L886.372 41.5814L886.374 40.9501ZM874.211 33.1464L874.657 33.5936L874.668 33.5819L874.68 33.5696L874.211 33.1464ZM877.065 44.3147L876.733 44.8516L876.745 44.859L876.757 44.8659L877.065 44.3147ZM891.429 50.6005L891.204 51.1903L891.207 51.1915L891.429 50.6005ZM910.017 58.755L909.719 59.3111L909.724 59.3138L910.017 58.755ZM922.85 69.6044L922.352 69.9918L922.85 69.6044ZM922.778 106.813L923.312 107.15L923.315 107.145L922.778 106.813ZM907.022 120.313L906.753 119.743L907.022 120.313ZM882.49 124.539C868.269 124.512 856.572 121.186 847.357 114.609L846.624 115.636C856.1 122.4 868.069 125.774 882.488 125.802L882.49 124.539ZM847.364 114.614C838.304 107.958 833.38 98.2672 832.626 85.4582L831.365 85.5325C832.139 98.6601 837.211 108.721 846.617 115.631L847.364 114.614ZM831.994 86.1266L871.909 86.2042L871.912 84.9417L831.997 84.8641L831.994 86.1266ZM871.281 85.6233C871.562 89.1339 872.484 91.8687 874.128 93.7335C875.791 95.6189 878.119 96.5333 881.022 96.539L881.025 95.2765C878.403 95.2714 876.45 94.458 875.075 92.8985C873.682 91.3183 872.809 88.8911 872.54 85.5226L871.281 85.6233ZM881.022 96.539C883.146 96.5431 884.968 96.0741 886.449 95.0905L885.751 94.0387C884.523 94.8538 882.961 95.2803 881.025 95.2765L881.022 96.539ZM886.458 95.0843C888.122 93.937 888.935 92.207 888.939 90.0035L887.677 90.0011C887.673 91.8567 887.013 93.1682 885.742 94.0449L886.458 95.0843ZM888.939 90.0035C888.945 86.8982 887.248 84.4549 884.062 82.677L883.447 83.7793C886.343 85.3958 887.681 87.4687 887.677 90.0011L888.939 90.0035ZM884.077 82.6857C880.981 80.8431 876.202 78.7878 869.769 76.5165L869.349 77.707C875.761 79.9709 880.446 81.9932 883.432 83.7705L884.077 82.6857ZM869.77 76.5169C862.125 73.8017 855.787 71.1502 850.751 68.5639L850.174 69.6869C855.276 72.3071 861.67 74.9798 869.348 77.7066L869.77 76.5169ZM850.756 68.5666C845.894 66.013 841.689 62.2954 838.142 57.3983L837.12 58.1389C840.77 63.1782 845.119 67.0318 850.169 69.6842L850.756 68.5666ZM838.142 57.3983C834.643 52.5673 832.93 46.3372 833.056 38.6569L831.794 38.6361C831.664 46.5155 833.422 53.0334 837.12 58.1389L838.142 57.3983ZM833.056 38.6477C833.071 30.979 835.026 24.5224 838.892 19.2425L837.874 18.4967C833.825 24.0258 831.809 30.7539 831.794 38.6453L833.056 38.6477ZM838.891 19.2443C842.886 13.8285 848.266 9.7358 855.051 6.97029L854.575 5.80121C847.593 8.64669 842.019 12.8766 837.875 18.4949L838.891 19.2443ZM855.048 6.97163C861.959 4.20068 869.716 2.81765 878.329 2.8344L878.332 1.57196C869.581 1.55494 861.66 2.96029 854.578 5.79988L855.048 6.97163ZM878.329 2.8344C892.894 2.86272 904.348 6.24575 912.76 12.9135L913.544 11.9242C904.844 5.02805 893.083 1.60064 878.332 1.57196L878.329 2.8344ZM912.763 12.916C921.267 19.5689 925.744 28.9213 926.165 41.0507L927.427 41.0068C926.994 28.554 922.375 18.8331 913.541 11.9217L912.763 12.916ZM926.797 40.3975L886.375 40.3189L886.372 41.5814L926.795 41.66L926.797 40.3975ZM887.004 40.9303C886.896 37.4726 886.034 34.8453 884.281 33.2108L883.42 34.1343C884.818 35.4375 885.639 37.662 885.743 40.9699L887.004 40.9303ZM884.281 33.2108C882.583 31.6278 880.512 30.8361 878.106 30.8314L878.103 32.0939C880.207 32.0979 881.967 32.7795 883.42 34.1343L884.281 33.2108ZM878.106 30.8314C876.356 30.828 874.885 31.4589 873.743 32.7232L874.68 33.5696C875.571 32.5828 876.695 32.0911 878.103 32.0939L878.106 30.8314ZM873.766 32.6992C872.595 33.8656 872.053 35.5134 872.049 37.5396L873.312 37.5421C873.315 35.7347 873.794 34.4528 874.657 33.5936L873.766 32.6992ZM872.049 37.5396C872.043 40.5254 873.676 42.9625 876.733 44.8516L877.397 43.7777C874.597 42.0474 873.307 39.9685 873.312 37.5421L872.049 37.5396ZM876.757 44.8659C879.84 46.5862 884.663 48.6946 891.204 51.1903L891.654 50.0108C885.125 47.5198 880.372 45.4376 877.372 43.7635L876.757 44.8659ZM891.207 51.1915C898.741 54.0192 904.909 56.7262 909.719 59.311L910.316 58.199C905.439 55.5783 899.215 52.8489 891.651 50.0095L891.207 51.1915ZM909.724 59.3138C914.597 61.873 918.806 65.4295 922.352 69.9918L923.349 69.217C919.697 64.5194 915.351 60.843 910.311 58.1962L909.724 59.3138ZM922.352 69.9918C925.849 74.4904 927.611 80.1563 927.598 87.0343L928.86 87.0368C928.874 79.9332 927.05 73.9783 923.349 69.217L922.352 69.9918ZM927.598 87.0343C927.584 94.2544 925.795 100.731 922.241 106.482L923.315 107.145C927 101.183 928.845 94.4748 928.86 87.0368L927.598 87.0343ZM922.244 106.477C918.696 112.107 913.542 116.531 906.753 119.743L907.292 120.884C914.272 117.583 919.621 113.007 923.312 107.15L922.244 106.477ZM906.753 119.743C899.971 122.951 891.89 124.558 882.49 124.539L882.488 125.802C892.03 125.82 900.305 124.189 907.292 120.884L906.753 119.743Z" fill="#A1A1A1"/>
</svg>
