<svg width="738" height="126" viewBox="0 0 738 126" fill="none" xmlns="http://www.w3.org/2000/svg">
<path d="M-420.184 2.63425L-419.552 2.63548L-419.551 2.00426L-420.182 2.00303L-420.184 2.63425ZM-420.242 32.4013L-420.243 33.0326L-419.612 33.0338L-419.61 32.4026L-420.242 32.4013ZM-452.038 32.3395L-452.037 31.7083L-452.668 31.7071L-452.669 32.3383L-452.038 32.3395ZM-452.213 122.317L-452.214 122.949L-451.583 122.95L-451.582 122.319L-452.213 122.317ZM-489.76 122.244L-490.392 122.243L-490.393 122.874L-489.762 122.876L-489.76 122.244ZM-489.585 32.2665L-488.954 32.2677L-488.953 31.6365L-489.584 31.6353L-489.585 32.2665ZM-521.044 32.2053L-521.675 32.2041L-521.676 32.8353L-521.045 32.8365L-521.044 32.2053ZM-520.986 2.43823L-520.985 1.807L-521.616 1.80578L-521.617 2.437L-520.986 2.43823ZM-420.815 2.63303L-420.873 32.4001L-419.61 32.4026L-419.552 2.63548L-420.815 2.63303ZM-420.24 31.7701L-452.037 31.7083L-452.039 32.9707L-420.243 33.0326L-420.24 31.7701ZM-452.669 32.3383L-452.844 122.316L-451.582 122.319L-451.407 32.3407L-452.669 32.3383ZM-452.212 121.686L-489.759 121.613L-489.762 122.876L-452.214 122.949L-452.212 121.686ZM-489.129 122.246L-488.954 32.2677L-490.217 32.2653L-490.392 122.243L-489.129 122.246ZM-489.584 31.6353L-521.042 31.5741L-521.045 32.8365L-489.587 32.8977L-489.584 31.6353ZM-520.413 32.2065L-520.355 2.43946L-521.617 2.437L-521.675 32.2041L-520.413 32.2065ZM-520.987 3.06945L-420.185 3.26547L-420.182 2.00303L-520.985 1.807L-520.987 3.06945ZM-372.511 32.6633L-372.51 32.0321L-373.141 32.0308L-373.142 32.6621L-372.511 32.6633ZM-372.54 47.3777L-373.171 47.3765L-373.172 48.0077L-372.541 48.0089L-372.54 47.3777ZM-335.331 47.4501L-334.7 47.4513L-334.699 46.8201L-335.33 46.8188L-335.331 47.4501ZM-335.386 75.695L-335.387 76.3262L-334.756 76.3274L-334.755 75.6962L-335.386 75.695ZM-372.595 75.6226L-372.594 74.9914L-373.225 74.9902L-373.226 75.6214L-372.595 75.6226ZM-372.628 92.5357L-373.259 92.5345L-373.26 93.1657L-372.629 93.1669L-372.628 92.5357ZM-330.345 92.6179L-329.714 92.6192L-329.712 91.988L-330.344 91.9867L-330.345 92.6179ZM-330.403 122.554L-330.404 123.185L-329.773 123.187L-329.772 122.555L-330.403 122.554ZM-410.233 122.399L-410.864 122.398L-410.865 123.029L-410.234 123.03L-410.233 122.399ZM-410 2.65406L-409.999 2.02283L-410.63 2.0216L-410.631 2.65283L-410 2.65406ZM-330.17 2.8093L-329.539 2.81052L-329.538 2.1793L-330.169 2.17807L-330.17 2.8093ZM-330.228 32.7455L-330.23 33.3767L-329.598 33.378L-329.597 32.7467L-330.228 32.7455ZM-373.142 32.6621L-373.171 47.3765L-371.909 47.3789L-371.88 32.6645L-373.142 32.6621ZM-372.541 48.0089L-335.332 48.0813L-335.33 46.8188L-372.539 46.7465L-372.541 48.0089ZM-335.962 47.4488L-336.017 75.6937L-334.755 75.6962L-334.7 47.4513L-335.962 47.4488ZM-335.385 75.0637L-372.594 74.9914L-372.596 76.2538L-335.387 76.3262L-335.385 75.0637ZM-373.226 75.6214L-373.259 92.5345L-371.996 92.537L-371.964 75.6238L-373.226 75.6214ZM-372.629 93.1669L-330.346 93.2492L-330.344 91.9867L-372.626 91.9045L-372.629 93.1669ZM-330.976 92.6167L-331.034 122.553L-329.772 122.555L-329.714 92.6192L-330.976 92.6167ZM-330.402 121.923L-410.232 121.768L-410.234 123.03L-330.404 123.185L-330.402 121.923ZM-409.602 122.4L-409.369 2.65528L-410.631 2.65283L-410.864 122.398L-409.602 122.4ZM-410.001 3.28527L-330.171 3.44051L-330.169 2.17807L-409.999 2.02283L-410.001 3.28527ZM-330.801 2.80807L-330.86 32.7443L-329.597 32.7467L-329.539 2.81052L-330.801 2.80807ZM-330.227 32.1143L-372.51 32.0321L-372.512 33.2945L-330.23 33.3767L-330.227 32.1143ZM-304.904 113.809L-305.278 114.318L-305.271 114.323L-304.904 113.809ZM-319.899 84.1817L-319.898 83.5504L-320.569 83.5491L-320.529 84.2188L-319.899 84.1817ZM-279.984 84.2593L-279.355 84.209L-279.401 83.6292L-279.983 83.6281L-279.984 84.2593ZM-265.795 93.2509L-265.445 93.7768L-265.436 93.7706L-265.795 93.2509ZM-268.14 81.9145L-268.463 82.4569L-268.456 82.4614L-268.448 82.4657L-268.14 81.9145ZM-282.336 75.7981L-282.547 76.393L-282.546 76.3933L-282.336 75.7981ZM-301.432 67.8118L-301.725 68.3707L-301.72 68.3733L-301.432 67.8118ZM-314.264 56.455L-313.753 56.0847L-314.264 56.455ZM-319.47 37.333L-318.839 37.3434L-318.838 37.3342L-319.47 37.333ZM-313.512 17.5562L-314.02 17.1814L-314.021 17.1833L-313.512 17.5562ZM-297.082 5.07235L-297.317 4.48645L-297.32 4.48781L-297.082 5.07235ZM-238.743 11.1054L-239.135 11.6001L-239.132 11.6026L-238.743 11.1054ZM-225.099 39.7152L-225.1 40.3464L-224.445 40.3477L-224.468 39.6933L-225.099 39.7152ZM-265.521 39.6366L-266.152 39.6564L-266.133 40.2667L-265.522 40.2678L-265.521 39.6366ZM-277.683 31.8329L-277.238 32.2801L-277.226 32.2684L-277.215 32.2561L-277.683 31.8329ZM-274.83 43.0011L-275.162 43.5381L-275.15 43.5455L-275.138 43.5523L-274.83 43.0011ZM-260.466 49.287L-260.691 49.8767L-260.688 49.8779L-260.466 49.287ZM-241.877 57.4414L-242.176 57.9975L-242.171 58.0003L-241.877 57.4414ZM-229.044 68.2908L-229.543 68.6782L-229.044 68.2908ZM-229.117 105.5L-228.583 105.836L-228.58 105.832L-229.117 105.5ZM-244.872 119L-245.142 118.429L-244.872 119ZM-269.405 123.225C-283.626 123.198 -295.322 119.873 -304.537 113.295L-305.271 114.323C-295.794 121.087 -283.825 124.46 -269.407 124.488L-269.405 123.225ZM-304.53 113.3C-313.59 106.644 -318.514 96.9535 -319.269 84.1446L-320.529 84.2188C-319.756 97.3464 -314.683 107.407 -305.278 114.318L-304.53 113.3ZM-319.9 84.8129L-279.985 84.8905L-279.983 83.6281L-319.898 83.5504L-319.9 84.8129ZM-280.613 84.3096C-280.332 87.8203 -279.411 90.5551 -277.767 92.4198C-276.104 94.3052 -273.776 95.2196 -270.872 95.2253L-270.87 93.9628C-273.492 93.9577 -275.444 93.1443 -276.82 91.5848C-278.213 90.0046 -279.085 87.5774 -279.355 84.209L-280.613 84.3096ZM-270.872 95.2253C-268.749 95.2294 -266.927 94.7604 -265.445 93.7768L-266.144 92.725C-267.372 93.5401 -268.934 93.9666 -270.87 93.9628L-270.872 95.2253ZM-265.436 93.7706C-263.772 92.6234 -262.96 90.8933 -262.956 88.6898L-264.218 88.6874C-264.222 90.5431 -264.881 91.8545 -266.153 92.7312L-265.436 93.7706ZM-262.956 88.6898C-262.95 85.5845 -264.647 83.1412 -267.833 81.3633L-268.448 82.4657C-265.552 84.0822 -264.213 86.155 -264.218 88.6874L-262.956 88.6898ZM-267.817 81.3721C-270.913 79.5294 -275.692 77.4741 -282.125 75.2029L-282.546 76.3933C-276.133 78.6573 -271.449 80.6796 -268.463 82.4569L-267.817 81.3721ZM-282.124 75.2033C-289.77 72.4881 -296.108 69.8366 -301.144 67.2503L-301.72 68.3733C-296.618 70.9934 -290.225 73.6662 -282.547 76.393L-282.124 75.2033ZM-301.138 67.253C-306 64.6994 -310.206 60.9818 -313.753 56.0847L-314.775 56.8253C-311.125 61.8646 -306.776 65.7182 -301.725 68.3706L-301.138 67.253ZM-313.753 56.0847C-317.252 51.2537 -318.965 45.0237 -318.839 37.3434L-320.101 37.3226C-320.23 45.2019 -318.473 51.7199 -314.775 56.8253L-313.753 56.0847ZM-318.838 37.3342C-318.824 29.6655 -316.868 23.209 -313.002 17.929L-314.021 17.1833C-318.069 22.7124 -320.086 29.4404 -320.101 37.3318L-318.838 37.3342ZM-313.004 17.9309C-309.008 12.5151 -303.629 8.42238 -296.843 5.65689L-297.32 4.48781C-304.301 7.33327 -309.875 11.5631 -314.02 17.1814L-313.004 17.9309ZM-296.847 5.65822C-289.936 2.88729 -282.179 1.50426 -273.565 1.52101L-273.563 0.258567C-282.314 0.24155 -290.235 1.6469 -297.316 4.48647L-296.847 5.65822ZM-273.565 1.52101C-259.001 1.54933 -247.547 4.93235 -239.135 11.6001L-238.351 10.6107C-247.051 3.71466 -258.811 0.287254 -273.563 0.258567L-273.565 1.52101ZM-239.132 11.6026C-230.628 18.2554 -226.151 27.6078 -225.73 39.7371L-224.468 39.6933C-224.901 27.2405 -229.52 17.5197 -238.354 10.6083L-239.132 11.6026ZM-225.098 39.084L-265.52 39.0054L-265.522 40.2678L-225.1 40.3464L-225.098 39.084ZM-264.89 39.6168C-264.999 36.1591 -265.86 33.5318 -267.614 31.8973L-268.474 32.8208C-267.076 34.124 -266.256 36.3485 -266.152 39.6564L-264.89 39.6168ZM-267.614 31.8973C-269.312 30.3143 -271.383 29.5226 -273.789 29.5179L-273.791 30.7804C-271.687 30.7845 -269.928 31.466 -268.474 32.8208L-267.614 31.8973ZM-273.789 29.5179C-275.538 29.5145 -277.009 30.1454 -278.152 31.4097L-277.215 32.2561C-276.324 31.2693 -275.199 30.7776 -273.791 30.7804L-273.789 29.5179ZM-278.129 31.3857C-279.3 32.5521 -279.841 34.1999 -279.845 36.2261L-278.583 36.2286C-278.579 34.4212 -278.101 33.1393 -277.238 32.2801L-278.129 31.3857ZM-279.845 36.2261C-279.851 39.2119 -278.218 41.6489 -275.162 43.5381L-274.498 42.4642C-277.298 40.7338 -278.588 38.655 -278.583 36.2286L-279.845 36.2261ZM-275.138 43.5523C-272.055 45.2727 -267.232 47.3811 -260.691 49.8767L-260.241 48.6972C-266.77 46.2062 -271.523 44.1241 -274.522 42.45L-275.138 43.5523ZM-260.688 49.8779C-253.154 52.7057 -246.986 55.4126 -242.176 57.9975L-241.578 56.8854C-246.455 54.2647 -252.68 51.5353 -260.244 48.696L-260.688 49.8779ZM-242.171 58.0003C-237.298 60.5594 -233.089 64.116 -229.543 68.6782L-228.546 67.9034C-232.198 63.2058 -236.544 59.5295 -241.584 56.8826L-242.171 58.0003ZM-229.543 68.6782C-226.046 73.1768 -224.284 78.8426 -224.297 85.7206L-223.035 85.7231C-223.021 78.6196 -224.845 72.6647 -228.546 67.9034L-229.543 68.6782ZM-224.297 85.7206C-224.311 92.9407 -226.1 99.4175 -229.654 105.168L-228.58 105.832C-224.895 99.8695 -223.049 93.1611 -223.035 85.7231L-224.297 85.7206ZM-229.651 105.163C-233.199 110.793 -238.353 115.217 -245.142 118.429L-244.602 119.57C-237.623 116.269 -232.274 111.693 -228.583 105.836L-229.651 105.163ZM-245.142 118.429C-251.924 121.637 -260.005 123.244 -269.405 123.225L-269.407 124.488C-259.864 124.506 -251.59 122.875 -244.602 119.57L-245.142 118.429ZM-116.276 3.22524L-115.645 3.22647L-115.644 2.59525L-116.275 2.59402L-116.276 3.22524ZM-116.334 32.9923L-116.335 33.6236L-115.704 33.6248L-115.703 32.9936L-116.334 32.9923ZM-148.131 32.9305L-148.129 32.2993L-148.761 32.298L-148.762 32.9293L-148.131 32.9305ZM-148.306 122.908L-148.307 123.54L-147.676 123.541L-147.674 122.91L-148.306 122.908ZM-185.853 122.835L-186.484 122.834L-186.485 123.465L-185.854 123.466L-185.853 122.835ZM-185.678 32.8575L-185.047 32.8587L-185.045 32.2275L-185.677 32.2263L-185.678 32.8575ZM-217.136 32.7963L-217.767 32.7951L-217.769 33.4263L-217.137 33.4275L-217.136 32.7963ZM-217.078 3.02922L-217.077 2.39799L-217.708 2.39677L-217.709 3.02799L-217.078 3.02922ZM-116.907 3.22402L-116.965 32.9911L-115.703 32.9936L-115.645 3.22647L-116.907 3.22402ZM-116.333 32.3611L-148.129 32.2993L-148.132 33.5617L-116.335 33.6236L-116.333 32.3611ZM-148.762 32.9293L-148.937 122.907L-147.674 122.91L-147.499 32.9317L-148.762 32.9293ZM-148.304 122.277L-185.852 122.204L-185.854 123.466L-148.307 123.54L-148.304 122.277ZM-185.222 122.836L-185.047 32.8587L-186.309 32.8563L-186.484 122.834L-185.222 122.836ZM-185.677 32.2263L-217.135 32.1651L-217.137 33.4275L-185.679 33.4887L-185.677 32.2263ZM-216.505 32.7975L-216.447 3.03045L-217.709 3.02799L-217.767 32.7951L-216.505 32.7975ZM-217.08 3.66044L-116.277 3.85646L-116.275 2.59402L-217.077 2.39799L-217.08 3.66044ZM-68.5454 3.31806L-67.9142 3.31929L-67.913 2.68806L-68.5442 2.68684L-68.5454 3.31806ZM-68.7782 123.063L-68.7795 123.694L-68.1483 123.695L-68.1471 123.064L-68.7782 123.063ZM-106.325 122.99L-106.957 122.989L-106.958 123.62L-106.327 123.621L-106.325 122.99ZM-106.093 3.24505L-106.091 2.61382L-106.723 2.61259L-106.724 3.24382L-106.093 3.24505ZM-69.1766 3.31683L-69.4095 123.062L-68.1471 123.064L-67.9142 3.31929L-69.1766 3.31683ZM-68.777 122.432L-106.324 122.359L-106.327 123.621L-68.7795 123.694L-68.777 122.432ZM-105.694 122.991L-105.461 3.24627L-106.724 3.24382L-106.957 122.989L-105.694 122.991ZM-106.094 3.87626L-68.5466 3.94928L-68.5442 2.68684L-106.091 2.61382L-106.094 3.87626ZM92.3433 3.63093L92.9745 3.63216L92.9757 3.00094L92.3445 2.99971L92.3433 3.63093ZM92.1104 123.376L92.1092 124.007L92.7404 124.008L92.7416 123.377L92.1104 123.376ZM54.7324 123.303L54.1012 123.302L54.0999 123.933L54.7312 123.934L54.7324 123.303ZM54.8485 63.5998L55.4797 63.601L54.2458 63.4124L54.8485 63.5998ZM36.2971 123.267L36.2959 123.898L36.7616 123.899L36.8999 123.455L36.2971 123.267ZM4.16217 123.205L3.55872 123.39L3.69524 123.835L4.16094 123.836L4.16217 123.205ZM-14.157 63.4656L-13.5535 63.2806L-14.7882 63.4644L-14.157 63.4656ZM-14.2731 123.169L-14.2743 123.8L-13.6431 123.801L-13.6419 123.17L-14.2731 123.169ZM-51.8202 123.096L-52.4515 123.095L-52.4527 123.726L-51.8215 123.727L-51.8202 123.096ZM-51.5874 3.35104L-51.5862 2.71981L-52.2174 2.71859L-52.2186 3.34981L-51.5874 3.35104ZM-5.58371 3.4405L-4.9907 3.22415L-5.14175 2.81013L-5.58248 2.80928L-5.58371 3.4405ZM20.661 75.3726L20.068 75.5889L20.6651 77.2254L21.2549 75.5863L20.661 75.3726ZM46.5087 3.5418L46.5099 2.91058L46.0653 2.90971L45.9148 3.32807L46.5087 3.5418ZM91.7121 3.6297L91.4792 123.375L92.7416 123.377L92.9745 3.63216L91.7121 3.6297ZM92.1117 122.745L54.7336 122.672L54.7312 123.934L92.1092 124.007L92.1117 122.745ZM55.3636 123.304L55.4797 63.601L54.2173 63.5986L54.1012 123.302L55.3636 123.304ZM54.2458 63.4124L35.6943 123.08L36.8999 123.455L55.4513 63.7872L54.2458 63.4124ZM36.2983 122.636L4.1634 122.574L4.16094 123.836L36.2959 123.898L36.2983 122.636ZM4.76568 123.02L-13.5535 63.2806L-14.7605 63.6507L3.55872 123.39L4.76568 123.02ZM-14.7882 63.4644L-14.9043 123.168L-13.6419 123.17L-13.5258 63.4669L-14.7882 63.4644ZM-14.2719 122.538L-51.819 122.465L-51.8215 123.727L-14.2743 123.8L-14.2719 122.538ZM-51.189 123.097L-50.9562 3.35227L-52.2186 3.34981L-52.4515 123.095L-51.189 123.097ZM-51.5886 3.98226L-5.58494 4.07172L-5.58248 2.80928L-51.5862 2.71981L-51.5886 3.98226ZM-6.17666 3.65685L20.068 75.5889L21.254 75.1562L-4.9907 3.22415L-6.17666 3.65685ZM21.2549 75.5863L47.1027 3.75553L45.9148 3.32807L20.067 75.1588L21.2549 75.5863ZM46.5075 4.17302L92.3421 4.26215L92.3445 2.99971L46.5099 2.91058L46.5075 4.17302ZM136.296 116.696L135.984 117.245L135.987 117.247L136.296 116.696ZM114.013 94.666L113.469 94.9858L114.013 94.666ZM136.504 9.63641L136.809 10.1891L136.811 10.1879L136.504 9.63641ZM198.575 9.75712L198.263 10.3058L198.268 10.3086L198.575 9.75712ZM220.689 31.6181L220.142 31.9331L220.145 31.938L220.689 31.6181ZM220.566 94.8732L220.023 94.5512L220.02 94.5561L220.566 94.8732ZM198.198 116.817L197.891 116.265L197.888 116.267L198.198 116.817ZM184.734 82.626L185.212 83.0378L185.217 83.0322L184.734 82.626ZM184.809 43.7259L184.325 44.1301L184.329 44.1357L184.809 43.7259ZM150.138 43.6584L150.616 44.0702L150.621 44.0646L150.138 43.6584ZM150.062 82.5586L149.577 82.9629L149.582 82.9685L150.062 82.5586ZM167.402 124.075C156.23 124.053 145.968 121.409 136.605 116.146L135.987 117.247C145.545 122.62 156.02 125.315 167.399 125.337L167.402 124.075ZM136.608 116.148C127.357 110.885 120.009 103.621 114.557 94.3461L113.469 94.9858C119.031 104.449 126.538 111.872 135.984 117.245L136.608 116.148ZM114.557 94.3461C109.112 85.0818 106.396 74.6463 106.419 63.0236L105.156 63.0211C105.133 74.8512 107.901 85.5115 113.469 94.9858L114.557 94.3461ZM106.419 63.0236C106.441 51.4008 109.198 40.976 114.679 31.7329L113.593 31.089C107.988 40.5416 105.179 51.191 105.156 63.0211L106.419 63.0236ZM114.679 31.7329C120.166 22.4802 127.54 15.3024 136.809 10.1891L136.199 9.08372C126.73 14.3074 119.193 21.646 113.593 31.089L114.679 31.7329ZM136.811 10.1879C146.195 4.96145 156.467 2.35726 167.638 2.37899L167.641 1.11655C156.262 1.09442 145.777 3.74934 136.197 9.08496L136.811 10.1879ZM167.638 2.37899C178.81 2.40072 189.014 5.04469 198.263 10.3058L198.887 9.20845C189.44 3.83427 179.02 1.13868 167.641 1.11655L167.638 2.37899ZM198.268 10.3086C207.516 15.4573 214.804 22.662 220.142 31.9331L221.236 31.3032C215.786 21.836 208.332 14.4668 198.882 9.20561L198.268 10.3086ZM220.145 31.938C225.59 41.2023 228.306 51.6378 228.284 63.2606L229.546 63.263C229.569 51.4329 226.802 40.7726 221.233 31.2983L220.145 31.938ZM228.284 63.2606C228.261 74.8833 225.504 85.3081 220.023 94.5512L221.109 95.1952C226.714 85.7426 229.523 75.0931 229.546 63.263L228.284 63.2606ZM220.02 94.5561C214.647 103.806 207.274 111.039 197.891 116.265L198.505 117.368C208.085 112.032 215.624 104.637 221.112 95.1903L220.02 94.5561ZM197.888 116.267C188.618 121.493 178.46 124.096 167.402 124.075L167.399 125.337C178.667 125.359 189.04 122.704 198.508 117.367L197.888 116.267ZM167.467 90.3272C175.054 90.342 181 87.9324 185.212 83.0378L184.255 82.2143C180.331 86.7752 174.766 89.079 167.47 89.0648L167.467 90.3272ZM185.217 83.0322C189.405 78.0492 191.476 71.4125 191.492 63.189L190.229 63.1866C190.214 71.1996 188.199 77.5218 184.251 82.2199L185.217 83.0322ZM191.492 63.189C191.508 54.8561 189.465 48.2065 185.289 43.316L184.329 44.1357C188.254 48.7323 190.245 55.0574 190.229 63.1866L191.492 63.189ZM185.294 43.3216C181.103 38.2958 175.165 35.8032 167.573 35.7884L167.571 37.0509C174.863 37.0651 180.416 39.4432 184.325 44.1301L185.294 43.3216ZM167.573 35.7884C159.872 35.7735 153.867 38.2406 149.654 43.2523L150.621 44.0646C154.545 39.3952 160.163 37.0365 167.571 37.0509L167.573 35.7884ZM149.659 43.2467C145.465 48.1209 143.396 54.7625 143.38 63.0954L144.642 63.0979C144.658 54.9687 146.674 48.6515 150.616 44.0701L149.659 43.2467ZM143.38 63.0954C143.364 71.319 145.408 77.9636 149.577 82.9629L150.547 82.1543C146.616 77.4409 144.627 71.1109 144.642 63.0979L143.38 63.0954ZM149.582 82.9685C153.777 87.8816 159.771 90.3122 167.467 90.3272L167.47 89.0648C160.057 89.0504 154.447 86.7227 150.542 82.1487L149.582 82.9685ZM357.183 123.891L357.181 124.522L357.813 124.524L357.814 123.893L357.183 123.891ZM319.635 123.818L319.108 124.165L319.295 124.449L319.634 124.449L319.635 123.818ZM280.007 63.5303L280.534 63.1835L279.38 61.427L279.375 63.529L280.007 63.5303ZM279.89 123.741L279.888 124.372L280.52 124.373L280.521 123.742L279.89 123.741ZM242.342 123.668L241.711 123.667L241.71 124.298L242.341 124.299L242.342 123.668ZM242.575 3.92308L242.577 3.29185L241.945 3.29063L241.944 3.92185L242.575 3.92308ZM280.122 3.99609L280.653 3.65342L280.466 3.36554L280.124 3.36487L280.122 3.99609ZM319.749 65.2989L319.219 65.6415L320.376 67.4317L320.38 65.3001L319.749 65.2989ZM319.868 4.07339L319.87 3.44216L319.238 3.44093L319.237 4.07216L319.868 4.07339ZM357.415 4.1464L358.047 4.14763L358.048 3.5164L357.417 3.51518L357.415 4.1464ZM357.184 123.26L319.637 123.187L319.634 124.449L357.181 124.522L357.184 123.26ZM320.163 123.472L280.534 63.1835L279.479 63.877L319.108 124.165L320.163 123.472ZM279.375 63.529L279.258 123.74L280.521 123.742L280.638 63.5315L279.375 63.529ZM279.891 123.11L242.344 123.037L242.341 124.299L279.888 124.372L279.891 123.11ZM242.974 123.669L243.207 3.92431L241.944 3.92185L241.711 123.667L242.974 123.669ZM242.574 4.5543L280.121 4.62731L280.124 3.36487L242.577 3.29185L242.574 4.5543ZM279.592 4.33876L319.219 65.6415L320.279 64.9562L280.653 3.65342L279.592 4.33876ZM320.38 65.3001L320.5 4.07461L319.237 4.07216L319.118 65.2976L320.38 65.3001ZM319.867 4.7046L357.414 4.77762L357.417 3.51518L319.87 3.44216L319.867 4.7046ZM356.784 4.14517L356.551 123.89L357.814 123.893L358.047 4.14763L356.784 4.14517ZM411.926 4.2524L412.557 4.25363L412.558 3.62241L411.927 3.62118L411.926 4.2524ZM411.693 123.997L411.692 124.629L412.323 124.63L412.324 123.999L411.693 123.997ZM374.146 123.924L373.515 123.923L373.513 124.554L374.145 124.555L374.146 123.924ZM374.379 4.17939L374.38 3.54816L373.749 3.54694L373.748 4.17816L374.379 4.17939ZM411.295 4.25118L411.062 123.996L412.324 123.999L412.557 4.25363L411.295 4.25118ZM411.694 123.366L374.147 123.293L374.145 124.555L411.692 124.629L411.694 123.366ZM374.777 123.925L375.01 4.18062L373.748 4.17816L373.515 123.923L374.777 123.925ZM374.378 4.81061L411.925 4.88362L411.927 3.62118L374.38 3.54816L374.378 4.81061ZM505.472 106.083L506.072 105.887L505.931 105.452L505.473 105.451L505.472 106.083ZM465.557 106.005L465.558 105.374L465.1 105.373L464.957 105.808L465.557 106.005ZM459.602 124.09L459.601 124.722L460.059 124.723L460.202 124.288L459.602 124.09ZM420.195 124.014L419.602 123.796L419.29 124.643L420.193 124.645L420.195 124.014ZM464.232 4.35412L464.234 3.7229L463.792 3.72204L463.64 4.13611L464.232 4.35412ZM507.53 4.43832L508.123 4.22336L507.973 3.80795L507.531 3.8071L507.53 4.43832ZM550.933 124.268L550.932 124.899L551.834 124.901L551.526 124.053L550.933 124.268ZM511.356 124.191L510.756 124.386L510.897 124.821L511.355 124.822L511.356 124.191ZM496.394 77.8199L496.392 78.4511L497.261 78.4528L496.994 77.626L496.394 77.8199ZM485.634 44.48L486.235 44.2861L485.638 42.437L485.034 44.2838L485.634 44.48ZM474.745 77.7778L474.145 77.5816L473.875 78.4073L474.744 78.409L474.745 77.7778ZM505.473 105.451L465.558 105.374L465.556 106.636L505.471 106.714L505.473 105.451ZM464.957 105.808L459.003 123.893L460.202 124.288L466.156 106.202L464.957 105.808ZM459.603 123.459L420.196 123.383L420.193 124.645L459.601 124.722L459.603 123.459ZM420.787 124.232L464.825 4.57213L463.64 4.13611L419.602 123.796L420.787 124.232ZM464.231 4.98534L507.529 5.06954L507.531 3.8071L464.234 3.7229L464.231 4.98534ZM506.936 4.65328L550.339 124.483L551.526 124.053L508.123 4.22336L506.936 4.65328ZM550.934 123.637L511.357 123.56L511.355 124.822L550.932 124.899L550.934 123.637ZM511.957 123.996L506.072 105.887L504.871 106.278L510.756 124.386L511.957 123.996ZM496.994 77.626L486.235 44.2861L485.033 44.6738L495.793 78.0137L496.994 77.626ZM485.034 44.2838L474.145 77.5816L475.345 77.974L486.234 44.6762L485.034 44.2838ZM474.744 78.409L496.392 78.4511L496.395 77.1887L474.746 77.1466L474.744 78.409ZM597.066 95.9436L596.435 95.9424L596.433 96.5736L597.065 96.5748L597.066 95.9436ZM633.26 96.014L633.891 96.0152L633.892 95.384L633.261 95.3828L633.26 96.014ZM633.205 124.428L633.203 125.059L633.835 125.06L633.836 124.429L633.205 124.428ZM559.463 124.285L558.832 124.283L558.831 124.915L559.462 124.916L559.463 124.285ZM559.696 4.53976L559.698 3.90854L559.066 3.90731L559.065 4.53854L559.696 4.53976ZM597.243 4.61278L597.875 4.61401L597.876 3.98278L597.245 3.98156L597.243 4.61278ZM597.065 96.5748L633.259 96.6452L633.261 95.3828L597.067 95.3124L597.065 96.5748ZM632.629 96.0128L632.573 124.427L633.836 124.429L633.891 96.0152L632.629 96.0128ZM633.206 123.797L559.465 123.653L559.462 124.916L633.203 125.059L633.206 123.797ZM560.095 124.286L560.328 4.54099L559.065 4.53854L558.832 124.283L560.095 124.286ZM559.695 5.17098L597.242 5.244L597.245 3.98156L559.698 3.90854L559.695 5.17098ZM596.612 4.61155L596.435 95.9424L597.697 95.9448L597.875 4.61401L596.612 4.61155ZM656.369 115.678L655.995 116.187L656.002 116.192L656.369 115.678ZM641.374 86.051L641.375 85.4198L640.704 85.4185L640.744 86.0881L641.374 86.051ZM681.289 86.1286L681.918 86.0783L681.872 85.4985L681.29 85.4974L681.289 86.1286ZM695.478 95.1202L695.828 95.6462L695.837 95.6399L695.478 95.1202ZM693.133 83.7838L692.81 84.3262L692.817 84.3307L692.825 84.335L693.133 83.7838ZM678.937 77.6675L678.726 78.2623L678.727 78.2627L678.937 77.6675ZM659.841 69.6811L659.547 70.24L659.553 70.2426L659.841 69.6811ZM647.009 58.3243L647.52 57.9541L647.009 58.3243ZM641.803 39.2023L642.434 39.2127L642.434 39.2035L641.803 39.2023ZM647.761 19.4255L647.253 19.0508L647.252 19.0526L647.761 19.4255ZM664.191 6.94167L663.956 6.35578L663.953 6.35713L664.191 6.94167ZM722.53 12.9747L722.138 13.4694L722.141 13.4719L722.53 12.9747ZM736.174 41.5845L736.173 42.2158L736.828 42.217L736.805 41.5626L736.174 41.5845ZM695.752 41.5059L695.121 41.5257L695.14 42.136L695.75 42.1372L695.752 41.5059ZM683.59 33.7022L684.035 34.1494L684.047 34.1377L684.058 34.1254L683.59 33.7022ZM686.443 44.8705L686.111 45.4074L686.123 45.4148L686.135 45.4217L686.443 44.8705ZM700.807 51.1563L700.582 51.7461L700.585 51.7472L700.807 51.1563ZM719.396 59.3108L719.097 59.8668L719.102 59.8696L719.396 59.3108ZM732.229 70.1602L731.73 70.5476L732.229 70.1602ZM732.156 107.369L732.69 107.706L732.693 107.701L732.156 107.369ZM716.401 120.869L716.131 120.298L716.401 120.869ZM691.868 125.095C677.647 125.067 665.951 121.742 656.736 115.164L656.002 116.192C665.478 122.956 677.448 126.329 691.866 126.357L691.868 125.095ZM656.743 115.17C647.683 108.513 642.759 98.8228 642.004 86.0139L640.744 86.0881C641.517 99.2157 646.59 109.277 655.995 116.187L656.743 115.17ZM641.373 86.6822L681.288 86.7598L681.29 85.4974L641.375 85.4198L641.373 86.6822ZM680.66 86.179C680.94 89.6896 681.862 92.4244 683.506 94.2891C685.169 96.1745 687.497 97.089 690.401 97.0946L690.403 95.8322C687.781 95.8271 685.828 95.0137 684.453 93.4542C683.06 91.874 682.188 89.4467 681.918 86.0783L680.66 86.179ZM690.401 97.0946C692.524 97.0987 694.346 96.6298 695.827 95.6461L695.129 94.5943C693.901 95.4095 692.339 95.8359 690.403 95.8322L690.401 97.0946ZM695.837 95.6399C697.501 94.4927 698.313 92.7626 698.317 90.5592L697.055 90.5567C697.051 92.4124 696.392 93.7238 695.12 94.6005L695.837 95.6399ZM698.317 90.5592C698.323 87.4538 696.626 85.0106 693.44 83.2326L692.825 84.335C695.721 85.9515 697.06 88.0243 697.055 90.5567L698.317 90.5592ZM693.455 83.2414C690.36 81.3987 685.58 79.3435 679.147 77.0722L678.727 78.2627C685.14 80.5266 689.824 82.5489 692.81 84.3262L693.455 83.2414ZM679.149 77.0726C671.503 74.3574 665.165 71.7059 660.129 69.1196L659.553 70.2426C664.655 72.8628 671.048 75.5355 678.726 78.2623L679.149 77.0726ZM660.134 69.1223C655.272 66.5687 651.067 62.8511 647.52 57.9541L646.498 58.6946C650.148 63.7339 654.497 67.5875 659.547 70.24L660.134 69.1223ZM647.52 57.9541C644.021 53.1231 642.308 46.893 642.434 39.2127L641.172 39.1919C641.043 47.0713 642.8 53.5892 646.498 58.6946L647.52 57.9541ZM642.434 39.2035C642.449 31.5348 644.405 25.0783 648.271 19.7984L647.252 19.0526C643.204 24.5817 641.187 31.3097 641.172 39.2011L642.434 39.2035ZM648.269 19.8002C652.264 14.3844 657.644 10.2917 664.43 7.52621L663.953 6.35713C656.971 9.2026 651.398 13.4325 647.253 19.0508L648.269 19.8002ZM664.426 7.52755C671.337 4.75661 679.094 3.37359 687.708 3.39034L687.71 2.1279C678.959 2.11088 671.038 3.51622 663.956 6.3558L664.426 7.52755ZM687.708 3.39034C702.272 3.41866 713.726 6.80168 722.138 13.4694L722.922 12.4801C714.222 5.58398 702.462 2.15658 687.71 2.1279L687.708 3.39034ZM722.141 13.4719C730.645 20.1248 735.122 29.4771 735.543 41.6065L736.805 41.5626C736.372 29.1098 731.753 19.389 722.919 12.4776L722.141 13.4719ZM736.175 40.9533L695.753 40.8747L695.75 42.1372L736.173 42.2158L736.175 40.9533ZM696.383 41.4861C696.274 38.0284 695.413 35.4011 693.659 33.7666L692.799 34.6901C694.197 35.9933 695.017 38.2178 695.121 41.5257L696.383 41.4861ZM693.659 33.7666C691.961 32.1837 689.89 31.3919 687.484 31.3873L687.482 32.6497C689.585 32.6538 691.345 33.3353 692.799 34.6901L693.659 33.7666ZM687.484 31.3873C685.735 31.3839 684.263 32.0147 683.121 33.2791L684.058 34.1254C684.949 33.1386 686.074 32.647 687.482 32.6497L687.484 31.3873ZM683.144 33.255C681.973 34.4214 681.431 36.0692 681.428 38.0955L682.69 38.0979C682.693 36.2905 683.172 35.0087 684.035 34.1494L683.144 33.255ZM681.428 38.0955C681.422 41.0813 683.055 43.5183 686.111 45.4074L686.775 44.3335C683.975 42.6032 682.685 40.5243 682.69 38.0979L681.428 38.0955ZM686.135 45.4217C689.218 47.142 694.041 49.2504 700.582 51.746L701.032 50.5665C694.503 48.0755 689.75 45.9934 686.751 44.3193L686.135 45.4217ZM700.585 51.7472C708.119 54.575 714.287 57.282 719.097 59.8668L719.694 58.7547C714.818 56.134 708.593 53.4047 701.029 50.5653L700.585 51.7472ZM719.102 59.8696C723.975 62.4287 728.184 65.9853 731.73 70.5476L732.727 69.7727C729.075 65.0752 724.729 61.3988 719.689 58.7519L719.102 59.8696ZM731.73 70.5476C735.227 75.0461 736.989 80.7119 736.976 87.59L738.238 87.5924C738.252 80.4889 736.428 74.534 732.727 69.7727L731.73 70.5476ZM736.976 87.59C736.962 94.81 735.173 101.287 731.619 107.037L732.693 107.701C736.378 101.739 738.224 95.0304 738.238 87.5924L736.976 87.59ZM731.622 107.032C728.074 112.662 722.92 117.087 716.131 120.298L716.671 121.44C723.65 118.138 728.999 113.563 732.69 107.706L731.622 107.032ZM716.131 120.298C709.349 123.506 701.268 125.113 691.868 125.095L691.866 126.357C701.409 126.376 709.683 124.745 716.671 121.44L716.131 120.298Z" fill="#A7A6A6"/>
</svg>
