<svg width="497" height="125" viewBox="0 0 497 125" fill="none" xmlns="http://www.w3.org/2000/svg">
<path d="M52.0414 3.06663L52.6727 3.06785L52.6739 2.43663L52.0427 2.4354L52.0414 3.06663ZM51.9836 32.8337L51.9823 33.4649L52.6136 33.4662L52.6148 32.8349L51.9836 32.8337ZM20.1869 32.7719L20.1881 32.1407L19.5569 32.1394L19.5557 32.7707L20.1869 32.7719ZM20.0119 122.75L20.0107 123.381L20.6419 123.382L20.6431 122.751L20.0119 122.75ZM-17.5352 122.677L-18.1664 122.675L-18.1676 123.307L-17.5364 123.308L-17.5352 122.677ZM-17.3602 32.6989L-16.729 32.7001L-16.7278 32.0689L-17.359 32.0676L-17.3602 32.6989ZM-48.8186 32.6377L-49.4498 32.6365L-49.4511 33.2677L-48.8199 33.2689L-48.8186 32.6377ZM-48.7607 2.8706L-48.7595 2.23938L-49.3907 2.23815L-49.392 2.86937L-48.7607 2.8706ZM51.4102 3.0654L51.3523 32.8325L52.6148 32.8349L52.6727 3.06785L51.4102 3.0654ZM51.9848 32.2025L20.1881 32.1407L20.1857 33.4031L51.9823 33.4649L51.9848 32.2025ZM19.5557 32.7707L19.3807 122.748L20.6431 122.751L20.8181 32.7731L19.5557 32.7707ZM20.0132 122.118L-17.534 122.045L-17.5364 123.308L20.0107 123.381L20.0132 122.118ZM-16.904 122.678L-16.729 32.7001L-17.9914 32.6976L-18.1664 122.675L-16.904 122.678ZM-17.359 32.0676L-48.8174 32.0065L-48.8199 33.2689L-17.3615 33.3301L-17.359 32.0676ZM-48.1874 32.6389L-48.1295 2.87183L-49.392 2.86937L-49.4498 32.6365L-48.1874 32.6389ZM-48.762 3.50182L52.0402 3.69784L52.0427 2.4354L-48.7595 2.23938L-48.762 3.50182ZM122.203 122.948L121.643 123.24L121.82 123.579L122.202 123.58L122.203 122.948ZM99.7919 79.9453L100.352 79.6536L100.175 79.3149L99.7932 79.3141L99.7919 79.9453ZM99.6228 79.945L99.624 79.3138L98.9928 79.3126L98.9916 79.9438L99.6228 79.945ZM99.5393 122.904L99.538 123.536L100.169 123.537L100.17 122.906L99.5393 122.904ZM61.9921 122.831L61.3609 122.83L61.3597 123.461L61.9909 123.463L61.9921 122.831ZM62.225 3.08643L62.2262 2.4552L61.595 2.45398L61.5938 3.0852L62.225 3.08643ZM142.89 8.48637L142.603 9.04859L142.611 9.05225L142.89 8.48637ZM158.254 22.5542L157.704 22.8641L157.708 22.8703L157.711 22.8764L158.254 22.5542ZM156.652 63.8192L156.142 63.447L156.137 63.4531L156.652 63.8192ZM137.514 77.1434L137.32 76.5426L136.583 76.7801L136.964 77.4542L137.514 77.1434ZM163.471 123.029L163.47 123.66L164.554 123.662L164.02 122.718L163.471 123.029ZM99.6715 54.9136L99.0403 54.9124L99.039 55.5436L99.6702 55.5448L99.6715 54.9136ZM122.678 52.5905L123.093 53.0663L123.101 53.0592L123.109 53.0518L122.678 52.5905ZM122.538 37.3683L122.091 37.8138L122.098 37.8206L122.105 37.8272L122.538 37.3683ZM99.7109 34.6178L99.7122 33.9866L99.0809 33.9854L99.0797 34.6166L99.7109 34.6178ZM122.763 122.657L100.352 79.6536L99.2322 80.237L121.643 123.24L122.763 122.657ZM99.7932 79.3141L99.624 79.3138L99.6216 80.5762L99.7907 80.5765L99.7932 79.3141ZM98.9916 79.9438L98.908 122.903L100.17 122.906L100.254 79.9462L98.9916 79.9438ZM99.5405 122.273L61.9934 122.2L61.9909 123.463L99.538 123.536L99.5405 122.273ZM62.6234 122.833L62.8562 3.08766L61.5938 3.0852L61.3609 122.83L62.6234 122.833ZM62.2238 3.71765L118.037 3.82618L118.04 2.56374L62.2262 2.4552L62.2238 3.71765ZM118.037 3.82618C127.659 3.84489 135.84 5.59511 142.603 9.04854L143.177 7.9242C136.198 4.36014 127.811 2.58274 118.04 2.56374L118.037 3.82618ZM142.611 9.05225C149.382 12.3988 154.402 17.0047 157.704 22.8641L158.804 22.2443C155.364 16.1386 150.141 11.3659 143.17 7.92049L142.611 9.05225ZM157.711 22.8764C161.132 28.6398 162.841 35.1821 162.827 42.5206L164.089 42.5231C164.104 34.9781 162.344 28.2086 158.797 22.232L157.711 22.8764ZM162.827 42.5206C162.812 50.399 160.582 57.367 156.142 63.447L157.161 64.1915C161.766 57.8861 164.074 50.6558 164.089 42.5231L162.827 42.5206ZM156.137 63.4531C151.818 69.5189 145.561 73.8878 137.32 76.5426L137.707 77.7442C146.165 75.0194 152.666 70.5055 157.166 64.1854L156.137 63.4531ZM136.964 77.4542L162.921 123.339L164.02 122.718L138.063 76.8326L136.964 77.4542ZM163.472 122.397L122.204 122.317L122.202 123.58L163.47 123.66L163.472 122.397ZM99.6702 55.5448L114.554 55.5737L114.556 54.3113L99.6727 54.2824L99.6702 55.5448ZM114.554 55.5737C118.24 55.5809 121.124 54.782 123.093 53.0663L122.263 52.1146C120.617 53.5491 118.086 54.3182 114.556 54.3113L114.554 55.5737ZM123.109 53.0518C125.089 51.2026 126.023 48.4131 126.03 44.8169L124.768 44.8145C124.761 48.2091 123.882 50.6028 122.247 52.1291L123.109 53.0518ZM126.03 44.8169C126.037 41.5233 125.037 38.8604 122.972 36.9095L122.105 37.8272C123.867 39.4919 124.774 41.7939 124.768 44.8145L126.03 44.8169ZM122.986 36.9229C121.029 34.9583 118.195 34.0226 114.596 34.0156L114.593 35.278C117.985 35.2846 120.447 36.1633 122.091 37.8138L122.986 36.9229ZM114.596 34.0156L99.7122 33.9866L99.7097 35.2491L114.593 35.278L114.596 34.0156ZM99.0797 34.6166L99.0403 54.9124L100.303 54.9148L100.342 34.6191L99.0797 34.6166ZM212.231 3.37814L212.862 3.37936L212.864 2.74814L212.232 2.74691L212.231 3.37814ZM215.626 84.0606L215.114 84.4298L215.121 84.4399L215.129 84.4496L215.626 84.0606ZM239.473 84.107L239.961 84.5087L239.967 84.5002L239.473 84.107ZM243.52 3.43898L243.522 2.80776L242.89 2.80653L242.889 3.43776L243.52 3.43898ZM280.898 3.51167L281.53 3.5129L281.531 2.88167L280.9 2.88045L280.898 3.51167ZM273.607 100.241L274.149 100.563L274.151 100.56L273.607 100.241ZM254.121 118.3L254.4 118.867L254.121 118.3ZM199.492 118.194L199.199 118.753L199.202 118.755L199.492 118.194ZM181.261 100.061L180.707 100.364L181.261 100.061ZM174.853 3.30545L174.854 2.67423L174.223 2.673L174.222 3.30422L174.853 3.30545ZM211.6 3.37691L211.469 70.8602L212.731 70.8627L212.862 3.37936L211.6 3.37691ZM211.469 70.8602C211.458 76.4701 212.651 81.0142 215.114 84.4298L216.138 83.6914C213.878 80.5581 212.721 76.3027 212.731 70.8627L211.469 70.8602ZM215.129 84.4496C217.761 87.8131 221.921 89.4398 227.455 89.4505L227.457 88.1881C222.166 88.1778 218.44 86.632 216.123 83.6716L215.129 84.4496ZM227.455 89.4505C232.99 89.4613 237.205 87.8504 239.96 84.5086L238.987 83.7054C236.544 86.6677 232.746 88.1984 227.457 88.1881L227.455 89.4505ZM239.967 84.5002C242.681 81.0925 244.009 76.5447 244.02 70.9235L242.758 70.9211C242.747 76.3499 241.466 80.5918 238.98 83.7138L239.967 84.5002ZM244.02 70.9235L244.152 3.44021L242.889 3.43776L242.758 70.9211L244.02 70.9235ZM243.519 4.0702L280.897 4.14289L280.9 2.88045L243.522 2.80776L243.519 4.0702ZM280.267 3.51044L280.136 70.9938L281.398 70.9962L281.53 3.5129L280.267 3.51044ZM280.136 70.9938C280.114 82.2938 277.746 91.9276 273.062 99.9218L274.151 100.56C278.97 92.336 281.376 82.4725 281.398 70.9962L280.136 70.9938ZM273.064 99.9185C268.375 107.811 261.971 113.745 253.843 117.733L254.4 118.867C262.75 114.769 269.336 108.664 274.149 100.563L273.064 99.9185ZM253.843 117.733C245.7 121.73 236.604 123.724 226.542 123.704L226.54 124.966C236.774 124.986 246.065 122.957 254.4 118.867L253.843 117.733ZM226.542 123.704C216.481 123.684 207.566 121.655 199.782 117.633L199.202 118.755C207.188 122.881 216.306 124.947 226.54 124.966L226.542 123.704ZM199.785 117.635C192.128 113.621 186.14 107.668 181.815 99.7585L180.707 100.364C185.146 108.483 191.312 114.618 199.199 118.753L199.785 117.635ZM181.815 99.7585C177.496 91.8588 175.331 82.2117 175.353 70.79L174.091 70.7876C174.068 82.3677 176.263 92.2357 180.707 100.364L181.815 99.7585ZM175.353 70.79L175.484 3.30668L174.222 3.30422L174.091 70.7876L175.353 70.79ZM174.852 3.93667L212.23 4.00935L212.232 2.74691L174.854 2.67423L174.852 3.93667ZM308.209 114.515L307.835 115.024L307.842 115.029L308.209 114.515ZM293.214 84.888L293.215 84.2568L292.544 84.2555L292.583 84.9251L293.214 84.888ZM333.129 84.9656L333.758 84.9153L333.711 84.3355L333.13 84.3344L333.129 84.9656ZM347.318 93.9572L347.667 94.4832L347.676 94.4769L347.318 93.9572ZM344.972 82.6208L344.65 83.1632L344.657 83.1677L344.665 83.172L344.972 82.6208ZM330.777 76.5045L330.566 77.0993L330.567 77.0997L330.777 76.5045ZM311.681 68.5182L311.387 69.077L311.392 69.0797L311.681 68.5182ZM298.849 57.1614L299.36 56.7911L298.849 57.1614ZM293.643 38.0393L294.274 38.0497L294.274 38.0406L293.643 38.0393ZM299.601 18.2625L299.093 17.8878L299.092 17.8896L299.601 18.2625ZM316.031 5.77869L315.796 5.1928L315.793 5.19415L316.031 5.77869ZM374.37 11.8118L373.978 12.3064L373.981 12.3089L374.37 11.8118ZM388.014 40.4216L388.013 41.0528L388.667 41.0541L388.645 40.3996L388.014 40.4216ZM347.592 40.343L346.961 40.3628L346.98 40.973L347.59 40.9742L347.592 40.343ZM335.429 32.5393L335.875 32.9865L335.886 32.9747L335.898 32.9624L335.429 32.5393ZM338.283 43.7075L337.951 44.2444L337.963 44.2518L337.975 44.2587L338.283 43.7075ZM352.647 49.9933L352.422 50.5831L352.425 50.5843L352.647 49.9933ZM371.235 58.1478L370.937 58.7038L370.942 58.7066L371.235 58.1478ZM384.068 68.9972L383.57 69.3846L384.068 68.9972ZM383.996 106.206L384.53 106.543L384.533 106.538L383.996 106.206ZM368.24 119.706L367.971 119.135L368.24 119.706ZM343.708 123.932C329.487 123.904 317.791 120.579 308.575 114.001L307.842 115.029C317.318 121.793 329.287 125.166 343.706 125.194L343.708 123.932ZM308.582 114.007C299.523 107.35 294.598 97.6599 293.844 84.8509L292.583 84.9251C293.357 98.0527 298.43 108.114 307.835 115.024L308.582 114.007ZM293.212 85.5192L333.127 85.5969L333.13 84.3344L293.215 84.2568L293.212 85.5192ZM332.499 85.016C332.78 88.5266 333.702 91.2614 335.346 93.1261C337.009 95.0115 339.337 95.926 342.24 95.9316L342.243 94.6692C339.621 94.6641 337.668 93.8507 336.293 92.2912C334.9 90.711 334.027 88.2838 333.758 84.9153L332.499 85.016ZM342.24 95.9316C344.364 95.9358 346.186 95.4668 347.667 94.4831L346.969 93.4313C345.741 94.2465 344.179 94.673 342.243 94.6692L342.24 95.9316ZM347.676 94.4769C349.34 93.3297 350.153 91.5996 350.157 89.3962L348.895 89.3937C348.891 91.2494 348.231 92.5609 346.96 93.4375L347.676 94.4769ZM350.157 89.3962C350.163 86.2909 348.466 83.8476 345.28 82.0696L344.665 83.172C347.561 84.7885 348.899 86.8613 348.895 89.3937L350.157 89.3962ZM345.295 82.0784C342.199 80.2358 337.42 78.1805 330.987 75.9093L330.567 77.0997C336.979 79.3636 341.664 81.3859 344.65 83.1632L345.295 82.0784ZM330.988 75.9097C323.343 73.1944 317.005 70.5429 311.969 67.9566L311.392 69.0797C316.494 71.6998 322.888 74.3725 330.566 77.0993L330.988 75.9097ZM311.974 67.9593C307.112 65.4058 302.907 61.6882 299.36 56.7911L298.338 57.5316C301.988 62.5709 306.337 66.4246 311.387 69.077L311.974 67.9593ZM299.36 56.7911C295.861 51.9601 294.148 45.73 294.274 38.0497L293.012 38.029C292.882 45.9083 294.64 52.4262 298.338 57.5316L299.36 56.7911ZM294.274 38.0406C294.289 30.3719 296.245 23.9153 300.11 18.6354L299.092 17.8896C295.044 23.4187 293.027 30.1468 293.012 38.0381L294.274 38.0406ZM300.109 18.6372C304.104 13.2214 309.484 9.12873 316.269 6.36323L315.793 5.19415C308.811 8.03962 303.238 12.2695 299.093 17.8878L300.109 18.6372ZM316.266 6.36457C323.177 3.59363 330.934 2.21061 339.547 2.22736L339.55 0.964916C330.799 0.947898 322.878 2.35324 315.796 5.19282L316.266 6.36457ZM339.547 2.22736C354.112 2.25568 365.566 5.6387 373.978 12.3064L374.762 11.3171C366.062 4.421 354.301 0.993602 339.55 0.964916L339.547 2.22736ZM373.981 12.3089C382.485 18.9618 386.962 28.3142 387.383 40.4435L388.645 40.3996C388.212 27.9468 383.593 18.226 374.759 11.3146L373.981 12.3089ZM388.015 39.7903L347.593 39.7117L347.59 40.9742L388.013 41.0528L388.015 39.7903ZM348.222 40.3232C348.114 36.8654 347.253 34.2382 345.499 32.6037L344.638 33.5271C346.036 34.8304 346.857 37.0548 346.961 40.3628L348.222 40.3232ZM345.499 32.6037C343.801 31.0207 341.73 30.229 339.324 30.2243L339.321 31.4867C341.425 31.4908 343.185 32.1724 344.638 33.5271L345.499 32.6037ZM339.324 30.2243C337.575 30.2209 336.103 30.8517 334.961 32.1161L335.898 32.9624C336.789 31.9756 337.913 31.484 339.321 31.4867L339.324 30.2243ZM334.984 32.092C333.813 33.2585 333.271 34.9063 333.267 36.9325L334.53 36.9349C334.533 35.1275 335.012 33.8457 335.875 32.9865L334.984 32.092ZM333.267 36.9325C333.261 39.9183 334.894 42.3553 337.951 44.2444L338.615 43.1706C335.815 41.4402 334.525 39.3613 334.53 36.9349L333.267 36.9325ZM337.975 44.2587C341.058 45.9791 345.881 48.0874 352.422 50.5831L352.872 49.4036C346.343 46.9126 341.59 44.8304 338.59 43.1563L337.975 44.2587ZM352.425 50.5843C359.959 53.412 366.127 56.119 370.937 58.7038L371.534 57.5918C366.657 54.971 360.433 52.2417 352.869 49.4023L352.425 50.5843ZM370.942 58.7066C375.814 61.2658 380.023 64.8223 383.57 69.3846L384.567 68.6098C380.915 63.9122 376.569 60.2358 371.529 57.589L370.942 58.7066ZM383.57 69.3846C387.067 73.8832 388.829 79.549 388.815 86.427L390.078 86.4294C390.092 79.3259 388.268 73.3711 384.567 68.6098L383.57 69.3846ZM388.815 86.427C388.801 93.6471 387.013 100.124 383.459 105.874L384.533 106.538C388.218 100.576 390.063 93.8674 390.078 86.4294L388.815 86.427ZM383.462 105.87C379.914 111.499 374.76 115.924 367.971 119.135L368.51 120.277C375.49 116.975 380.839 112.4 384.53 106.543L383.462 105.87ZM367.971 119.135C361.189 122.343 353.108 123.95 343.708 123.932L343.706 125.194C353.248 125.213 361.523 123.582 368.51 120.277L367.971 119.135ZM496.837 3.93159L497.468 3.93282L497.469 3.30159L496.838 3.30037L496.837 3.93159ZM496.779 33.6987L496.778 34.3299L497.409 34.3311L497.41 33.6999L496.779 33.6987ZM464.982 33.6368L464.983 33.0056L464.352 33.0044L464.351 33.6356L464.982 33.6368ZM464.807 123.615L464.806 124.246L465.437 124.247L465.438 123.616L464.807 123.615ZM427.26 123.542L426.629 123.54L426.628 124.172L427.259 124.173L427.26 123.542ZM427.435 33.5638L428.066 33.5651L428.067 32.9338L427.436 32.9326L427.435 33.5638ZM395.977 33.5027L395.345 33.5014L395.344 34.1327L395.975 34.1339L395.977 33.5027ZM396.034 3.73557L396.036 3.10434L395.404 3.10312L395.403 3.73434L396.034 3.73557ZM496.205 3.93036L496.148 33.6975L497.41 33.6999L497.468 3.93282L496.205 3.93036ZM496.78 33.0675L464.983 33.0056L464.981 34.2681L496.778 34.3299L496.78 33.0675ZM464.351 33.6356L464.176 123.613L465.438 123.616L465.613 33.6381L464.351 33.6356ZM464.808 122.983L427.261 122.91L427.259 124.173L464.806 124.246L464.808 122.983ZM427.891 123.543L428.066 33.5651L426.804 33.5626L426.629 123.54L427.891 123.543ZM427.436 32.9326L395.978 32.8714L395.975 34.1339L427.434 34.1951L427.436 32.9326ZM396.608 33.5039L396.666 3.7368L395.403 3.73434L395.345 33.5014L396.608 33.5039ZM396.033 4.36678L496.835 4.56281L496.838 3.30037L396.036 3.10434L396.033 4.36678Z" fill="#A1A1A1"/>
</svg>
